<svg width="69" height="55" viewBox="0 0 69 55" fill="none" xmlns="http://www.w3.org/2000/svg">
<g filter="url(#filter0_i_1729_1272)">
<path d="M24.9197 4.49189C29.3574 3.18887 34.0761 3.18887 38.5139 4.49189C42.9516 5.79492 46.9212 8.34606 49.95 11.8414C52.9788 15.3368 54.939 19.6291 55.5972 24.2071C56.2554 28.7851 55.5839 33.4558 53.6625 37.6629C51.7412 41.87 48.6511 45.4362 44.7603 47.9367C40.8694 50.4372 36.3418 51.7666 31.7168 51.7666C27.0917 51.7666 22.5641 50.4372 18.6733 47.9367C14.7824 45.4362 11.6923 41.87 9.77101 37.6629C7.84969 33.4558 7.17815 28.7851 7.83636 24.2071C8.49458 19.6291 10.4548 15.3368 13.4836 11.8414C16.5123 8.34606 20.482 5.79492 24.9197 4.49189Z" fill="#FFDA1A"/>
<path d="M25.7669 7.37413C29.6518 6.23342 33.7827 6.23342 37.6675 7.37413C41.5524 8.51483 45.0275 10.7482 47.679 13.8081C50.3305 16.8681 52.0465 20.6256 52.6227 24.6333C53.1989 28.641 52.611 32.7298 50.9291 36.4128C49.2471 40.0958 46.5419 43.2178 43.1358 45.4068C39.7297 47.5958 35.7661 48.7596 31.7172 48.7596C27.6683 48.7596 23.7048 47.5958 20.2986 45.4068C16.8925 43.2178 14.1873 40.0958 12.5053 36.4128C10.8234 32.7298 10.2355 28.641 10.8117 24.6333C11.3879 20.6256 13.104 16.8681 15.7554 13.8081C18.4069 10.7482 21.882 8.51483 25.7669 7.37413Z" fill="#FFE86C"/>
<path d="M26.6198 10.2818C29.9476 9.30466 33.4861 9.30466 36.8138 10.2818C40.1416 11.2589 43.1184 13.172 45.3896 15.7931C47.6608 18.4142 49.1308 21.633 49.6244 25.0659C50.1179 28.4989 49.6144 32.0014 48.1736 35.1562C46.7328 38.311 44.4156 40.9853 41.4979 42.8603C38.5802 44.7354 35.1851 45.7323 31.7168 45.7323C28.2485 45.7323 24.8534 44.7354 21.9357 42.8603C19.018 40.9853 16.7008 38.311 15.26 35.1562C13.8193 32.0014 13.3157 28.4989 13.8093 25.0659C14.3028 21.633 15.7728 18.4142 18.044 15.7931C20.3152 13.172 23.292 11.2589 26.6198 10.2818Z" fill="#F4C82B"/>
<path d="M27.0549 11.7652C30.0982 10.8716 33.3342 10.8716 36.3774 11.7652C39.4207 12.6587 42.143 14.4083 44.22 16.8053C46.2971 19.2024 47.6414 22.1459 48.0928 25.2854C48.5442 28.4248 48.0836 31.6279 46.766 34.513C45.4484 37.3982 43.3293 39.8438 40.6611 41.5585C37.9928 43.2733 34.8879 44.185 31.7162 44.185C28.5444 44.185 25.4395 43.2733 22.7712 41.5585C20.103 39.8438 17.9839 37.3982 16.6663 34.513C15.3487 31.6279 14.8882 28.4249 15.3395 25.2854C15.7909 22.1459 17.1352 19.2024 19.2123 16.8053C21.2893 14.4083 24.0116 12.6587 27.0549 11.7652Z" fill="#FFE76D"/>
<path d="M27.3629 12.8152C30.2047 11.9808 33.2266 11.9808 36.0685 12.8152C38.9103 13.6497 41.4525 15.2834 43.3921 17.5218C45.3317 19.7602 46.587 22.509 47.0085 25.4407C47.43 28.3724 47 31.3635 45.7696 34.0577C44.5392 36.7519 42.5603 39.0357 40.0686 40.637C37.577 42.2383 34.6775 43.0896 31.7157 43.0896C28.7538 43.0896 25.8544 42.2383 23.3627 40.637C20.871 39.0357 18.8921 36.7519 17.6617 34.0577C16.4313 31.3635 16.0013 28.3724 16.4228 25.4407C16.8443 22.509 18.0996 19.7602 20.0392 17.5218C21.9788 15.2834 24.521 13.6497 27.3629 12.8152Z" fill="#FFE13F"/>
<g filter="url(#filter1_d_1729_1272)">
<path d="M36.1784 15.1211V43.2405H29.6708V20.3433H24.0469V15.1211H36.1784Z" fill="white"/>
</g>
<rect x="42.2865" y="9.76234" width="14.9662" height="8.97052" rx="4.48526" transform="rotate(19.7015 42.2865 9.76234)" fill="#2F2F2F" stroke="black"/>
<rect x="42.5951" y="10.5748" width="13.8617" height="7.19154" rx="3.59577" transform="rotate(19.7015 42.5951 10.5748)" fill="url(#paint0_linear_1729_1272)" stroke="black"/>
<path d="M42.8141 11.1853L42.3866 12.3794L43.0104 12.6028L43.3614 11.6226L44.2347 11.9353L44.4581 11.3115L43.2105 10.8648L42.8141 11.1853Z" fill="#FFE18F"/>
<path d="M53.2112 21.219L53.6388 20.0249L53.015 19.8015L52.664 20.7817L51.7907 20.469L51.5673 21.0928L52.8149 21.5395L53.2112 21.219Z" fill="#FFE18F"/>
<path d="M54.9319 15.1208L53.7378 14.6932L53.5144 15.3171L54.4946 15.6681L54.1819 16.5413L54.8057 16.7647L55.2524 15.5172L54.9319 15.1208Z" fill="#FFE18F"/>
<path d="M41.0935 17.2835L42.2876 17.7111L42.511 17.0872L41.5308 16.7362L41.8435 15.863L41.2197 15.6396L40.773 16.8871L41.0935 17.2835Z" fill="#FFE18F"/>
<path d="M46.9237 29.9105L46.2113 30.5492L41.7236 36.424C41.4458 36.7678 40.7983 37.4725 40.4313 37.5411C40.0642 37.6097 38.0893 38.7506 37.1478 39.3125L36.3062 39.883C35.8647 40.5226 34.7853 42.0218 33.9988 42.9021C34.3706 42.1473 33.8459 40.5435 33.1136 39.4944C32.3813 38.4454 32.4709 37.2163 32.79 36.8952C34.0025 34.1628 31.3598 31.7213 31.5407 30.5633C34.433 29.4754 34.4223 25.1464 34.804 24.0593C35.1093 23.1896 36.6536 22.3485 37.3875 22.0367C37.8997 21.4796 38.4067 20.9564 38.7872 20.5768C39.1971 20.4378 40.1099 20.2527 40.4818 20.6244C40.8537 20.9962 41.5922 21.0014 41.9149 20.9575C42.3359 21.0995 43.4357 21.6507 44.4664 22.7192C45.4971 23.7878 45.9052 25.8934 45.9804 26.8126C46.2625 27.2159 46.5291 27.5846 46.7413 27.8706L46.9237 29.9105Z" fill="#2F2F2F"/>
<path d="M44.0726 23.5328C44.1431 24.0722 45.1319 25.5994 45.9804 26.8126M45.9804 26.8126C46.2625 27.2159 46.5291 27.5846 46.7413 27.8706L46.9237 29.9105L46.2113 30.5492L41.7236 36.424C41.4458 36.7678 40.7983 37.4725 40.4313 37.5411C40.0642 37.6097 38.0893 38.7506 37.1478 39.3125L36.3062 39.883C35.8647 40.5226 34.7853 42.0218 33.9988 42.9021C34.3706 42.1473 33.8459 40.5435 33.1136 39.4944C32.3813 38.4454 32.4709 37.2163 32.79 36.8952C34.0025 34.1628 31.3598 31.7213 31.5407 30.5633C34.433 29.4754 34.4223 25.1464 34.804 24.0593C35.1093 23.1896 36.6536 22.3485 37.3875 22.0367M45.9804 26.8126C45.9052 25.8934 45.4971 23.7878 44.4664 22.7192C43.4357 21.6507 42.3359 21.0995 41.9149 20.9575C41.5922 21.0014 40.8537 20.9962 40.4818 20.6244C40.1099 20.2527 39.1971 20.4378 38.7872 20.5768C38.4067 20.9564 37.8997 21.4796 37.3875 22.0367M35.2172 24.9484C35.2637 24.4663 36.3365 23.18 37.3875 22.0367" stroke="black"/>
<path d="M46.5865 40.4955L46.3126 40.7581C44.9087 43.8124 43.2848 43.2567 42.6483 42.5971L42.6839 41.311L42.7195 40.0248L41.935 38.9617L42.1864 36.8963L41.3664 36.1246L41.7242 33.1846L41.1452 32.2002L39.4033 30.8324C39.3753 30.0316 39.3303 28.34 39.3742 27.9799C39.418 27.6198 39.3978 26.7553 39.3822 26.368L41.5771 25.5601L43.7214 26.493L45.4396 28.7181L46.6709 31.8515L47.2217 33.2891L46.4034 34.0496L46.6116 34.9887L46.152 36.1153L46.4642 39.513L46.5865 40.4955Z" fill="white"/>
<path d="M46.3126 40.7581L46.5865 40.4955L46.4642 39.513L46.152 36.1153L46.6116 34.9887L46.4034 34.0496L47.2217 33.2891L46.6709 31.8515L45.4396 28.7181L43.7214 26.493L41.5771 25.5601L39.3822 26.368C39.3978 26.7553 39.418 27.6198 39.3742 27.9799C39.3303 28.34 39.3753 30.0316 39.4033 30.8324L41.1452 32.2002L41.7242 33.1846M46.3126 40.7581C44.9087 43.8124 43.2848 43.2567 42.6483 42.5971L42.6839 41.311M46.3126 40.7581C45.7127 38.6205 43.6435 40.236 42.6839 41.311M41.7242 33.1846L43.7091 31.8941L45.4095 32.7193M41.7242 33.1846L41.3664 36.1246L42.1864 36.8963L41.935 38.9617L42.7195 40.0248L42.6839 41.311" stroke="black"/>
<path d="M46.1816 40.5789L47.3779 41.7396L48.4873 42.294C49.4947 42.4918 51.6003 42.9888 51.9636 43.394C52.3268 43.7993 51.9131 44.1615 51.6609 44.292L50.4856 44.1489C49.6653 43.9148 47.946 43.4304 47.6315 43.3664C47.317 43.3023 47.4399 43.8373 47.5407 44.1128L49.5564 45.8248L50.9296 46.4593C50.9833 46.6807 51.0104 47.1461 50.69 47.236C50.3696 47.3259 49.9743 47.2026 49.8166 47.1297L47.3647 45.558L46.863 45.0457L46.8946 45.7103L47.7394 46.7157L47.912 49.1381L47.4359 49.2091L46.9063 48.6611L46.6994 47.3144L46.1674 45.9925L45.7297 46.2777L45.761 47.3452L45.1952 47.8888L44.9416 48.6477L44.4493 48.5877L44.1474 47.8902L44.719 47.299L44.449 45.4127L43.1696 43.742L43.6186 42.7007L43.8371 40.9061L44.4981 40.374C44.5924 40.2619 44.8101 39.877 44.927 39.2336C45.0733 38.4295 45.5612 37.7314 46.0554 37.7755C46.5497 37.8195 46.7892 38.2354 46.6479 38.734C46.5349 39.1328 46.3686 39.4842 46.2996 39.61L46.1816 40.5789Z" fill="url(#paint1_linear_1729_1272)" stroke="black"/>
<path d="M46.3144 48.9904C46.2125 48.9945 46.0769 48.982 45.9447 48.9387L45.4906 49.4269C45.3504 49.4187 45.0825 49.3278 45.1328 49.0302C45.1831 48.7326 45.4181 48.6119 45.5293 48.5887C45.4905 48.4979 45.4715 48.3882 45.4814 48.2561C45.5914 48.0994 45.9335 47.6693 46.4037 47.0865C47.4726 45.7615 49.2031 43.6474 50.372 42.1633C51.0405 41.3146 51.5252 40.6719 51.5975 40.5008C52.0424 40.2637 52.6353 39.9907 53.1565 39.7619C53.5414 39.593 53.8872 39.448 54.1055 39.3594L53.6182 40.4112L53.0507 41.6363C53.081 41.634 52.4411 42.3443 51.5448 43.3242C50.2415 44.7492 48.396 46.7443 47.2814 47.9475C46.6977 48.5775 46.3144 48.9904 46.3144 48.9904Z" fill="#2F2F2F"/>
<path d="M53.0507 41.6363C52.6213 41.7467 51.7296 41.6741 51.5975 40.5008M53.0507 41.6363C53.081 41.634 52.4411 42.3443 51.5448 43.3242M53.0507 41.6363L53.6182 40.4112M51.5975 40.5008C51.5252 40.6719 51.0405 41.3146 50.372 42.1633M51.5975 40.5008C52.0424 40.2637 52.6353 39.9907 53.1565 39.7619M45.9447 48.9387C46.0769 48.982 46.2125 48.9945 46.3144 48.9904C46.3144 48.9904 46.6977 48.5775 47.2814 47.9475M45.9447 48.9387L45.4906 49.4269C45.3504 49.4187 45.0825 49.3278 45.1328 49.0302C45.1831 48.7326 45.4181 48.6119 45.5293 48.5887M45.9447 48.9387C45.7743 48.8829 45.6094 48.7762 45.5293 48.5887M45.5293 48.5887C45.4905 48.4979 45.4715 48.3882 45.4814 48.2561C45.5914 48.0994 45.9335 47.6693 46.4037 47.0865M50.372 42.1633C50.4125 42.591 50.7038 43.4219 51.5448 43.3242M50.372 42.1633C49.2031 43.6474 47.4726 45.7615 46.4037 47.0865M51.5448 43.3242C50.2415 44.7492 48.396 46.7443 47.2814 47.9475M46.4037 47.0865C46.3713 47.372 46.5015 47.9438 47.2814 47.9475M53.1565 39.7619C53.5414 39.593 53.8872 39.448 54.1055 39.3594L53.6182 40.4112M53.1565 39.7619C53.0715 39.9424 53.0449 40.3249 53.6182 40.4112" stroke="black"/>
<path d="M23.4949 36.3112L26.8673 35.9664L26.9099 35.6164L26.6717 34.6546L19.0524 28.6651L4.48737 30.4894L2.89929 34.7811L7.96692 41.3038C8.06485 41.7154 8.26222 42.6719 8.26832 43.2055C9.38391 41.9204 12.5787 42.694 14.0367 43.2415L7.17225 33.969L8.26921 33.3476L13.1689 33.5888L19.5574 34.3664L23.4949 36.3112Z" fill="#3169F8" stroke="black"/>
<path d="M45.5966 22.2855C44.7013 21.0533 42.9281 20.8686 42.1534 20.9303C45.0107 22.3236 45.8505 25.3782 45.9133 26.7314L46.7001 27.9583L46.896 29.8738L46.1293 30.4046L46.3399 30.9178L47.0898 31.1651L47.6859 30.5941L48.5691 31.1891L49.3778 29.5128C49.4541 29.0996 49.5869 28.0522 49.5072 27.1688C49.4076 26.0645 47.5486 23.7126 45.5966 22.2855Z" fill="white" stroke="black"/>
<path d="M6.07301 54.7598L10.9664 49.2174L8.74701 46.8275L2.31641 49.7007L6.07301 54.7598Z" fill="#FFE254"/>
<path d="M19.453 20.2383L27.4817 27.1074L27.117 35.467L22.3088 34.8818L20.5495 33.6152L19.0401 29.5088L12.5776 21.2915L13.4836 34.286L9.8332 32.3109L9.28461 26.5993L6.18057 17.5151L6.91537 16.4564L9.60977 14.2329L19.453 20.2383Z" fill="#3169F8" stroke="black"/>
<path d="M23.2171 30.9776C23.6457 31.149 25.6814 31.3348 26.6458 31.4062C26.461 31.6124 26.8169 34.4566 27.0179 35.8529L23.4739 36.2292L19.6319 34.3788L13.6804 33.6778L13.6277 32.9213L13.9493 33.0134L19.7886 31.4062L18.7708 29.049L12.5564 21.3882L13.6277 34.1384L11.7528 33.0134L11.1099 23.2632L10.3063 21.3882L10.6277 19.781L11.1099 17.0488L13.0384 18.7096L13.6277 19.781L20.6457 27.924C21.3243 28.8704 22.7886 30.8062 23.2171 30.9776Z" fill="#284693" style="mix-blend-mode:darken"/>
<path d="M5.72073 32.3427L9.78652 31.7049C9.56335 32.2868 10.04 32.532 10.3063 32.5818L10.0655 33.2196H8.55077L7.55426 33.6778L7.35495 34.3788L5.52136 34.6147L5.24219 34.1384L6.27856 33.4588L5.72073 32.3427Z" fill="#284693" style="mix-blend-mode:darken"/>
<path d="M11.2686 42.6735L8.20543 38.3507L10.6101 38.5511L13.9493 43.1315L11.2686 42.6735Z" fill="#284693" style="mix-blend-mode:darken"/>
<path d="M30.6434 27.9139L34.462 25.4587C34.0408 28.9194 32.4463 30.2444 31.4969 30.4828C31.8008 31.4874 33.1834 34.4639 33.2275 35.602C33.2627 36.5125 32.8094 37.3461 32.5783 37.6491L30.2523 37.206L29.4178 36.5044L27.9269 36.9229C27.7219 36.7446 27.2545 36.2691 27.0244 35.7931C26.7944 35.3171 26.4972 32.6757 26.3774 31.4145L27.5554 27.1581L28.6407 26.9502L28.9744 27.3308L29.9217 27.1061L30.1704 27.8563L30.6434 27.9139Z" fill="white" stroke="black"/>
<path d="M34.0857 42.8804C32.7594 42.719 31.1361 39.1203 30.4902 37.3411L30.501 37.2518L32.6295 37.6015C32.6094 37.8161 32.6911 38.4628 33.1786 39.3326C34.1147 40.8577 34.2608 42.6304 34.0857 42.8804Z" fill="#6A6A6A" stroke="black"/>
<path d="M13.598 35.1766L12.4586 33.9465L10.7254 33.9465L10.1393 33.5359L7.37118 34.4187L4.68027 34.8947L2.48308 36.0962L2.62655 37.1946L3.64918 37.901L8.21271 38.207L12.2248 38.9448L13.359 38.2791L14.1173 37.1946L13.8946 36.0962L13.598 35.1766Z" fill="white" stroke="black"/>
<path d="M11.1723 44.8591L10.4074 44.766L9.58597 46.0515L7.00338 48.3701L6.01049 52.0138L6.48149 52.658C7.0334 52.3741 8.16453 51.8096 8.27378 51.8229C8.38302 51.8362 12.5134 49.4011 14.5649 48.1819C14.8123 47.6669 14.9105 46.9129 14.9104 46.4931C14.9104 46.2763 14.6572 45.4493 14.0997 44.7162L12.9331 43.8261L11.1723 44.8591Z" fill="white" stroke="black"/>
<path d="M45.7153 13.3698C46.3855 13.6027 46.74 14.3349 46.507 15.0051C46.2741 15.6753 45.5419 16.0298 44.8717 15.7968C44.2015 15.5638 43.8471 14.8317 44.08 14.1615C44.313 13.4913 45.0451 13.1368 45.7153 13.3698ZM44.9611 15.5398C45.4893 15.7234 46.0664 15.444 46.25 14.9158C46.4336 14.3875 46.1542 13.8104 45.626 13.6268C45.0977 13.4432 44.5207 13.7226 44.337 14.2508C44.1534 14.7791 44.4328 15.3562 44.9611 15.5398Z" fill="white"/>
<path d="M48.5532 14.3561C49.2234 14.5891 49.5779 15.3212 49.3449 15.9914C49.112 16.6616 48.3798 17.0161 47.7096 16.7831C47.0394 16.5502 46.6849 15.818 46.9179 15.1478C47.1509 14.4776 47.883 14.1232 48.5532 14.3561ZM47.8095 16.4956C48.321 16.6734 48.8796 16.4029 49.0574 15.8915C49.2352 15.3801 48.9647 14.8214 48.4533 14.6436C47.9419 14.4659 47.3832 14.7363 47.2054 15.2478C47.0276 15.7592 47.2981 16.3179 47.8095 16.4956Z" fill="white"/>
<path d="M46.6938 15.2038C47.364 15.4367 47.7185 16.1689 47.4855 16.8391C47.2526 17.5093 46.5204 17.8637 45.8502 17.6308C45.18 17.3978 44.8256 16.6657 45.0585 15.9955C45.2915 15.3253 46.0236 14.9708 46.6938 15.2038ZM45.9561 17.3263C46.4581 17.5008 47.0066 17.2353 47.1811 16.7333C47.3556 16.2312 47.0901 15.6827 46.588 15.5082C46.086 15.3337 45.5375 15.5993 45.363 16.1013C45.1885 16.6034 45.454 17.1518 45.9561 17.3263Z" fill="white"/>
<path d="M49.5005 16.1784C50.1707 16.4113 50.5251 17.1435 50.2922 17.8137C50.0592 18.4839 49.3271 18.8384 48.6569 18.6054C47.9867 18.3724 47.6322 17.6403 47.8652 16.9701C48.0981 16.2999 48.8303 15.9454 49.5005 16.1784ZM48.7648 18.2949C49.2635 18.4682 49.8083 18.2045 49.9817 17.7058C50.155 17.2071 49.8912 16.6623 49.3925 16.4889C48.8938 16.3156 48.349 16.5793 48.1757 17.078C48.0023 17.5767 48.2661 18.1215 48.7648 18.2949Z" fill="white"/>
<path d="M51.3286 15.321C51.9988 15.5539 52.3533 16.2861 52.1203 16.9563C51.8873 17.6265 51.1552 17.9809 50.485 17.748C49.8148 17.515 49.4603 16.7829 49.6933 16.1127C49.9262 15.4425 50.6584 15.088 51.3286 15.321ZM50.5906 17.444C51.093 17.6186 51.6417 17.353 51.8163 16.8506C51.991 16.3483 51.7253 15.7995 51.223 15.6249C50.7206 15.4503 50.1719 15.716 49.9972 16.2183C49.8226 16.7206 50.0883 17.2694 50.5906 17.444Z" fill="white"/>
<path d="M10.5713 44.7067L9.30859 42.5814C9.6452 42.4299 11.2867 42.5183 12.0653 42.5814L12.8439 43.8649L11.1605 44.896L10.5713 44.7067Z" fill="white"/>
<path d="M10.377 32.6309L10.1964 33.6468L10.5713 34.2337L12.3584 33.8964L13.0637 34.4906V34.0531L10.377 32.6309Z" fill="white"/>
<path d="M10.5713 44.7067L9.30859 42.5814C9.6452 42.4299 11.2867 42.5183 12.0653 42.5814L12.8439 43.8649L11.1605 44.896L10.5713 44.7067Z" stroke="black"/>
<path d="M10.377 32.6309L10.1964 33.6468L10.5713 34.2337L12.3584 33.8964L13.0637 34.4906V34.0531L10.377 32.6309Z" stroke="black"/>
<path d="M7.43063 49.3021L6.23377 50.8543L6.04688 52.238L7.80464 49.7135L9.5437 48.8907L11.021 47.3388C11.4137 46.8214 12.4945 45.7867 13.6763 45.7867C14.8581 45.7867 14.9666 46.3476 14.8731 46.6281L15.1349 46.0858C14.9541 45.824 14.4093 45.2668 13.6763 45.1322C12.9433 44.9976 11.7129 45.7992 11.1893 46.2168L10.7218 45.7867H9.2819L8.94531 46.2168L8.04773 47.3388L8.15993 48.0681L8.66482 48.5542L7.43063 49.3021Z" fill="#6023C3"/>
<path d="M12.4795 45.0386L10.6282 44.8703L11.5071 44.459H12.6478C13.2088 44.5151 14.327 44.676 14.312 44.8703C13.4294 44.5112 12.7226 44.8329 12.4795 45.0386Z" fill="#6023C3"/>
<path d="M7.43063 49.3021L6.23377 50.8543L6.04688 52.238L7.80464 49.7135L9.5437 48.8907L11.021 47.3388C11.4137 46.8214 12.4945 45.7867 13.6763 45.7867C14.8581 45.7867 14.9666 46.3476 14.8731 46.6281L15.1349 46.0858C14.9541 45.824 14.4093 45.2668 13.6763 45.1322C12.9433 44.9976 11.7129 45.7992 11.1893 46.2168L10.7218 45.7867H9.2819L8.94531 46.2168L8.04773 47.3388L8.15993 48.0681L8.66482 48.5542L7.43063 49.3021Z" stroke="black"/>
<path d="M12.4795 45.0386L10.6282 44.8703L11.5071 44.459H12.6478C13.2088 44.5151 14.327 44.676 14.312 44.8703C13.4294 44.5112 12.7226 44.8329 12.4795 45.0386Z" stroke="black"/>
<path d="M41.0434 27.717C41.4652 27.2068 42.041 27.34 42.2762 27.4704C42.8287 27.8274 42.7694 28.5079 42.6249 28.7034C42.4803 28.899 41.9786 29.4772 41.4259 29.2306C40.8732 28.984 40.5161 28.3547 41.0434 27.717Z" fill="#D15555"/>
<path d="M41.9414 27.6609L41.3462 28.8767C41.2045 28.8285 40.9737 28.6149 41.1846 28.1455C41.3955 27.6762 41.777 27.6269 41.9414 27.6609Z" fill="#FFFA81"/>
<path d="M42.2305 27.8053L41.6353 28.9787C41.7855 29.0127 42.1335 28.994 42.324 28.6471C42.5144 28.3002 42.341 27.9414 42.2305 27.8053Z" fill="#FFFA81"/>
<path d="M39.5757 34.6349C40.5082 34.7893 41.0663 34.3047 41.2288 34.043C41.415 33.837 41.7891 33.3475 41.7958 33.0376C41.186 32.8626 40.9784 32.3488 40.9507 32.1137C40.6983 31.8612 40.0817 31.3217 39.6343 31.1834C37.0535 32.452 38.4101 34.4418 39.5757 34.6349Z" fill="#FFFA81"/>
<path d="M39.511 31.6963L39.6403 31.7893M39.7695 31.8824L39.6403 31.7893M39.6403 31.7893C39.2428 32.0986 38.6706 32.9718 39.5615 33.9904M41.2288 34.043C41.0663 34.3047 40.5082 34.7893 39.5757 34.6349C38.4101 34.4418 37.0535 32.452 39.6343 31.1834C40.0817 31.3217 40.6983 31.8612 40.9507 32.1137C40.9784 32.3488 41.186 32.8626 41.7958 33.0376C41.7891 33.3475 41.415 33.837 41.2288 34.043ZM41.2768 33.2622C41.0898 33.4815 40.6507 33.923 40.3901 33.9338C40.0644 33.9474 39.9755 33.6872 40.0809 33.5378C40.1652 33.4184 40.3134 33.3516 40.3769 33.3331C40.4058 33.3879 40.4904 33.493 40.5974 33.4753C40.7312 33.4532 40.8981 33.1938 40.8172 33.0038C40.9669 32.847 41.5672 32.789 41.2768 33.2622ZM40.7274 32.1187C40.6237 32.2504 40.3351 32.54 40.0101 32.6443C39.6038 32.7747 39.4878 32.4448 39.6949 32.2676C39.8606 32.1259 40.2567 31.942 40.4341 31.8678L40.7274 32.1187Z" stroke="black"/>
<path d="M43.036 21.3191C43.8298 21.7701 45.5203 22.8399 45.9317 23.5112C46.446 24.3502 48.9087 26.8671 48.8546 28.2743M45.9317 24.4314C46.8699 25.3245 48.6706 27.549 48.3675 29.3027C48.0644 31.0564 46.87 31.0979 46.3107 30.8994M46.8519 29.8981C47.2579 29.7899 47.9886 29.3514 47.6638 28.4638M42.17 32.1443L43.7397 31.1971L45.4176 32.1443M42.5219 35.7437C43.3879 35.1032 45.1795 34.0279 45.4176 34.8506C45.7153 35.879 45.3635 35.0401 44.5516 35.3107C43.9021 35.5272 43.1082 36.0144 42.7925 36.2309M28.9092 27.3813C28.7878 27.6615 28.6613 27.9979 28.5415 28.3766M29.3963 36.4474C29.2515 36.2813 29.1195 36.1086 28.9996 35.9303M27.5649 27.4992C27.7679 27.4926 28.2474 27.5232 28.5415 27.6986M27.3057 28.1371C27.5951 28.1107 28.2474 28.1218 28.5415 28.3766M28.5415 28.3766C28.4713 28.5987 28.4034 28.8352 28.3402 29.0835M28.3402 29.0835C28.1792 29.0274 27.4506 28.8943 27.1064 28.8347C26.2046 28.5661 24.3591 27.9958 24.1913 27.8637C24.0234 27.7316 23.9815 26.8941 23.9815 26.4919L25.1001 24.9189M28.3402 29.0835C28.2855 29.2984 28.2343 29.522 28.1882 29.7526M26.8672 29.5123L28.1882 29.7526M28.1882 29.7526C28.1506 29.9408 28.1163 30.1336 28.0862 30.33M26.6879 30.0904L28.0862 30.33M28.0862 30.33C28.052 30.5534 28.0232 30.7814 28.0011 31.0127M26.5284 30.9075L28.0011 31.0127M28.0011 31.0127C27.9756 31.2799 27.959 31.5515 27.9532 31.825M26.5284 31.9639L27.9532 31.825M27.9532 31.825C27.9474 32.0962 27.9522 32.3695 27.9696 32.6425M26.6879 32.9206L27.9696 32.6425M27.9696 32.6425C27.9877 32.9287 28.0196 33.2147 28.0673 33.498M26.6879 33.8176L28.0673 33.498M28.0673 33.498C28.1192 33.8057 28.1897 34.1101 28.2817 34.4081M26.8672 34.854L28.2817 34.4081M28.2817 34.4081C28.3658 34.6805 28.4678 34.9475 28.5898 35.2065M26.9869 35.9303L28.5898 35.2065M28.5898 35.2065C28.7072 35.4559 28.8432 35.6979 28.9996 35.9303M27.7642 36.7076L28.9996 35.9303M30.6344 27.8637C30.1284 28.6529 29.3466 30.6138 30.2671 32.1443M30.1447 27.8637C29.4826 28.6389 28.4059 30.826 29.3963 33.372M11.677 19.3258H12.9703L12.743 20.0948M11.677 19.3258L11.8866 18.2771L11.0127 17.2285M11.677 19.3258L11.3623 20.0948L11.677 20.8639L12.5158 32.9206L10.1738 31.825M12.743 20.0948L12.5158 20.8639L11.8866 20.0948M12.743 20.0948L20.1712 28.1371L20.6606 31.0127L22.5483 31.825C22.6415 32.2987 22.9538 33.2713 23.4571 33.372C23.4571 33.7285 23.8067 34.5085 23.9815 34.854H22.793L22.5483 32.9206M20.6606 33.1686L13.4946 32.9206M9.8592 32.1443L7.0627 32.6425V33.1686L5.07031 33.8176L6.50347 34.6018M9.8592 38.6567L12.5158 41.9426C11.7468 41.6746 9.87325 41.3693 8.53093 42.2921" stroke="black"/>
<path d="M27.9534 32.2045L26.3906 31.5068C26.3906 34.5876 27.3209 36.4926 27.786 37.06L29.3487 36.5577L30.2137 37.339L32.5578 37.646C32.6973 37.3856 33.0155 36.6414 33.1717 35.7484C33.328 34.8555 32.6787 33.4044 32.3346 32.7905C31.5532 33.1253 29.8119 33.756 29.0975 33.5997C28.3831 33.4434 28.0371 32.6045 27.9534 32.2045Z" fill="#D9D9D9" style="mix-blend-mode:darken"/>
<path d="M45.9577 23.2969H44.8981C45.322 24.0697 45.7811 25.9875 45.9577 26.8497L46.8615 27.9717V29.6234L46.2694 30.3714V31.2128H46.8615L47.516 30.6207L48.2328 30.8388C48.4509 30.3714 48.8935 29.399 48.9184 29.2494C48.9496 29.0625 49.1054 26.9121 48.6691 26.1641C48.32 25.5658 46.7161 24.0033 45.9577 23.2969Z" fill="#D9D9D9" style="mix-blend-mode:darken"/>
<path d="M41.5876 31.2128L39.4625 27.5862V30.8388L40.7464 31.9692L41.5876 33.1645V35.7484L42.3402 37.06L41.8532 38.7871L42.9157 40.2038L42.6058 42.7274L43.3585 43.3915L43.934 40.9565L44.4653 40.2038C43.9488 39.6578 42.9157 38.5126 42.9157 38.3001C42.9157 38.0876 43.2109 37.05 43.3585 36.5577L44.8981 35.4224L44.4653 35.1568L42.6058 34.9354L43.1814 34.3156V32.7905L44.4653 32.4562L42.9157 31.2128H41.5876Z" fill="#D9D9D9" style="mix-blend-mode:darken"/>
<path d="M6.07301 2.55859L10.9664 8.10101L8.74701 10.4908L2.31641 7.61765L6.07301 2.55859Z" fill="#FFE254"/>
<path d="M55.9114 54.7598L51.018 49.2174L53.2374 46.8275L59.668 49.7007L55.9114 54.7598Z" fill="#FFE254"/>
<path d="M55.9114 2.55859L51.018 8.10101L53.2374 10.4908L59.668 7.61765L55.9114 2.55859Z" fill="#FFE254"/>
<path d="M30.4336 1.17521L30.8815 3.00191L32.4991 3.00191L32.8064 1.17511L30.4336 1.17521Z" fill="#F0D750"/>
<path d="M61.7313 33.8592L62.0192 33.4834L62.6419 33.3808L63.0823 33.3532L63.4797 34.5167L62.1683 34.8746L61.7313 33.8592Z" fill="#D9D9D9" stroke="black" stroke-linejoin="round"/>
<path fill-rule="evenodd" clip-rule="evenodd" d="M60.881 35.3067L65.4383 34.7547L67.2537 40.8027L62.8096 41.5687L60.881 35.3067ZM61.8795 35.492L64.1164 35.1798L64.2798 35.4013L64.1851 35.5752L62.02 35.8641C61.8865 35.804 61.6716 35.6454 61.8795 35.492Z" fill="#B15757"/>
<path d="M65.4383 34.7547L65.9172 34.6109C65.8473 34.3779 65.6197 34.229 65.3782 34.2583L65.4383 34.7547ZM60.881 35.3067L60.8209 34.8103C60.6738 34.8281 60.5422 34.9102 60.4616 35.0344C60.3809 35.1587 60.3595 35.3123 60.4031 35.4538L60.881 35.3067ZM67.2537 40.8027L67.3386 41.2955C67.4796 41.2712 67.6035 41.1876 67.6788 41.0659C67.7541 40.9442 67.7737 40.7961 67.7325 40.659L67.2537 40.8027ZM62.8096 41.5687L62.3318 41.7159C62.4058 41.9562 62.6467 42.1041 62.8945 42.0614L62.8096 41.5687ZM64.1164 35.1798L64.5188 34.883C64.4099 34.7354 64.229 34.6593 64.0473 34.6846L64.1164 35.1798ZM61.8795 35.492L61.8104 34.9969C61.728 35.0084 61.6497 35.0403 61.5827 35.0897L61.8795 35.492ZM64.2798 35.4013L64.7189 35.6404C64.8118 35.4698 64.7975 35.2608 64.6821 35.1045L64.2798 35.4013ZM64.1851 35.5752L64.2512 36.0708C64.4093 36.0497 64.5479 35.9544 64.6242 35.8143L64.1851 35.5752ZM62.02 35.8641L61.8147 36.32C61.8997 36.3583 61.9937 36.372 62.0862 36.3597L62.02 35.8641ZM65.3782 34.2583L60.8209 34.8103L60.9411 35.803L65.4984 35.251L65.3782 34.2583ZM67.7325 40.659L65.9172 34.6109L64.9594 34.8984L66.7748 40.9465L67.7325 40.659ZM62.8945 42.0614L67.3386 41.2955L67.1687 40.31L62.7247 41.076L62.8945 42.0614ZM60.4031 35.4538L62.3318 41.7159L63.2875 41.4215L61.3588 35.1595L60.4031 35.4538ZM64.0473 34.6846L61.8104 34.9969L61.9486 35.9872L64.1855 35.675L64.0473 34.6846ZM64.6821 35.1045L64.5188 34.883L63.714 35.4766L63.8774 35.6981L64.6821 35.1045ZM64.6242 35.8143L64.7189 35.6404L63.8406 35.1622L63.746 35.3361L64.6242 35.8143ZM62.0862 36.3597L64.2512 36.0708L64.1189 35.0796L61.9539 35.3685L62.0862 36.3597ZM61.5827 35.0897C61.4683 35.174 61.3415 35.3117 61.3035 35.5144C61.2651 35.7196 61.337 35.8878 61.4063 35.9913C61.5286 36.1738 61.7181 36.2765 61.8147 36.32L62.2253 35.4082C62.2186 35.4052 62.21 35.4002 62.2049 35.3966C62.1965 35.3905 62.2144 35.4008 62.2371 35.4347C62.2621 35.472 62.3109 35.568 62.2864 35.6985C62.2625 35.8264 62.1867 35.8868 62.1763 35.8944L61.5827 35.0897Z" fill="black"/>
<path d="M65.8924 36.336L61.3738 36.8598L62.8291 41.5533L67.2275 40.8061L65.8924 36.336Z" fill="#D9D9D9" stroke="black" stroke-linejoin="round"/>
<path d="M62.3025 34.5537L62.7831 35.5074L63.3674 35.4331L62.9923 34.4612L62.747 34.3301L62.3025 34.5537Z" fill="#D9D9D9" stroke="black" stroke-linejoin="round"/>
<path d="M61.8199 32.9467L62.1119 33.5924C62.3307 33.6667 62.7718 33.7451 62.7859 33.4641C62.105 32.5827 62.0147 30.251 61.8516 28.9876C60.6344 26.7369 58.395 27.1915 57.4275 27.7001C57.4527 27.8455 57.3295 28.5595 56.635 30.2525C55.7667 32.3688 55.6396 31.571 54.8114 31.782C54.1488 31.9509 53.9269 31.1943 53.8987 30.7948L53.9098 31.8936L54.186 32.6432L55.7052 32.6602L57.0756 30.8499C57.6623 29.8945 58.9242 27.9368 59.278 27.7496C59.6319 27.5623 60.2657 27.8103 60.5384 27.9576L60.869 28.6976L61.8199 32.9467Z" fill="#CB933F" stroke="black" stroke-linejoin="round"/>
<path d="M55.6955 27.5714L54.0489 30.4674L54.1273 28.8032L55.6442 26.1383L57.9968 24.4031C58.3278 24.4041 59.0763 24.5195 59.4225 24.9726C59.7688 25.4257 60.0399 26.8338 60.1321 27.4813L59.4152 26.5092L57.7319 24.8987L55.6955 27.5714Z" fill="#CB933F"/>
<path d="M60.2718 31.1501L60.169 27.8407L60.576 27.872L60.7099 30.443L61.4963 31.1543L61.67 32.2651L60.2718 31.1501Z" fill="#CB933F"/>
<path d="M55.6955 27.5714L54.0489 30.4674L54.1273 28.8032L55.6442 26.1383L57.9968 24.4031C58.3278 24.4041 59.0763 24.5195 59.4225 24.9726C59.7688 25.4257 60.0399 26.8338 60.1321 27.4813L59.4152 26.5092L57.7319 24.8987L55.6955 27.5714Z" stroke="black" stroke-linejoin="round"/>
<path d="M60.2718 31.1501L60.169 27.8407L60.576 27.872L60.7099 30.443L61.4963 31.1543L61.67 32.2651L60.2718 31.1501Z" stroke="black" stroke-linejoin="round"/>
<path d="M48.0339 8.31544C44.2907 13.8731 38.5222 14.2014 36.1059 13.6709C36.0699 13.5229 36.4839 11.6675 36.6954 10.7582L35.8841 7.42724L36.3589 6.25793C36.5516 5.90885 37.2267 5.0519 38.3854 4.4167C40.1562 3.39717 42.0687 3.27454 42.8036 3.34066L45.6513 6.98437C46.5311 7.27651 48.2393 7.95173 48.0339 8.31544Z" fill="#272727" stroke="black"/>
<path opacity="0.2" d="M38.8713 7.19002L40.0796 10.7809C40.3354 11.4572 40.8247 12.9426 40.7356 13.4742C39.9438 13.8128 37.8056 13.8236 36.8355 13.7867L36.9796 11.2626C36.74 10.2789 36.1759 8.16205 35.8362 7.56488C37.2378 4.09718 41.4204 3.19993 42.521 3.35683C42.2879 4.99195 39.9907 6.59359 38.8713 7.19002Z" fill="#D9D9D9"/>
<path d="M36.0145 7.60951C36.2539 7.66944 36.7897 7.77545 37.0176 7.72002M42.5171 3.62981C42.34 4.55436 41.0859 6.64392 37.4867 7.60578M43.0134 3.8461C42.7013 4.96924 41.1467 7.38887 37.4252 8.08225C36.9561 8.1965 36.2679 8.11564 35.9825 8.06092M36.8584 7.06668C37.2855 6.99817 38.258 6.76486 38.7321 6.37962C39.3248 5.89808 39.9642 5.973 39.7737 6.35668M36.8509 11.044C38.5578 11.421 42.6561 11.1671 45.3941 7.13531M36.6343 11.6115C38.3833 12.1616 42.6754 12.1208 45.8516 7.55632M36.4338 12.246C38.3872 12.8824 43.1658 12.8958 46.6527 7.85815M36.3861 13.216C38.9308 13.5842 44.6888 13.0716 47.3624 8.07576" stroke="black" stroke-linejoin="round"/>
<path d="M41.9916 9.30049L42.5236 8.91033L42.4064 9.65263L42.8813 9.25763M42.8856 8.56136L43.1616 9.10867M44.1116 8.29428L43.7411 7.86868L44.5373 7.79911L44.133 7.41373M43.2012 8.37889L43.4295 8.83229L43.8078 8.44849L43.4938 8.12815L43.2012 8.37889Z" stroke="#878484" stroke-linejoin="round"/>
<path d="M64.0283 37.2066C64.5438 37.0965 65.1568 37.474 65.3105 38.1929C65.4642 38.912 65.0591 39.5079 64.5435 39.618C64.0279 39.7281 63.4147 39.3498 63.2611 38.6307C63.1076 37.9118 63.5128 37.3168 64.0283 37.2066Z" fill="white" stroke="black"/>
<path d="M63.3145 40.2562L66.0651 39.7617M63.3145 40.8744L66.0651 40.4417" stroke="black"/>
<path d="M2.70365 36.0253L3.31143 35.585L4.39727 35.3883L7.15355 35.5208L6.70528 34.9896L7.27744 34.3327L8.94989 33.7129L10.1973 35.6832L12.9567 35.971C13.2937 36.0836 13.9711 36.3866 13.9851 36.698C13.9974 36.9721 13.775 37.5118 13.6218 37.8338C13.6037 37.878 13.5838 37.9179 13.5637 37.9521C13.5813 37.9175 13.6009 37.8776 13.6218 37.8338C13.7455 37.5311 13.7847 37.0233 13.2066 36.7332C12.5439 36.4006 9.82605 36.2709 8.54997 36.2476L4.60242 35.8359L2.70365 36.0253Z" fill="#6023C3"/>
<path d="M12.1048 35.2235L10.6756 34.1619L11.77 34.3327L12.2447 34.0528L12.6239 34.8902L13.5541 35.2584C13.686 35.4788 13.9159 35.9122 13.7796 35.8825C13.5768 35.5979 12.5786 35.3246 12.1048 35.2235Z" fill="#6023C3"/>
<path d="M2.70365 36.0253L3.31143 35.585L4.39727 35.3883L7.15355 35.5208L6.70528 34.9896L7.27744 34.3327L8.94989 33.7129L10.1973 35.6832L12.9567 35.971C13.2937 36.0836 13.9711 36.3866 13.9851 36.698C13.9974 36.9721 13.775 37.5118 13.6218 37.8338C13.6037 37.878 13.5838 37.9179 13.5637 37.9521C13.5813 37.9175 13.6009 37.8776 13.6218 37.8338C13.7455 37.5311 13.7847 37.0233 13.2066 36.7332C12.5439 36.4006 9.82605 36.2709 8.54997 36.2476L4.60242 35.8359L2.70365 36.0253Z" stroke="black"/>
<path d="M12.1048 35.2235L10.6756 34.1619L11.77 34.3327L12.2447 34.0528L12.6239 34.8902L13.5541 35.2584C13.686 35.4788 13.9159 35.9122 13.7796 35.8825C13.5768 35.5979 12.5786 35.3246 12.1048 35.2235Z" stroke="black"/>
<path d="M63.9965 37.4509C64.0153 37.5481 64.16 38.0639 64.23 38.3096C64.2589 38.3377 64.2988 38.3103 64.3151 38.2932C64.2807 37.9565 64.2053 37.2608 64.178 37.1719C64.1438 37.0608 64.0017 37.1303 63.9432 37.1753C63.8846 37.2203 63.973 37.3293 63.9965 37.4509Z" fill="black"/>
<path d="M64.2572 37.1985C64.2818 37.4534 64.3326 37.971 64.3386 38.0021C64.4837 37.7784 64.747 37.7407 64.8605 37.7498C64.7914 37.575 64.622 37.2156 64.4976 37.1772C64.3732 37.1388 64.2855 37.1754 64.2572 37.1985Z" fill="black"/>
<path d="M63.549 38.0465C63.8128 37.8593 64.0239 38.0252 64.0428 38.0316C64.0345 37.9888 63.9213 37.5257 63.8658 37.2995C63.8479 37.2806 63.7936 37.2547 63.7202 37.3024C63.5089 37.417 63.4515 37.9595 63.549 38.0465Z" fill="black"/>
<path d="M63.7311 38.0438C63.9363 37.999 64.0834 38.1278 64.1314 38.1979L64.1678 38.2787C64.1362 38.2484 64.0326 38.1921 63.8712 38.2094C63.6695 38.2311 63.5433 38.4144 63.4741 38.557C63.4048 38.6995 63.3426 39.2381 63.3316 39.3222C63.3227 39.3895 63.3005 39.3456 63.2905 39.3153C63.2923 39.2561 63.2998 39.0914 63.3155 38.9056C63.3622 38.4023 63.4746 38.0997 63.7311 38.0438Z" fill="black"/>
<path d="M64.7923 37.8225C64.5012 37.8277 64.3714 38.0476 64.3429 38.1569L64.3378 38.2458C64.4389 38.131 64.6897 37.9239 64.8839 38.0134C65.1266 38.1254 65.4967 38.8312 65.5509 38.9449C65.5944 39.0358 65.5992 38.9504 65.5962 38.8964C65.4495 38.5363 65.0834 37.8174 64.7923 37.8225Z" fill="black"/>
<path d="M63.8068 38.3323C63.9327 38.276 64.0484 38.3117 64.0905 38.3366C64.1181 38.3493 64.1066 38.3654 64.0973 38.3719C64.0673 38.3655 63.9856 38.3524 63.8987 38.3513C63.7901 38.3498 63.7197 38.4434 63.6999 38.4984C63.6842 38.5423 63.7335 38.6197 63.7602 38.6529C63.7444 38.6565 63.7048 38.6508 63.6732 38.5994C63.6336 38.5352 63.6495 38.4027 63.8068 38.3323Z" fill="black"/>
<path d="M64.7556 38.0926C64.5409 38.0781 64.4314 38.2707 64.4174 38.2734C64.3974 38.2952 64.4148 38.312 64.426 38.3176C64.4331 38.3042 64.4687 38.2593 64.5548 38.1875C64.6624 38.0978 64.8271 38.1348 64.8647 38.1965C64.9022 38.2582 64.9221 38.3448 64.9015 38.3868C64.8809 38.4288 64.9555 38.3836 64.9761 38.3473C64.9967 38.3109 64.9703 38.1071 64.7556 38.0926Z" fill="black"/>
<path d="M64.8433 38.2369C64.8019 38.1742 64.687 38.1782 64.6678 38.1819C64.6599 38.1944 64.654 38.2194 64.6933 38.22C64.7423 38.2207 64.756 38.2445 64.7932 38.2868C64.8303 38.3291 64.8178 38.3487 64.8422 38.3439C64.8667 38.3392 64.8846 38.2995 64.8433 38.2369Z" fill="black"/>
<path d="M63.7386 38.5412C63.7431 38.4389 63.8183 38.399 63.8553 38.3918C63.8718 38.3887 63.8986 38.3888 63.8743 38.4151C63.8439 38.4479 63.8148 38.4761 63.8144 38.5265C63.814 38.577 63.733 38.6691 63.7386 38.5412Z" fill="black"/>
<path d="M64.1548 38.4607C64.1376 38.4185 64.0474 38.4108 64.0317 38.4139C64.0354 38.4331 64.0719 38.5564 64.0124 38.586C63.953 38.6156 63.9415 38.5726 63.9112 38.6056C63.8808 38.6387 63.9391 38.6654 64.0543 38.6341C64.1696 38.6027 64.172 38.5029 64.1548 38.4607Z" fill="black"/>
<path d="M64.4459 38.4206C64.4412 38.34 64.5243 38.3388 64.547 38.3345C64.5257 38.3553 64.4917 38.4005 64.5262 38.4142C64.5607 38.4278 64.6107 38.3893 64.6314 38.3684C64.6108 38.396 64.5702 38.4542 64.5726 38.4668C64.5756 38.4825 64.6408 38.4825 64.6619 38.4603C64.683 38.4382 64.7346 38.4336 64.7403 38.4632C64.7461 38.4928 64.6343 38.5327 64.6008 38.5283C64.5673 38.5239 64.4507 38.5012 64.4459 38.4206Z" fill="black"/>
<path d="M64.2601 38.3497C64.3001 38.3221 64.3311 38.3762 64.3427 38.374L64.2146 38.4137C64.2164 38.4016 64.2282 38.3718 64.2601 38.3497Z" fill="black"/>
<path d="M64.2984 38.4166C64.2579 38.4244 64.239 38.4558 64.2346 38.4706L64.3568 38.4469C64.3542 38.4335 64.3389 38.4087 64.2984 38.4166Z" fill="black"/>
<path d="M64.31 38.4762C64.2695 38.484 64.2505 38.5153 64.2461 38.5299C64.2738 38.5159 64.3328 38.5168 64.3588 38.519C64.3594 38.5015 64.3505 38.4683 64.31 38.4762Z" fill="black"/>
<path d="M64.3231 38.5439C64.284 38.5515 64.2499 38.5962 64.2522 38.6084C64.2815 38.5883 64.3517 38.5832 64.3832 38.5831C64.3762 38.5675 64.3543 38.5379 64.3231 38.5439Z" fill="black"/>
<path d="M64.2937 38.7761C64.2883 38.7482 64.3213 38.7188 64.3385 38.7076C64.3606 38.7033 64.41 38.7014 64.431 38.7278C64.452 38.7542 64.4165 38.7928 64.3961 38.8088C64.3642 38.8096 64.2992 38.804 64.2937 38.7761Z" fill="black"/>
<path d="M64.8605 38.5505C64.7628 38.5513 64.6416 38.6363 64.6353 38.6502C64.8075 38.5951 64.9342 38.6413 65.0203 38.5757C65.1065 38.51 65.0774 38.3799 65.0904 38.3252C65.1033 38.2704 65.0561 38.2699 65.0622 38.3014C65.0743 38.4948 64.9581 38.5497 64.8605 38.5505Z" fill="black"/>
<path d="M63.7516 38.7651L63.9706 38.7227C63.983 38.7288 64.0016 38.7428 63.976 38.7507C63.944 38.7605 63.7781 38.8542 63.7174 38.8278C63.6566 38.8015 63.5777 38.7263 63.5377 38.6507C63.4977 38.5751 63.5201 38.5129 63.549 38.5779C63.5779 38.643 63.675 38.7799 63.7516 38.7651Z" fill="black"/>
<path d="M64.8804 39.187C64.8438 39.1468 64.5998 38.9298 64.4824 38.8263C64.4644 38.7994 64.484 38.7605 64.5146 38.7753C64.5451 38.7902 64.9202 39.165 64.9714 39.2078C65.0225 39.2506 64.9262 39.2373 64.8804 39.187Z" fill="black"/>
<path d="M64.0425 39.3604C64.0629 39.3005 64.2514 38.871 64.2616 38.8578C64.2765 38.8277 64.2475 38.7851 64.2265 38.8311C64.2055 38.8771 64.0103 39.3011 63.9781 39.3728C63.946 39.4446 64.0221 39.4202 64.0425 39.3604Z" fill="black"/>
<path d="M64.3156 39.3347L64.2482 38.9866C64.2394 38.9411 64.2974 38.9052 64.3276 38.893C64.3463 39.0092 64.3885 39.2541 64.4071 39.3042C64.4258 39.3543 64.487 39.3409 64.5153 39.328L64.442 38.9491C64.427 38.8715 64.471 38.878 64.4949 38.891L64.5662 39.2591C64.5817 39.3391 64.6583 39.2892 64.652 39.2568C64.647 39.2309 64.6253 39.0857 64.615 39.0163C64.6322 39.0363 64.6678 39.076 64.6728 39.0751C64.6789 39.0739 64.7299 39.1954 64.7252 39.2554C64.7205 39.3155 64.7743 39.2779 64.7838 39.2441C64.7913 39.2171 64.7896 39.1876 64.7878 39.1762L64.9082 39.268L64.8214 39.2847L64.6924 39.3417L64.5802 39.3314C64.5505 39.343 64.4893 39.3666 64.4825 39.3679C64.4757 39.3692 64.4155 39.3585 64.3862 39.353C64.3799 39.3702 64.3617 39.4057 64.3386 39.4101C64.3155 39.4146 64.2508 39.4058 64.2213 39.4009C64.1996 39.4152 64.1537 39.4446 64.1441 39.4478C64.1345 39.4509 64.0912 39.4372 64.0707 39.43L64.0815 39.38L64.1031 39.4078L64.169 39.395L64.1518 39.2482L64.2043 39.123L64.2478 39.3478C64.2573 39.3971 64.3221 39.3686 64.3156 39.3347Z" fill="black"/>
<path d="M64.6326 39.3852C64.7292 39.3678 64.839 39.3245 64.8818 39.305C64.9092 39.2932 64.9309 39.3275 64.9216 39.3373C64.9123 39.347 64.7997 39.3928 64.7366 39.405C64.6735 39.4172 64.2419 39.5071 64.1668 39.5153C64.0916 39.5234 64.0732 39.519 64.0699 39.5021C64.0667 39.4851 64.1023 39.4878 64.1593 39.4768C64.2163 39.4658 64.5118 39.407 64.6326 39.3852Z" fill="black"/>
<path d="M64.9403 39.2937C64.9375 39.2789 64.9526 39.2636 64.9606 39.2578C64.9868 39.2528 65.0203 39.2638 65.0336 39.2884C65.0469 39.313 65.0094 39.3203 64.9801 39.3259C64.9508 39.3316 64.9439 39.3122 64.9403 39.2937Z" fill="black"/>
<path d="M63.9223 39.4907C63.9164 39.4599 63.9595 39.4515 63.9764 39.4483C63.9916 39.4449 64.0088 39.442 64.0301 39.4698C64.0515 39.4977 64.0079 39.5269 63.9922 39.5299C63.9765 39.5329 63.9283 39.5215 63.9223 39.4907Z" fill="black"/>
<path d="M64.1885 38.7857L64.0323 39.1754L63.9179 39.311L63.7478 38.9109L63.9827 38.7856L64.1885 38.7857Z" fill="black"/>
<path d="M64.5803 38.7626C64.7018 38.8653 64.9452 39.0726 64.9466 39.08L64.9845 38.7291L64.9113 38.6566L64.7558 38.6536L64.6013 38.7058L64.5803 38.7626Z" fill="black"/>
</g>
<defs>
<filter id="filter0_i_1729_1272" x="0.910156" y="1.17578" width="66.8438" height="69.584" filterUnits="userSpaceOnUse" color-interpolation-filters="sRGB">
<feFlood flood-opacity="0" result="BackgroundImageFix"/>
<feBlend mode="normal" in="SourceGraphic" in2="BackgroundImageFix" result="shape"/>
<feColorMatrix in="SourceAlpha" type="matrix" values="0 0 0 0 0 0 0 0 0 0 0 0 0 0 0 0 0 0 127 0" result="hardAlpha"/>
<feMorphology radius="8" operator="dilate" in="SourceAlpha" result="effect1_innerShadow_1729_1272"/>
<feOffset dy="16"/>
<feGaussianBlur stdDeviation="16"/>
<feComposite in2="hardAlpha" operator="arithmetic" k2="-1" k3="1"/>
<feColorMatrix type="matrix" values="0 0 0 0 0.0470588 0 0 0 0 0.0470588 0 0 0 0 0.0509804 0 0 0 0.4 0"/>
<feBlend mode="normal" in2="shape" result="effect1_innerShadow_1729_1272"/>
</filter>
<filter id="filter1_d_1729_1272" x="24.0469" y="15.1211" width="14.1309" height="30.1191" filterUnits="userSpaceOnUse" color-interpolation-filters="sRGB">
<feFlood flood-opacity="0" result="BackgroundImageFix"/>
<feColorMatrix in="SourceAlpha" type="matrix" values="0 0 0 0 0 0 0 0 0 0 0 0 0 0 0 0 0 0 127 0" result="hardAlpha"/>
<feOffset dx="2" dy="2"/>
<feComposite in2="hardAlpha" operator="out"/>
<feColorMatrix type="matrix" values="0 0 0 0 0 0 0 0 0 0 0 0 0 0 0 0 0 0 0.25 0"/>
<feBlend mode="normal" in2="BackgroundImageFix" result="effect1_dropShadow_1729_1272"/>
<feBlend mode="normal" in="SourceGraphic" in2="effect1_dropShadow_1729_1272" result="shape"/>
</filter>
<linearGradient id="paint0_linear_1729_1272" x1="54.4076" y1="18.9463" x2="54.0975" y2="9.04632" gradientUnits="userSpaceOnUse">
<stop stop-color="#E67B53"/>
<stop offset="1" stop-color="#FECB11"/>
</linearGradient>
<linearGradient id="paint1_linear_1729_1272" x1="41.9451" y1="46.4584" x2="52.6362" y2="47.273" gradientUnits="userSpaceOnUse">
<stop stop-color="#E67B53"/>
<stop offset="1" stop-color="#FECB11"/>
</linearGradient>
</defs>
</svg>
