<svg width="72" height="72" viewBox="0 0 72 72" fill="none" xmlns="http://www.w3.org/2000/svg">
<path d="M35.8221 12.6956C48.338 12.6956 58.4841 22.8417 58.4841 35.3576C58.4841 47.8734 48.338 58.0195 35.8221 58.0195C23.3063 58.0195 13.1602 47.8734 13.1602 35.3576C13.1602 22.8417 23.3063 12.6956 35.8221 12.6956ZM35.8221 54.7202C46.5158 54.7202 55.1848 46.0512 55.1848 35.3576C55.1848 24.6639 46.5158 15.9949 35.8221 15.9949C25.1284 15.9949 16.4595 24.6639 16.4595 35.3576C16.4595 46.0512 25.1284 54.7202 35.8221 54.7202Z" fill="url(#paint0_linear_1729_1120)"/>
<path d="M43.6484 20.9155C43.8517 21.7454 44.6545 23.1783 46.2396 22.2705C48.2211 21.1357 49.4574 20.2381 50.5752 20.6784V21.29V20.7167M50.3405 20L50.5752 20.7167M50.5752 20.7167L50.9317 20.1164M50.5752 20.7167H51.2005M50.5752 20.7167L51.0303 21.1377M50.5752 20.7167L49.9553 20.9155" stroke="#615C5C" stroke-linejoin="bevel"/>
<path d="M41.7342 61.1873C37.5359 62.1514 33.1655 62.0745 29.0038 60.9632C24.842 59.8519 21.0151 57.7399 17.8563 54.8112C14.6975 51.8825 12.3026 48.2259 10.8803 44.16C9.458 40.094 9.05136 35.7419 9.69582 31.4828L11.2087 31.7117C10.6016 35.7242 10.9847 39.8242 12.3246 43.6547C13.6646 47.4852 15.9207 50.9301 18.8966 53.6892C21.8725 56.4483 25.4778 58.4379 29.3985 59.4849C33.3193 60.5318 37.4365 60.6043 41.3917 59.696L41.7342 61.1873Z" fill="url(#paint1_linear_1729_1120)"/>
<path d="M10.2154 28.9099C10.5193 27.7173 10.9062 26.5473 11.3733 25.4087L12.7889 25.9893C12.349 27.0621 11.9845 28.1642 11.6981 29.2878L10.2154 28.9099Z" fill="url(#paint2_linear_1729_1120)"/>
<path d="M27.6205 18.7305L31.9108 22.3964L34.9694 23.3486L43.532 20.8952L37.1035 15.6222L27.6205 18.7305Z" fill="#2F2F2F" stroke="black"/>
<path d="M31.9799 20.4221L32.113 24.8152C33.7415 22.9577 37.1629 23.3061 39.0926 24.6038C39.0889 24.0286 39.0551 22.2789 38.9496 19.8822C35.3933 18.6092 32.8213 19.7117 31.9799 20.4221Z" fill="#615C5C" stroke="black"/>
<path d="M32.0961 24.8621C32.8125 25.608 35.2222 26.6318 39.1298 24.7597C38.9491 24.2677 34.7597 22.184 32.0961 24.8621Z" fill="#2F2F2F" stroke="black"/>
<rect x="30.9287" y="29.8313" width="13.9688" height="8.34766" rx="4.17383" transform="rotate(-34.0731 30.9287 29.8313)" fill="#2F2F2F" stroke="black"/>
<rect x="31.7138" y="30.0481" width="12.9333" height="6.67981" rx="3.33991" transform="rotate(-34.0731 31.7138 30.0481)" fill="white" stroke="black"/>
<path d="M32.2541 30.2112L32.9203 31.1961L33.4349 30.8481L32.888 30.0395L33.6083 29.5523L33.2603 29.0378L32.2313 29.7338L32.2541 30.2112Z" fill="#D9D9D9"/>
<path d="M45.6053 27.9079L44.9391 26.923L44.4245 27.2711L44.9714 28.0796L44.251 28.5668L44.5991 29.0814L45.6281 28.3853L45.6053 27.9079Z" fill="#D9D9D9"/>
<path d="M41.9451 23.2268L40.9601 23.8929L41.3082 24.4075L42.1167 23.8607L42.6039 24.581L43.1185 24.233L42.4225 23.2039L41.9451 23.2268Z" fill="#D9D9D9"/>
<path d="M35.9124 34.8924L36.8973 34.2262L36.5492 33.7116L35.7407 34.2585L35.2535 33.5381L34.739 33.8862L35.435 34.9152L35.9124 34.8924Z" fill="#D9D9D9"/>
<path d="M51.2847 29.6996L50.0511 29.3555C48.3298 29.6768 48.3586 33.1039 48.5882 34.7772L51.715 37.3591L55.2722 39.3098L57.0795 38.4492V37.0148L55.0714 33.7732L51.2847 29.6996Z" fill="#D9D9D9" stroke="black"/>
<path d="M44.3761 18.4412C44.7262 19.0189 45.8684 21.9206 46.3958 23.2993V25.3008V25.7532L47.7986 28.2504L48.5027 29.0788V26.8689V24.2947L48.7513 23.632L46.2118 17.9266L46.7885 17.2436L46.5772 16.036L46.6861 15.5606C46.7548 15.596 46.8283 15.6254 46.8774 15.6423L47.6002 15.2198L48.0338 14.2413L47.1888 13.6742L46.7885 14.2413C46.7366 14.2413 46.6217 14.2079 46.5772 14.0745C46.5149 13.772 46.1287 13.6816 45.9434 13.6742L45.5876 14.2413L45.2874 14.1523C45.3726 13.7706 45.6032 12.9203 45.8433 12.5734C46.1436 12.1397 45.5098 11.8617 45.1317 11.9729C44.8293 12.0619 44.4497 13.1442 44.2977 13.6742C44.1606 13.5852 43.8863 13.4029 43.8863 13.3851C43.6862 12.5845 44.3533 11.4615 44.4201 11.0723C44.4868 10.6831 43.3748 10.4719 43.2637 10.6831C42.8189 11.4393 42.7299 14.1633 42.8189 15.064C42.3074 14.7971 39.9389 14.3079 39.6943 14.7082C39.4986 15.0285 39.9268 15.6215 40.1653 15.878L41.1607 15.7969L42.3066 16.503L43.1747 17.9266C43.4293 17.8574 44.026 17.8635 44.3761 18.4412Z" fill="url(#paint3_linear_1729_1120)"/>
<path d="M46.5105 15.4199C46.4749 15.331 46.8811 14.6342 47.0887 14.2969M46.5105 15.4199C46.4367 15.4701 46.2263 15.5686 45.9751 15.5606C45.7239 15.5527 45.4385 15.3845 45.3272 15.3015L45.4577 14.9877M46.5105 15.4199C46.5298 15.4682 46.6046 15.5187 46.6861 15.5606M45.711 14.3794L45.4577 14.9877M45.4577 14.9877L43.4559 14.2413M46.6861 15.5606C46.7548 15.596 46.8283 15.6254 46.8774 15.6423L47.6002 15.2198L48.0338 14.2413L47.1888 13.6742L46.7885 14.2413C46.7366 14.2413 46.6217 14.2079 46.5772 14.0745C46.5149 13.772 46.1287 13.6816 45.9434 13.6742L45.5876 14.2413L45.2874 14.1523C45.3726 13.7706 45.6032 12.9203 45.8433 12.5734C46.1436 12.1397 45.5098 11.8617 45.1317 11.9729C44.8293 12.0619 44.4497 13.1442 44.2977 13.6742C44.1606 13.5852 43.8863 13.4029 43.8863 13.3851C43.6862 12.5845 44.3533 11.4615 44.4201 11.0723C44.4868 10.6831 43.3748 10.4719 43.2637 10.6831C42.8189 11.4393 42.7299 14.1633 42.8189 15.064C42.3074 14.7971 39.9389 14.3079 39.6943 14.7082C39.4986 15.0285 39.9268 15.6215 40.1653 15.878L41.1607 15.7969L42.3066 16.503L43.1747 17.9266C43.4293 17.8574 44.026 17.8635 44.3761 18.4412C44.7262 19.0189 45.8684 21.9206 46.3958 23.2993V25.3008V25.7532L47.7986 28.2504L48.5027 29.0788V26.8689V24.2947L48.7513 23.632L46.2118 17.9266L46.7885 17.2436L46.5772 16.036L46.6861 15.5606ZM44.2357 15.6423C44.5467 15.8743 45.0752 16.5486 44.7021 17.3898M45.711 16.036C45.5806 16.1091 45.2946 16.3688 45.1937 16.8225C45.0929 17.2763 45.3277 17.4318 45.4577 17.4528" stroke="black"/>
<path d="M41.3984 35.4166L43.5538 33.2832L44.0597 33.9209V34.4488L44.6755 35.0646L45.0934 35.3066L45.5113 36.8242L46.1272 36.6042V35.9444L47.5788 36.3183L50.9879 36.0544L51.8896 37.0441L51.6477 37.572C52.8867 38.3711 55.4483 40.0705 55.7826 40.4752C55.4307 40.616 51.3104 42.2787 49.2943 43.0925L47.3588 44.0822L45.7313 43.7523L45.0934 42.6086L43.5538 41.7509L42.4541 41.0251L42.0802 39.3535L41.3984 36.4943L41.8823 35.9444L41.3984 35.4166Z" fill="#3169F8" stroke="black"/>
<path d="M34.6765 66.9501C34.6046 66.7367 34.1795 66.7953 33.976 66.8512C33.8381 66.9019 33.565 67.0637 33.5763 67.3058C33.5903 67.6084 33.8045 67.2219 34.1606 67.0668C34.4454 66.9427 34.6182 67.5114 34.669 67.8112C34.9104 67.8952 35.4014 68.0457 35.4339 67.9755C35.4745 67.8877 35.4275 67.4514 35.7605 67.0133C36.0935 66.5751 36.364 67.0911 36.296 67.6991C36.2279 68.3072 36.7802 68.5982 37.0648 68.6232C36.9708 69.6457 38.6315 70.6388 39.8356 69.9048C41.0396 69.1708 41.1649 67.4404 41.2678 66.5523C41.3706 65.6642 41.6236 65.6036 42.5636 65.6712C43.5035 65.7388 43.385 66.4301 43.5025 66.0226C43.6199 65.615 42.4469 65.1553 41.8893 64.8501C41.4432 64.6058 40.6696 65.1228 40.3385 65.4118L40.0613 66.5745C39.7642 66.9779 39.1079 67.7088 38.8601 67.4046C38.6123 67.1005 37.7929 66.6821 37.4141 66.5108C37.3983 66.8352 37.3252 67.5072 37.1587 67.6007C36.9506 67.7177 37.2108 67.2577 37.0142 67.1194C36.8569 67.0087 36.6852 67.2673 36.6191 67.4104C36.6557 67.2457 36.7133 66.8737 36.6504 66.7024C36.5717 66.4884 35.8504 66.3324 35.6754 66.4291C35.5022 66.5248 35.4649 66.7529 35.4327 66.9496L35.4317 66.956C35.3992 67.1542 34.7663 67.2167 34.6765 66.9501Z" fill="#D9D9D9"/>
<path d="M29.0469 61.6939V61.2779L32.3288 61.0469L33.4844 61.2779L38.0914 61.9405V62.6801L33.1763 62.2487L32.9298 61.6939L31.466 61.4013L30.9421 61.8173L29.0469 61.6939Z" fill="#3169F8" stroke="black"/>
<path d="M30.9306 61.781L29.0547 61.7013V61.8964L37.8869 63.2136L38.0283 62.714L33.2023 62.2522L32.9384 61.7013L31.4679 61.3945L30.9306 61.781Z" fill="#6023C3" stroke="black"/>
<path d="M38.1852 37.5059L43.4197 41.6186C43.4197 42.1464 43.0239 44.0086 42.8259 44.8738C42.0195 44.126 40.1647 42.428 39.1969 41.6186C37.9872 40.6068 37.4374 40.7169 37.0855 41.3327C36.7336 41.9486 36.0737 42.6304 35.128 44.192C34.5649 43.6465 33.5737 42.9237 33.1484 42.6304L35.9418 37.9896L36.7555 37.5059H38.1852Z" fill="url(#paint4_linear_1729_1120)" stroke="black"/>
<path d="M24.524 52.4397L26.6917 58.1097L30.7607 65.2802L31.2276 66.214L30.7607 66.781V66.214L27.9591 61.9784L24.8574 55.4748C24.4461 53.8961 23.53 50.2986 23.1565 48.5377C22.6896 46.3364 21.0221 46.4699 19.8547 46.4699C19.044 46.4699 18.8285 47.2902 18.7836 47.5681C18.7663 47.6756 18.7744 47.7019 18.7836 47.5681C18.7849 47.5497 18.7861 47.5283 18.7874 47.5038C18.814 46.9701 19.51 46.1253 19.8547 45.7695H21.6224L22.9565 46.9034C23.1677 47.2036 23.5968 47.8373 23.6234 47.9707C23.6501 48.1041 24.2349 51.0056 24.524 52.4397Z" fill="#FF8504" stroke="black"/>
<path d="M18.5312 49.266L18.7544 47.5287C18.8974 47.197 19.2633 46.5303 19.5834 46.518C22.2613 46.1333 23.1231 47.7338 23.1693 48.2879C23.2062 48.7311 23.4998 50.0574 23.6419 50.6651L24.8992 55.3041L27.4451 60.8835L30.807 66.2465L30.6669 67.0548L29.3538 67.2837C28.3347 66.7742 26.0172 65.4757 24.8992 64.3576C22.8029 62.7156 21.2598 58.5492 20.7503 56.6713L18.5312 49.266Z" fill="#B8834F" stroke="black"/>
<path d="M36.4476 45.5117L42.1193 46.4175L41.285 48.8243L37.2815 48.0378L36.638 51.4456L34.4219 51.1835L34.9461 46.0837L36.4476 45.5117Z" fill="url(#paint5_linear_1729_1120)" stroke="black"/>
<path d="M42.0263 46.7029L42.7412 44.8918L43.48 41.7461L45.0767 42.5326L45.8393 43.7717L47.1976 44.1054L47.6742 43.7717L49.9382 43.9386L51.7016 45.3685L51.5348 46.7029L51.7016 47.3226L51.1535 49.2529L49.2947 50.9687L46.578 50.6112L42.0263 50.9687L41.7669 48.8991L41.3828 48.8478L42.0263 46.7029Z" fill="#6023C3"/>
<path d="M50.6054 49.0146L49.7952 49.7057L47.6742 50.2061L45.8393 49.4435L41.7669 48.8991M41.7669 48.8991L41.3828 48.8478L42.0263 46.7029L42.7412 44.8918L43.48 41.7461L45.0767 42.5326L45.8393 43.7717L47.1976 44.1054L47.6742 43.7717L49.9382 43.9386L51.7016 45.3685L51.5348 46.7029L51.7016 47.3226L51.1535 49.2529L49.2947 50.9687L46.578 50.6112L42.0263 50.9687L41.7669 48.8991Z" stroke="black"/>
<path d="M45.924 49.3196C46.3834 48.9694 47.283 47.9688 47.2065 46.7683C48.1233 46.9647 49.5712 47.3959 50.1806 47.5869L50.3307 49.0058L49.1437 49.9471C49.4166 49.5197 49.9105 48.4655 49.7031 47.6687M50.0442 45.9088L49.1437 45.022M48.7617 44.6126C48.5161 44.6627 47.9431 44.7327 47.6157 44.6126M45.924 43.8077C46.1014 43.9805 46.4724 44.3262 46.5379 44.3262C46.6034 44.3262 46.6743 45.2904 46.7016 45.7725L46.0604 44.1762M44.4505 42.5391C44.1458 44.1852 43.2854 47.7832 42.2812 49.0058M49.7031 43.9033V45.0903L50.3307 45.3222L50.1806 44.0807M51.0538 45.022L50.8082 46.2636L51.313 46.4136L51.5449 45.3222" stroke="black" stroke-linejoin="bevel"/>
<path d="M32.7726 43.0863L30.0781 47.4728L30.3706 49.2273L30.9555 50.3135H31.9581L32.1461 49.2273H32.8772V48.2247L34.8825 44.7154L35.1332 44.9661L35.4256 44.4647L34.2349 43.3994L32.8772 42.4805L32.6265 42.752L32.7726 43.0863Z" fill="#3169F8" stroke="black"/>
<path d="M33.3203 57.1465L33.5144 58.045C34.3885 59.0163 35.3357 58.2231 35.6999 57.705L36.7441 57.4006V51.9986H36.9869V51.4401L34.1216 51.1973V51.4401L34.3401 51.7071L33.8059 56.2237L33.3203 57.1465Z" fill="#3169F8" stroke="black"/>
<path d="M41.1328 37.9455L41.6252 37.3828C41.7581 37.8518 42.0753 39.1039 42.2817 40.3607C41.4188 39.3103 41.1562 38.3129 41.1328 37.9455Z" fill="#D9D9D9" stroke="black"/>
<path d="M44.7739 40.0171L44.3398 42.2326H44.7739L45.8929 40.9993L49.3873 38.8981L45.8929 40.4283L45.0936 41.1591V40.2684L47.6515 36.7969L44.7739 40.0171Z" fill="#204BB9"/>
<path d="M46.1898 41.6159L45.0936 42.9406L48.4281 40.9993L46.1898 41.6159Z" fill="#204BB9"/>
<path d="M51.4885 37.6191L49.57 41.3418L51.0317 40.4283L51.4885 37.6191Z" fill="#204BB9"/>
<path d="M50.1117 32.2314L50.2128 33.6983L48.7524 35.435L46.4359 35.2833L45.8354 34.4616L45.0712 33.3373L44.6992 32.7878L45.2219 31.8773L45.2672 31.3891L45.3737 30.2418L45.6266 29.0794L45.7946 26.8695L46.0086 25.3691L48.0483 28.4552L50.8506 31.1157L50.2887 31.8773L50.1117 32.2314Z" fill="#3169F8"/>
<path d="M50.2128 33.6983L50.1117 32.2314L50.2887 31.8773M50.2128 33.6983L48.7524 35.435L46.4359 35.2833L45.8354 34.4616L45.0712 33.3373L44.6992 32.7878L45.2219 31.8773L45.2672 31.3891L45.3737 30.2418L45.6266 29.0794L45.7946 26.8695M50.2128 33.6983C49.6432 34.1159 48.3914 34.9509 47.9419 34.9509C47.4923 34.9509 45.9714 33.4347 45.2672 32.6765M50.2887 31.8773L50.8506 31.1157L48.0483 28.4552L46.0086 25.3691L45.7946 26.8695M50.2887 31.8773L48.5038 30.579L45.7946 26.8695" stroke="black"/>
<path d="M48.5267 27.023L50.8367 31.0509L48.5267 28.8888V27.023Z" fill="#2F2F2F"/>
<path d="M46.4387 25.0684V25.8088L45.9648 25.5127V25.1721L46.4387 25.0684Z" fill="#2F2F2F"/>
<path d="M48.5267 27.023L50.8367 31.0509L48.5267 28.8888V27.023Z" stroke="black"/>
<path d="M46.4387 25.0684V25.8088L45.9648 25.5127V25.1721L46.4387 25.0684Z" stroke="black"/>
<path d="M23.144 46.9002L23.6239 47.9397L28.161 51.8973L31.4191 53.9761L32.4185 52.0572L32.1986 51.5975L32.9382 50.5181L32.7783 49.9385L31.7989 50.3183L30.9794 50.1783L30.2798 49.3388V48.4793L31.1193 45.5411L30.9794 45.3612C30.8128 45.2479 30.4037 44.9573 30.0999 44.7014C29.4123 44.6215 29.1071 46.7203 29.0405 47.7796L25.6025 47.12H24.9429L23.6239 46.5005H22.8242L23.144 46.9002Z" fill="#EE3636" stroke="black"/>
<path d="M32.7885 57.5761C31.4263 58.1814 29.7994 60.2373 29.1562 61.1896L32.4858 61.0571L33.6209 61.3598L37.9342 61.8706V61.1896L37.6693 59.8275C37.6882 59.3608 37.7147 58.2573 37.6693 57.5761C37.185 57.0917 36.3451 57.3742 35.9856 57.5761C35.5884 57.8599 34.6841 58.4275 34.2452 58.4275C33.8063 58.4275 33.6461 58.2636 33.6209 58.1816L34.056 56.7249L33.9047 54.2656H32.4858L31.6724 55.1925C31.6156 55.5015 31.7594 56.4108 32.7885 57.5761Z" fill="#EE3636" stroke="black"/>
<path d="M22.9689 51.3927C22.697 51.6128 22.629 52.1317 22.6289 52.3636C22.6883 52.9247 22.9429 54.0791 23.4867 54.2086C24.1664 54.3705 24.3768 53.8688 24.4092 53.3185C24.4351 52.8783 24.2366 52.1748 24.1341 51.8781C23.8589 51.6246 23.2407 51.1725 22.9689 51.3927Z" fill="#1D3D78"/>
<path d="M28.0757 63.9815C27.7684 64.4753 27.9477 64.9279 28.0757 65.0925C28.3939 65.7534 29.3924 66.4092 29.7627 65.6548C30.133 64.9005 29.5021 64.297 29.2552 63.9815C29.0083 63.6661 28.4597 63.3643 28.0757 63.9815Z" fill="#1D3D78"/>
<path d="M22.9689 51.3927C22.697 51.6128 22.629 52.1317 22.6289 52.3636C22.6883 52.9247 22.9429 54.0791 23.4867 54.2086C24.1664 54.3705 24.3768 53.8688 24.4092 53.3185C24.4351 52.8783 24.2366 52.1748 24.1341 51.8781C23.8589 51.6246 23.2407 51.1725 22.9689 51.3927Z" stroke="black"/>
<path d="M28.0757 63.9815C27.7684 64.4753 27.9477 64.9279 28.0757 65.0925C28.3939 65.7534 29.3924 66.4092 29.7627 65.6548C30.133 64.9005 29.5021 64.297 29.2552 63.9815C29.0083 63.6661 28.4597 63.3643 28.0757 63.9815Z" stroke="black"/>
<path d="M28.46 52.0382L23.7227 48.1328L24.0461 49.4269L25.6637 50.952L25.941 50.721L27.8822 52.1768V52.6852L30.8864 54.5802L31.3485 53.9331L28.46 52.0382Z" fill="#3169F8" stroke="black"/>
<path d="M17.8162 51.4149C18.1928 51.6947 18.2958 52.0335 18.3002 52.168C18.4616 52.9211 18.3002 53.4995 17.9909 53.7954C17.6816 54.0913 17.2109 54.024 16.794 53.4995C16.3771 52.975 16.4309 52.0201 16.5923 51.6704C16.7537 51.3208 17.3454 51.0653 17.8162 51.4149Z" fill="#1D3D78"/>
<path d="M24.1083 63.7019C24.6251 63.8626 24.7639 64.2856 24.7687 64.477C25.429 66.0131 24.8979 66.1853 24.5103 66.3432C24.1227 66.5012 23.0604 66.0274 22.9312 65.0082C22.802 63.989 23.4623 63.5009 24.1083 63.7019Z" fill="#1D3D78"/>
<path d="M17.8162 51.4149C18.1928 51.6947 18.2958 52.0335 18.3002 52.168C18.4616 52.9211 18.3002 53.4995 17.9909 53.7954C17.6816 54.0913 17.2109 54.024 16.794 53.4995C16.3771 52.975 16.4309 52.0201 16.5923 51.6704C16.7537 51.3208 17.3454 51.0653 17.8162 51.4149Z" stroke="black"/>
<path d="M24.1083 63.7019C24.6251 63.8626 24.7639 64.2856 24.7687 64.477C25.429 66.0131 24.8979 66.1853 24.5103 66.3432C24.1227 66.5012 23.0604 66.0274 22.9312 65.0082C22.802 63.989 23.4623 63.5009 24.1083 63.7019Z" stroke="black"/>
<path d="M26.6729 52.2393L24.1881 50.163L24.0859 49.4141L25.6007 50.8437L25.873 50.7075L27.8983 52.1202V52.6478L30.9448 54.622L30.4853 54.9624L29.5152 54.622L26.6729 52.2393Z" fill="#6023C3" stroke="black"/>
<path d="M22.2777 52.1649H22.643V53.0049H22.0403L21.7847 53.2422L19.6301 53.3701L19.2282 53.0049C19.0152 52.9866 18.4322 52.961 17.8039 53.0049C17.1757 52.6835 17.5421 52.311 17.8039 52.1649H19.4474L19.9221 51.4162L19.6301 50.3571L19.9221 49.9554L21.5838 49.7363L22.0403 49.9554L22.2777 52.1649Z" fill="#80A7AE"/>
<path d="M25.7249 64.3801L24.3262 64.5684C24.0142 64.8051 24.1962 65.1602 24.3262 65.3081L25.6576 65.3619H27.2177C27.397 65.2633 27.804 65.0633 27.9977 65.0526C27.7933 64.7836 27.9125 64.4205 27.9977 64.2726H27.4866L26.7201 63.2774L25.4021 63.385V63.7346L25.7249 63.9094V64.3801Z" fill="#80A7AE"/>
<path d="M22.2777 52.1649H22.643V53.0049H22.0403L21.7847 53.2422L19.6301 53.3701L19.2282 53.0049C19.0152 52.9866 18.4322 52.961 17.8039 53.0049C17.1757 52.6835 17.5421 52.311 17.8039 52.1649H19.4474L19.9221 51.4162L19.6301 50.3571L19.9221 49.9554L21.5838 49.7363L22.0403 49.9554L22.2777 52.1649Z" stroke="black"/>
<path d="M25.7249 64.3801L24.3262 64.5684C24.0142 64.8051 24.1962 65.1602 24.3262 65.3081L25.6576 65.3619H27.2177C27.397 65.2633 27.804 65.0633 27.9977 65.0526C27.7933 64.7836 27.9125 64.4205 27.9977 64.2726H27.4866L26.7201 63.2774L25.4021 63.385V63.7346L25.7249 63.9094V64.3801Z" stroke="black"/>
<path d="M44.697 32.7402L43.6016 33.1644L44.002 33.9182L44.1081 34.4718L45.1564 35.3553L45.5098 36.863L46.0398 36.5567V35.9442L47.5829 36.3094L50.1507 36.0738L48.9493 35.1197L48.7608 35.4259L46.4874 35.261L44.697 32.7402Z" fill="#D9D9D9" stroke="black"/>
<path d="M26.4896 48.6289L26.375 50.3774L28.0231 51.7675L29.1124 51.2229L28.84 49.1591L27.4498 49.0588V48.7721L26.4896 48.6289Z" fill="white"/>
<path d="M31.112 59.706L31.4513 61.0634H32.967L33.4647 60.4752L33.2611 60.0454L32.2657 57.8963L31.4513 58.8464L31.112 59.706Z" fill="white"/>
<path d="M26.4896 48.6289L26.375 50.3774L28.0231 51.7675L29.1124 51.2229L28.84 49.1591L27.4498 49.0588V48.7721L26.4896 48.6289Z" stroke="black"/>
<path d="M31.112 59.706L31.4513 61.0634H32.967L33.4647 60.4752L33.2611 60.0454L32.2657 57.8963L31.4513 58.8464L31.112 59.706Z" stroke="black"/>
<path d="M51.6814 40.9712L52.044 42.374L54.6921 41.4125L54.4005 40.2935L51.6814 40.9712Z" fill="white"/>
<path d="M50.8984 31.0352C52.3902 32.7205 55.4368 36.2799 55.6884 37.0347C55.94 37.7894 55.39 38.4135 55.0836 38.6312M52.044 42.374L51.6814 40.9712L54.4005 40.2935L54.6921 41.4125L52.044 42.374Z" stroke="black"/>
<path d="M52.1367 41.3071L52.5537 41.2071L52.3139 41.9026L52.783 41.6826M52.8186 41.0557L52.9394 41.6826M53.8777 41.373L53.7588 40.8156L54.1837 41.2071L54.078 40.6895M53.2 41.0298C53.173 41.0643 53.1396 41.1267 53.1337 41.3071C53.1264 41.5327 53.2883 41.5215 53.4722 41.4069C53.6562 41.2922 53.5311 40.8338 53.2 41.0298Z" stroke="black" stroke-linejoin="bevel"/>
<path d="M24.9669 47.5666L23.3984 46.7362L23.6937 46.5332L24.9669 47.1974L25.4097 47.0683L29.0999 47.6772V48.0462C29.3213 47.8543 29.7826 47.9663 29.9856 48.0462L30.8528 51.0352L29.8195 53.0833L28.6202 52.1792H29.5058V51.5334C29.5058 51.4596 29.2352 50.986 29.0999 50.7585L28.8231 48.2861L25.6311 47.6772V48.3968H25.2436L24.9669 47.5666Z" fill="#D9D9D9"/>
<path d="M34.4102 59.3178L33.0519 57.6793C32.6553 57.4206 32.4411 57.7871 32.3836 58.0027L33.44 59.9862C33.3107 60.3814 33.0174 61.1892 32.8795 61.2582C32.7415 61.3272 33.2675 61.3875 33.5478 61.4091C33.7993 60.9348 34.4317 59.9387 34.9492 59.749C35.4666 59.5593 36.9758 59.8281 37.6657 59.9862V59.4472L35.9625 59.3178H34.4102Z" fill="#D9D9D9"/>
<path d="M28.8231 48.2861L25.6311 47.6772V48.3968H25.2436L24.9669 47.5666L23.3984 46.7362L23.6937 46.5332L24.9669 47.1974L25.4097 47.0683L29.0999 47.6772V48.0462M28.8231 48.2861L29.0999 48.0462M28.8231 48.2861L29.0999 50.7585C29.2352 50.986 29.5058 51.4596 29.5058 51.5334C29.5058 51.6072 29.5058 51.9947 29.5058 52.1792H28.6202L29.8195 53.0833L30.8528 51.0352L29.9856 48.0462C29.7826 47.9663 29.3213 47.8543 29.0999 48.0462M33.0519 57.6793L34.4102 59.3178H35.9625L37.6657 59.4472V59.9862C36.9758 59.8281 35.4666 59.5593 34.9492 59.749C34.4317 59.9387 33.7993 60.9348 33.5478 61.4091C33.2675 61.3875 32.7415 61.3272 32.8795 61.2582C33.0174 61.1892 33.3107 60.3814 33.44 59.9862L32.3836 58.0027C32.4411 57.7871 32.6553 57.4206 33.0519 57.6793Z" stroke="black" stroke-linejoin="bevel"/>
<path d="M20.9662 47.4149C20.2527 47.7976 21.0567 48.8412 21.5479 49.3152L21.3669 48.811L21.7547 48.6042L21.3669 48.1646L21.9099 47.9449C21.7332 47.6648 21.2971 47.1667 20.9662 47.4149Z" fill="#A52E2E"/>
<path d="M21.7547 49.0178L21.8323 49.6254C22.2244 49.522 22.9932 49.173 22.9311 48.6042C22.8691 48.0353 22.4571 47.9966 22.2589 48.0483L21.9099 48.268L22.1425 48.811L21.7547 49.0178Z" fill="#A52E2E"/>
<path d="M21.8031 54.5953C21.5569 55.0441 21.0011 56.1452 20.7539 56.6397L20.9529 57.3634L22.1107 54.7219L22.563 54.9391L23.8838 57.6167L24.5532 58.9555L24.2637 59.2088L23.9742 59.0822L23.739 58.4308L23.4315 58.9555L21.3871 58.4308L21.5861 58.9555C22.4243 59.1666 24.2166 59.6141 24.6798 59.7154C25.2587 59.842 25.2768 59.4802 25.0778 59.0822C24.8788 58.6841 23.5038 55.8798 22.8887 54.7219C22.2736 53.564 22.1107 54.0344 21.8031 54.5953Z" fill="#825830"/>
<path d="M22.0022 56.0427L22.1107 57.472L22.7259 56.1874L22.3821 55.717L22.0022 56.0427Z" fill="#825830"/>
<path d="M21.5861 58.1233C21.5861 57.9641 21.9359 57.8519 22.1107 57.8157C22.3158 57.9182 22.6933 58.1667 22.563 58.3404C22.4002 58.5575 21.5861 58.3223 21.5861 58.1233Z" fill="#825830"/>
<path d="M21.7451 52.1967H22.4201L21.809 51.3735M21.7451 52.1967C21.5804 52.3855 21.3787 52.838 21.8898 53.1369M21.7451 52.1967L21.5523 51.0276M21.5523 51.0276H20.2988L19.5756 52.1967C19.3827 52.3895 19.1271 52.8668 19.6478 53.2333M21.5523 51.0276L21.809 51.3735M20.0817 51.9918H21.3594M21.6484 49.9336L21.809 51.3735M25.7209 64.4573C25.6097 64.7681 25.4815 65.3817 25.8583 65.3503M25.7209 64.4573L27.3272 64.3223M25.7209 64.4573L25.935 63.8582L26.7181 63.8099L27.3272 64.3223M27.3272 64.3223C27.137 64.4415 26.8592 64.7999 27.2691 65.2794M26.7181 63.8582L26.7761 63.4038" stroke="black" stroke-linejoin="bevel"/>
<path d="M24.499 63.2123C24.2978 63.0598 24.0446 62.737 23.8017 62.3813M23.8017 62.3813C23.5162 61.9631 23.2451 61.4995 23.0898 61.2143C23.2639 61.2364 23.6402 61.3768 23.753 61.7615C23.8657 62.1462 23.8325 62.335 23.8017 62.3813ZM23.6316 61.0479C23.8854 61.408 24.3441 62.1747 24.56 62.2665M24.56 62.2665C24.7759 62.3583 24.4354 61.5966 24.1174 61.115M24.56 62.2665C24.6917 62.4367 24.8973 62.837 24.666 63.076M24.1174 60.9365L24.3917 60.8647M24.666 60.7929L24.3917 60.8647M24.3917 60.8647L25.4321 62.9225M24.8118 60.7189L25.2886 61.7513M25.7654 62.7836L25.2886 61.7513M25.2886 61.7513L25.6172 61.6263M25.1821 60.6079L26.0802 62.654M27.1782 62.3312L26.226 60.3798L27.7714 62.3312L26.6033 60.0039M25.5011 60.5223L26.3693 62.5177C26.4551 62.6074 26.6412 62.7517 26.6992 62.6119C26.7571 62.4721 26.2137 61.1606 25.9348 60.5223C25.8735 60.4461 25.7011 60.3395 25.5011 60.5223Z" stroke="black" stroke-linejoin="bevel"/>
<path d="M47.18 34.4396L48.2139 30.4152V28.8223L50.9528 31.1139L50.1982 32.148V33.6012L48.7729 35.3619L46.3136 35.1942L47.18 34.4396Z" fill="#204BB9" style="mix-blend-mode:color-dodge"/>
<path d="M43.3791 38.0169L44.8323 35.1942L45.2237 35.3619L43.1836 40.4483L43.3791 38.0169Z" fill="#204BB9" style="mix-blend-mode:color-dodge"/>
<path d="M49.4158 37.7933L51.428 36.5636L50.9528 36.1165H48.2139L49.4158 37.7933Z" fill="#204BB9" style="mix-blend-mode:color-dodge"/>
<path d="M48.5494 41.9854L47.4874 43.7461C48.0016 43.2095 50.7386 42.3487 52.0428 41.9854H48.5494Z" fill="#204BB9" style="mix-blend-mode:color-dodge"/>
<path d="M28.25 18.9048L37.1525 15.9961L43.0452 20.7762" stroke="#615C5C" stroke-linejoin="bevel"/>
<path d="M20.2688 43.9404C19.1011 43.857 18.6239 44.508 18.5312 44.844C18.844 43.558 19.6035 43.2063 20.793 43.6641C21.5105 43.9402 22.2062 44.4945 22.493 45.0873C22.2381 44.7397 21.4365 44.0238 20.2688 43.9404Z" fill="#D9D9D9"/>
<path d="M20.5075 42.7888C19.7585 42.6898 19.2697 42.9539 19.197 43.1667C19.3414 42.7438 20.1679 42.4095 20.9164 42.7505C21.3678 42.9562 21.734 43.2208 21.8958 43.6138C21.7451 43.3801 21.2565 42.8878 20.5075 42.7888Z" fill="#D9D9D9"/>
<path d="M55.3226 36.557C55.0662 35.8062 52.2862 32.5669 50.9283 31.041L50.2416 31.9795V33.6502L49.0514 35.2524L47.4492 36.2823L50.7451 36.0763L51.981 36.9918L51.8666 37.4267L53.4001 38.2964C53.69 38.4414 54.43 38.7084 55.0708 38.6168C55.8719 38.5024 55.643 37.4953 55.3226 36.557Z" fill="#978F8F" style="mix-blend-mode:darken"/>
<path d="M37.8954 38.7086C37.6002 38.3367 36.7376 38.0017 36.3047 37.8306L36.8051 37.5059H37.7191C38.0184 37.7517 38.6363 38.3172 38.7133 38.6123C38.8095 38.9811 38.2643 39.1735 37.8954 38.7086Z" fill="#D9D9D9" stroke="black"/>
<path d="M36.3679 38.7467C36.5485 38.5663 36.95 38.3038 37.1282 38.1951L36.2675 37.8108L35.9082 38.0197L35.457 38.7467C35.6854 38.8219 36.1874 38.9271 36.3679 38.7467Z" fill="#D9D9D9"/>
<path d="M38.5069 37.7355L38.0807 37.8108L37.6026 37.5229L38.1977 37.4766L38.5069 37.7355Z" fill="#D9D9D9"/>
<path d="M36.3679 38.7467C36.5485 38.5663 36.95 38.3038 37.1282 38.1951L36.2675 37.8108L35.9082 38.0197L35.457 38.7467C35.6854 38.8219 36.1874 38.9271 36.3679 38.7467Z" stroke="black"/>
<path d="M38.5069 37.7355L38.0807 37.8108L37.6026 37.5229L38.1977 37.4766L38.5069 37.7355Z" stroke="black"/>
<g opacity="0.35">
<path fill-rule="evenodd" clip-rule="evenodd" d="M21.0454 32.6762L20.3125 33.4591V33.992L25.6588 40.0211L26.3084 40.221L28.9232 37.6561L29.1564 37.0399L23.8767 30.8109L23.5103 30.7109L22.7109 31.3272L22.3445 31.0441H22.1779L20.8955 32.2599V32.4764L21.0454 32.6762ZM20.8535 33.6423L23.4517 31.3105L28.6148 37.3563L25.9333 39.6047L20.8535 33.7588V33.6423Z" fill="#6023C3"/>
<path d="M25.5254 38.4072L25.9306 38.9776L27.957 37.1014L27.5967 36.6211L25.5254 38.4072Z" fill="#6023C3"/>
<path d="M24.9258 37.624L25.331 38.1944L27.3574 36.3182L26.9971 35.8379L24.9258 37.624Z" fill="#6023C3"/>
<path d="M24.209 36.9912L24.6142 37.5616L26.6406 35.6854L26.2803 35.2051L24.209 36.9912Z" fill="#6023C3"/>
<path d="M23.627 36.2236L24.0322 36.7941L26.0585 34.9178L25.6983 34.4375L23.627 36.2236Z" fill="#6023C3"/>
<path d="M22.9941 35.458L23.3994 36.0284L25.4257 34.1522L25.0655 33.6719L22.9941 35.458Z" fill="#6023C3"/>
<path d="M22.2109 34.6338L22.6162 35.2042L24.6425 33.3279L24.2823 32.8477L22.2109 34.6338Z" fill="#FF3055"/>
<path d="M21.6387 33.792L22.0439 34.3624L24.0702 32.4862L23.71 32.0059L21.6387 33.792Z" fill="#FF3055"/>
</g>
<path d="M24.8398 28.2462V30.1296L25.1963 28.9564L25.851 29.4358L26.0578 28.0365L26.6019 28.4504L27.1397 25.9266L26.5105 25.1309L26.3061 27.4524L25.6528 26.9575L25.5185 28.6985L24.8398 28.2462Z" fill="#D9D9D9"/>
<path d="M17.9175 32.3835L19.3401 33.6178L18.2203 33.1182L18.1533 33.9268L16.9609 33.166L16.9169 33.8482L14.4696 33.6178L14.4696 31.6037L16.3571 32.9707L16.4114 32.1529L17.8143 33.1925L17.9175 32.3835Z" fill="#D9D9D9"/>
<path d="M31.5109 36.9565L29.7227 37.5478L30.9485 37.5179L30.6989 38.29L32.0924 38.0471L31.8702 38.6936L34.4353 38.4119L34.9932 37.5647L32.7248 38.0994L32.9896 37.3238L31.2946 37.7428L31.5109 36.9565Z" fill="#D9D9D9"/>
<path d="M26.4549 42.6677L26.0686 40.8243L25.9603 42.0457L25.2212 41.7108L25.3057 43.1227L24.6884 42.8292L24.6796 45.4097L25.4586 46.0594L25.1826 43.7453L25.9235 44.0957L25.6979 42.3642L26.4549 42.6677Z" fill="#D9D9D9"/>
<path d="M38.1037 31.0442L38.4646 31.5725L36.2619 33.0772L34.3185 30.2324L36.4684 28.7637L36.8293 29.2921L35.3337 30.3137L35.7557 30.9315L37.0765 30.0292L37.4263 30.5413L36.1055 31.4435L36.5553 32.1019L38.1037 31.0442Z" fill="#6023C3"/>
<path d="M39.4231 27.5321L38.0697 28.4566L39.6507 30.7622L38.9964 31.2092L37.053 28.3644L39.0607 26.9929L39.4231 27.5321Z" fill="#6023C3"/>
<path d="M40.3391 26.048C40.6209 25.8555 40.9164 25.7471 41.2256 25.7226C41.5356 25.6937 41.8311 25.7481 42.112 25.886C42.3911 26.0212 42.6269 26.2297 42.8194 26.5114C43.0119 26.7932 43.1213 27.09 43.1476 27.4019C43.172 27.7111 43.1153 28.0061 42.9774 28.2871C42.8403 28.5635 42.6309 28.7979 42.3492 28.9904C42.0972 29.1626 41.84 29.2747 41.5775 29.3268C41.3178 29.377 41.0638 29.3658 40.8154 29.2931L40.9675 28.617C41.3216 28.7049 41.6436 28.6498 41.9335 28.4518C42.1421 28.3093 42.2766 28.128 42.3369 27.908C42.3999 27.6861 42.3828 27.4574 42.2855 27.2219L41.1313 28.0104L40.787 27.5064L41.9331 26.7235C41.7538 26.5599 41.5525 26.4689 41.3293 26.4505C41.1062 26.4321 40.893 26.4923 40.6898 26.6311C40.3998 26.8291 40.2315 27.1091 40.1846 27.4709L39.4995 27.3667C39.522 27.1089 39.6039 26.8681 39.7452 26.6445C39.8892 26.419 40.0872 26.2201 40.3391 26.048Z" fill="#6023C3"/>
<path d="M33.8848 45.4381L33.7276 45.6701L32.7607 45.0144L33.6074 43.7656L34.5512 44.4055L34.3939 44.6375L33.7374 44.1923L33.5535 44.4635L34.1333 44.8566L33.9809 45.0814L33.4011 44.6883L33.2051 44.9773L33.8848 45.4381Z" fill="white"/>
<path d="M51.5846 43.1939L51.4466 45.2636L49.9427 43.9116L47.873 43.8012L49.2803 43.0699L51.1707 42.2695L51.5846 43.1939Z" fill="url(#paint6_linear_1729_1120)" stroke="black"/>
<path fill-rule="evenodd" clip-rule="evenodd" d="M43.036 37.9014C42.9793 37.7965 42.8745 37.5712 42.9084 37.5093C42.9508 37.4318 43.2418 36.9204 43.6305 36.7227C44.0192 36.5251 44.5326 36.5553 44.6234 36.6128C44.7143 36.6704 44.891 36.871 44.916 36.9187C44.936 36.957 44.5388 37.2688 44.3377 37.42L43.7169 37.7445C43.5075 37.8023 43.0783 37.9147 43.036 37.9014ZM43.2656 38.1927L44.1292 37.7414L44.9807 37.2963L45.1396 37.6003L45.0666 37.8815L44.648 37.9158L45.0435 37.9836L45.0999 38.0486L45.1196 38.2499L45.1991 38.4019L44.9464 38.3404C44.8912 38.3467 44.7646 38.3472 44.6995 38.2985C44.6343 38.2497 44.5127 38.1335 44.4601 38.0815L44.5654 38.283L44.3881 38.3487L44.2635 38.1618C44.277 38.2192 44.3033 38.3516 44.3002 38.4216C44.2965 38.5091 44.2233 38.7049 44.1374 38.7903C44.0687 38.8586 44.0506 38.9601 44.0502 39.0024L43.9283 38.7691C43.9061 38.7266 43.8583 38.6811 43.8372 38.6636L44.1142 38.1948C44.0354 38.308 43.8607 38.5433 43.7928 38.5788C43.725 38.6143 43.519 38.5389 43.4245 38.4968L43.2656 38.1927ZM43.6869 38.9987L44.0419 39.0887C43.8966 39.2759 43.935 39.5314 43.9723 39.6358C43.904 39.6144 43.7408 39.5603 43.6344 39.5151C43.5172 39.3255 43.6206 39.0918 43.6869 38.9987ZM44.0243 39.6442C43.9878 39.5221 43.9516 39.2413 44.0985 39.0947C44.1538 39.0174 44.2227 38.927 44.2858 38.8442L44.2858 38.8442L44.2859 38.8442C44.3533 38.7557 44.4142 38.6758 44.4451 38.6294C44.5048 38.5397 44.6467 38.4817 44.7992 38.4893C44.8608 38.4924 44.9481 38.4883 45.0348 38.4843L45.0348 38.4843C45.1627 38.4784 45.2893 38.4726 45.3304 38.4896C45.3384 38.4929 45.3489 38.4968 45.3613 38.5014C45.4565 38.5364 45.6666 38.6139 45.7551 38.8107C45.7818 38.8665 45.7153 39.0416 45.6787 39.1221C45.6589 39.1713 45.5801 39.2667 45.4245 39.255C45.3552 39.2395 45.2775 39.1853 45.2473 39.1601L45.1499 39.2111L45.1494 39.3277L44.9057 39.455L44.8066 39.3905L44.7158 39.438C44.7439 39.4955 44.7665 39.6357 44.6322 39.737C44.4979 39.8382 44.3904 39.831 44.3535 39.8148C44.2952 39.8259 44.1476 39.8073 44.0243 39.6442ZM45.7494 38.707C45.6506 38.5673 45.436 38.4743 45.3411 38.4452C45.3581 38.3706 45.405 38.2063 45.4562 38.1459C45.7777 38.0684 45.8812 38.3407 45.8833 38.3817C45.8845 38.406 45.8511 38.4782 45.8154 38.5555L45.8154 38.5555C45.7912 38.6081 45.7658 38.6631 45.7494 38.707ZM45.5088 38.0734C45.5801 38.0469 45.763 38.0489 45.9248 38.2694C45.9714 38.3647 46.0081 38.268 45.9266 38.1554C45.8451 38.0428 45.6581 37.9757 45.5978 37.9717C45.5496 37.9684 45.2708 37.4655 45.1374 37.2144L45.0435 37.2635L45.4825 38.0602L45.5088 38.0734ZM43.2282 38.2123L43.6273 38.9758C43.4894 39.2314 43.5255 39.4222 43.5609 39.4856C43.5266 39.4798 43.4596 39.4675 43.4657 39.4643C43.3693 39.2354 43.4605 39.0813 43.5181 39.0328L43.1191 38.2694L43.2282 38.2123ZM45.2754 37.3547L45.5041 37.7924L45.56 37.7632L45.3312 37.3255L45.2754 37.3547ZM43.4154 38.9291L43.1549 38.4307L43.0635 38.4785L43.324 38.9769L43.4154 38.9291ZM43.5736 38.6256C43.6184 38.6867 43.729 38.813 43.8127 38.8295C43.8963 38.846 43.9676 38.9466 43.9928 38.9948L43.668 38.9051L43.5736 38.6256ZM45.2268 38.0904C45.1871 38.1975 45.2365 38.3193 45.2662 38.3668L45.3886 38.1093L45.1857 37.783C45.2159 37.8408 45.2664 37.9832 45.2268 38.0904ZM44.5183 37.8508L44.3397 37.7161L44.9414 37.4016L45.035 37.5807L44.9753 37.802L44.5183 37.8508ZM43.506 38.4091L43.4112 38.2277L44.0405 37.8988L44.0549 38.1222L43.8353 38.4125L43.771 38.4461L43.506 38.4091ZM44.5917 39.3302C44.5165 39.3182 44.3501 39.3261 44.286 39.4539C44.2059 39.6136 44.3687 39.8099 44.5275 39.7365C44.6546 39.6778 44.6618 39.4964 44.6495 39.4131L44.7137 39.3795L44.6784 38.9025L44.8484 38.8136L45.159 39.1179L45.2575 39.0808C45.2814 39.1421 45.3675 39.2499 45.5197 39.1915C45.71 39.1185 45.6105 38.9372 45.5611 38.8933C45.5117 38.8494 45.3844 38.8221 45.2648 38.9568C45.1691 39.0645 45.107 39.0184 45.0879 38.9819L44.8462 38.7403L44.6082 38.8647L44.6295 39.3104L44.5917 39.3302ZM44.7772 39.3174L44.7191 38.9417L44.8407 38.8781L45.0783 39.1456L45.0671 39.2723L44.9205 39.3656L44.7772 39.3174Z" fill="white"/>
<defs>
<linearGradient id="paint0_linear_1729_1120" x1="63.0167" y1="21.0734" x2="8.36287" y2="24.1801" gradientUnits="userSpaceOnUse">
<stop stop-color="#E67B53"/>
<stop offset="1" stop-color="#FECB11"/>
</linearGradient>
<linearGradient id="paint1_linear_1729_1120" x1="0.979495" y1="43.729" x2="63.6167" y2="55.9823" gradientUnits="userSpaceOnUse">
<stop stop-color="#E67B53"/>
<stop offset="1" stop-color="#FECB11"/>
</linearGradient>
<linearGradient id="paint2_linear_1729_1120" x1="0.0126123" y1="36.1925" x2="58.6558" y2="61.3825" gradientUnits="userSpaceOnUse">
<stop stop-color="#E67B53"/>
<stop offset="1" stop-color="#FECB11"/>
</linearGradient>
<linearGradient id="paint3_linear_1729_1120" x1="47.068" y1="30.9268" x2="44.5233" y2="8.86521" gradientUnits="userSpaceOnUse">
<stop stop-color="#E67B53"/>
<stop offset="1" stop-color="#FECB11"/>
</linearGradient>
<linearGradient id="paint4_linear_1729_1120" x1="41.5212" y1="45.6106" x2="41.1583" y2="36.7121" gradientUnits="userSpaceOnUse">
<stop stop-color="#E67B53"/>
<stop offset="1" stop-color="#FECB11"/>
</linearGradient>
<linearGradient id="paint5_linear_1729_1120" x1="40.6965" y1="52.0391" x2="40.3825" y2="44.8743" gradientUnits="userSpaceOnUse">
<stop stop-color="#E67B53"/>
<stop offset="1" stop-color="#FECB11"/>
</linearGradient>
<linearGradient id="paint6_linear_1729_1120" x1="50.8985" y1="45.563" x2="50.7328" y2="41.9486" gradientUnits="userSpaceOnUse">
<stop stop-color="#E67B53"/>
<stop offset="1" stop-color="#FECB11"/>
</linearGradient>
</defs>
</svg>
