<svg xmlns="http://www.w3.org/2000/svg" width="15.97" height="22" viewBox="0 0 15.97 22">
  <defs>
    <style>
      .cls-1 {
        fill: #cb003d;
        fill-rule: evenodd;
      }
    </style>
  </defs>
  <path class="cls-1" d="M1134.88,1075.99a1.2,1.2,0,0,1-.28-0.03c-2.53-.72-5.23-3.48-8.04-8.2s-3.95-8.44-3.42-11.06c0.25-1.23,3.47-2.56,3.51-2.57a1.47,1.47,0,0,1,1.93.65c0.14,0.35,1.43,4.03,1.56,4.45a1.69,1.69,0,0,1-.46,1.59c-0.22.25-.91,1-1.28,1.4a24.323,24.323,0,0,0,1.71,3.32,24,24,0,0,0,2.1,3.09c0.51-.16,1.48-0.44,1.8-0.52a1.617,1.617,0,0,1,1.59.3c0.32,0.32,2.9,3.19,3.14,3.47a1.265,1.265,0,0,1,.27.89,1.748,1.748,0,0,1-.59,1.17C1138.4,1073.96,1136.05,1075.99,1134.88,1075.99Zm-7.58-20.84a0.736,0.736,0,0,0-.24.05,8.579,8.579,0,0,0-2.82,1.75c-0.59,2.88,1.46,7.14,3.28,10.21s4.58,6.89,7.36,7.68a8.992,8.992,0,0,0,2.79-1.77,0.476,0.476,0,0,0,.21-0.45c-0.19-.21-2.77-3.08-3.08-3.4a1.069,1.069,0,0,0-.52.01c-0.43.11-2.1,0.6-2.1,0.6l-0.31.1-0.23-.24a18.924,18.924,0,0,1-2.49-3.54,19.716,19.716,0,0,1-1.94-3.9l-0.09-.32,0.22-.24c0.01,0,1.2-1.29,1.49-1.63a0.792,0.792,0,0,0,.24-0.47c-0.12-.39-1.4-4.04-1.54-4.38A0.4,0.4,0,0,0,1127.3,1055.15Z" transform="translate(-1123.03 -1054)"/>
</svg>
