<svg xmlns="http://www.w3.org/2000/svg" width="20" height="25" viewBox="0 0 20 25">
  <defs>
    <style>
      .cls-1 {
        fill: #cb003d;
        fill-rule: evenodd;
      }
    </style>
  </defs>
  <path id="Shape_62_copy" data-name="Shape 62 copy" class="cls-1" d="M1070.84,64.007a1.307,1.307,0,0,1-.34-0.042c-3.17-.815-6.54-3.949-10.05-9.318s-4.95-9.6-4.28-12.582c0.31-1.389,4.34-2.908,4.38-2.923a1.919,1.919,0,0,1,2.41.742c0.18,0.4,1.79,4.586,1.96,5.057a1.822,1.822,0,0,1-.58,1.813c-0.27.285-1.13,1.14-1.59,1.6a26.119,26.119,0,0,0,2.13,3.776,26.786,26.786,0,0,0,2.63,3.5c0.64-.174,1.85-0.5,2.25-0.589a2.21,2.21,0,0,1,1.99.343c0.39,0.37,3.63,3.632,3.92,3.943a1.346,1.346,0,0,1,.34,1.018,1.87,1.87,0,0,1-.74,1.327C1075.25,61.693,1072.32,64.007,1070.84,64.007Zm-9.47-23.7a0.936,0.936,0,0,0-.31.06c-1.17.424-3.3,1.542-3.52,1.983-0.73,3.28,1.83,8.129,4.11,11.615s5.72,7.829,9.2,8.73a11.469,11.469,0,0,0,3.49-2.009,0.519,0.519,0,0,0,.26-0.511c-0.23-.242-3.46-3.5-3.85-3.867a1.45,1.45,0,0,0-.65.006c-0.54.126-2.62,0.688-2.62,0.689l-0.4.106-0.29-.265a22.608,22.608,0,0,1-3.11-4.034,21.928,21.928,0,0,1-2.42-4.426l-0.12-.363,0.28-.276c0.01,0,1.5-1.468,1.86-1.858a0.921,0.921,0,0,0,.31-0.535c-0.16-.437-1.76-4.595-1.93-4.973A0.534,0.534,0,0,0,1061.37,40.306Z" transform="translate(-1056 -39)"/>
</svg>
