<svg width="67" height="66" viewBox="0 0 67 66" fill="none" xmlns="http://www.w3.org/2000/svg">
<circle cx="33.1777" cy="33" r="33" fill="#D9D9D9"/>
<mask id="mask0_1588_2383" style="mask-type:alpha" maskUnits="userSpaceOnUse" x="0" y="0" width="67" height="66">
<circle cx="33.1777" cy="33" r="33" fill="#D9D9D9"/>
</mask>
<g mask="url(#mask0_1588_2383)">
<rect x="21.2942" y="18.5529" width="30.6889" height="18.789" rx="5.5" transform="rotate(-10.2985 21.2942 18.5529)" fill="#2F2F2F" stroke="black"/>
<rect x="22.6321" y="19.6447" width="28.4968" height="15.2582" rx="5.5" transform="rotate(-10.2985 22.6321 19.6447)" fill="url(#paint0_linear_1588_2383)" stroke="black"/>
<path d="M24.1877 20.8698L24.6377 23.3465L25.9317 23.1114L25.5623 21.0783L27.3736 20.7491L27.1385 19.4553L24.5509 19.9255L24.1877 20.8698Z" fill="#FFE18F"/>
<path d="M52.0174 27.802L51.5673 25.3253L50.2733 25.5605L50.6428 27.5936L48.8314 27.9227L49.0665 29.2166L51.6542 28.7464L52.0174 27.802Z" fill="#FFE18F"/>
<path d="M48.9231 15.6115L46.4464 16.0616L46.6816 17.3556L48.7147 16.9861L49.0438 18.7975L50.3377 18.5624L49.8675 15.9748L48.9231 15.6115Z" fill="#FFE18F"/>
<path d="M27.2819 33.0603L29.7586 32.6103L29.5235 31.3163L27.4904 31.6857L27.1612 29.8744L25.8674 30.1095L26.3376 32.6971L27.2819 33.0603Z" fill="#FFE18F"/>
<path d="M49.8342 48.9778L49.2435 50.7825L47.3598 65.334C47.2234 66.2006 46.8099 68.0543 46.2471 68.5365C45.6842 69.0186 43.422 72.9396 42.3613 74.8398L41.4808 76.6556C41.3567 78.193 40.9891 81.8411 40.5107 84.1346C40.4009 82.4684 37.9074 80.2324 35.6076 79.1559C33.3078 78.0794 32.2421 75.8779 32.4719 75.0093C31.8446 69.1096 24.8792 67.5355 24.0411 65.3656C27.9329 60.6254 23.6183 53.1951 23.1956 50.9477C22.8574 49.1498 24.6771 46.1718 25.6293 44.9075C25.9568 43.4415 26.309 42.0391 26.5864 41.0091C27.1529 40.3634 28.5381 39.1394 29.5463 39.4093C30.5544 39.6791 31.8289 38.9553 32.3401 38.5597C33.2047 38.3859 35.6419 38.2419 38.474 39.0557C41.3061 39.8696 44.097 43.0838 45.1385 44.5891C46.0237 45.0024 46.8478 45.3715 47.4964 45.6526L49.8342 48.9778Z" fill="#2F2F2F"/>
<path d="M38.6045 40.8448C39.2609 41.7021 42.4761 43.3459 45.1385 44.5891M45.1385 44.5891C46.0237 45.0024 46.8478 45.3715 47.4964 45.6526L49.8342 48.9778L49.2435 50.7825L47.3598 65.334C47.2234 66.2006 46.8099 68.0543 46.2471 68.5365C45.6842 69.0186 43.422 72.9396 42.3613 74.8398L41.4808 76.6556C41.3567 78.193 40.9891 81.8411 40.5107 84.1346C40.4009 82.4684 37.9074 80.2324 35.6076 79.1559C33.3078 78.0794 32.2421 75.8779 32.4719 75.0093C31.8446 69.1096 24.8792 67.5355 24.0411 65.3656C27.9329 60.6254 23.6183 53.1951 23.1956 50.9477C22.8574 49.1498 24.6771 46.1718 25.6293 44.9075M45.1385 44.5891C44.097 43.0838 41.3061 39.8696 38.474 39.0557C35.6419 38.2419 33.2047 38.3859 32.3401 38.5597C31.8289 38.9553 30.5544 39.6791 29.5463 39.4093C28.5381 39.1394 27.1529 40.3634 26.5864 41.0091C26.309 42.0391 25.9568 43.4415 25.6293 44.9075M24.7882 52.066C24.3897 51.1911 24.9573 47.9155 25.6293 44.9075" stroke="black"/>
<path d="M59.7588 67.5063L59.5486 68.2295C60.1665 74.8725 56.8238 75.5291 55.0752 75.0269L53.86 72.7809L52.6448 70.5349L50.2414 69.4861L48.6239 65.6866L46.4487 65.1738L44.1462 59.7653L42.174 58.6479L37.8226 58.0255C36.9798 56.6768 35.2238 53.8138 34.9418 53.1514C34.6598 52.489 33.7671 51.023 33.356 50.3728L36.3269 46.806L40.9383 46.2816L46.0998 48.4012L51.3258 52.5649L53.6991 54.4894L53.0473 56.6086L54.3371 58.0161L54.6651 60.4088L58.5735 65.939L59.7588 67.5063Z" fill="white"/>
<path d="M59.5486 68.2295L59.7588 67.5063L58.5735 65.939L54.6651 60.4088L54.3371 58.0161L53.0473 56.6086L53.6991 54.4894L51.3258 52.5649L46.0998 48.4012L40.9383 46.2816L36.3269 46.806L33.356 50.3728C33.7671 51.023 34.6598 52.489 34.9418 53.1514C35.2238 53.8138 36.9798 56.6768 37.8226 58.0255L42.174 58.6479L44.1462 59.7653M59.5486 68.2295C60.1665 74.8725 56.8238 75.5291 55.0752 75.0269L53.86 72.7809M59.5486 68.2295C56.3961 65.1507 54.4427 69.9809 53.86 72.7809M44.1462 59.7653L46.2771 55.5774L50.0188 55.3083M44.1462 59.7653L46.4487 65.1738L48.6239 65.6866L50.2414 69.4861L52.6448 70.5349L53.86 72.7809" stroke="black"/>
<path d="M59.1424 68.0539L62.3505 68.8619L64.8075 68.7138C66.7354 68.0541 70.8477 66.8188 71.8743 67.1548C72.9008 67.4909 72.5492 68.524 72.245 68.9986L70.083 69.919C68.4407 70.3306 65.0049 71.2043 64.4007 71.4063C63.7965 71.6083 64.5387 72.4059 64.9853 72.7795L70.1489 73.7217L73.139 73.4496C73.4509 73.777 73.9594 74.5499 73.498 75.0224C73.0365 75.4949 72.2345 75.6753 71.8912 75.7064L66.1171 75.4382L64.7463 75.0554L65.4602 76.1665L67.91 77.0562L70.6106 81.0487L69.8627 81.6431L68.4085 81.2269L66.7164 79.1173L64.4902 77.3732L64.021 78.2977L65.134 80.1016L64.701 81.5974L65.0183 83.1534L64.1126 83.5389L62.9014 82.6396L63.2972 81.0561L60.9611 78.0819L57.104 76.4798L56.8426 74.2444L55.4371 70.9429L56.0454 69.3724C56.0961 69.0863 56.0883 68.2085 55.6509 66.9866C55.1042 65.4593 55.2501 63.7753 56.1434 63.3605C57.0366 62.9457 57.861 63.4229 58.1129 64.42C58.3145 65.2177 58.3774 65.9868 58.3836 66.2716L59.1424 68.0539Z" fill="url(#paint1_linear_1588_2383)" stroke="black"/>
<path d="M67.7206 82.3796C67.5496 82.4879 67.3041 82.6008 67.0339 82.6576L66.7379 83.9474C66.4886 84.0724 65.9379 84.1821 65.7292 83.6206C65.5204 83.0592 65.8044 82.6185 65.9725 82.4683C65.8157 82.3507 65.6742 82.1809 65.5601 81.9441C65.5937 81.5657 65.755 80.4869 65.9848 79.0185C66.5072 75.6804 67.3837 70.3292 67.92 66.6183C68.2267 64.4961 68.4222 62.9103 68.3765 62.5445C68.906 61.6954 69.6543 60.6379 70.323 59.7274C70.817 59.055 71.2676 58.4627 71.5547 58.0938L71.761 60.3851L72.0012 63.0541C72.0511 63.0201 71.656 64.876 71.0879 67.4497C70.2617 71.1925 69.0696 76.4533 68.3477 79.6274C67.9697 81.2896 67.7206 82.3796 67.7206 82.3796Z" fill="#2F2F2F"/>
<path d="M72.0012 63.0541C71.3728 63.67 69.768 64.4303 68.3765 62.5445M72.0012 63.0541C72.0511 63.0201 71.656 64.876 71.0879 67.4497M72.0012 63.0541L71.761 60.3851M68.3765 62.5445C68.4222 62.9103 68.2267 64.4961 67.92 66.6183M68.3765 62.5445C68.906 61.6954 69.6543 60.6379 70.323 59.7274M67.0339 82.6576C67.3041 82.6008 67.5496 82.4879 67.7206 82.3796C67.7206 82.3796 67.9697 81.2896 68.3477 79.6274M67.0339 82.6576L66.7379 83.9474C66.4886 84.0724 65.9379 84.1821 65.7292 83.6206C65.5204 83.0592 65.8044 82.6185 65.9725 82.4683M67.0339 82.6576C66.6857 82.7309 66.2964 82.7111 65.9725 82.4683M65.9725 82.4683C65.8157 82.3507 65.6742 82.1809 65.5601 81.9441C65.5937 81.5657 65.755 80.4869 65.9848 79.0185M67.92 66.6183C68.4141 67.3132 69.7393 68.4522 71.0879 67.4497M67.92 66.6183C67.3837 70.3292 66.5072 75.6804 65.9848 79.0185M71.0879 67.4497C70.2617 71.1925 69.0696 76.4533 68.3477 79.6274M65.9848 79.0185C66.2124 79.5413 67.0036 80.395 68.3477 79.6274M70.323 59.7274C70.817 59.055 71.2676 58.4627 71.5547 58.0938L71.761 60.3851M70.323 59.7274C70.3561 60.1219 70.6899 60.8057 71.761 60.3851" stroke="black"/>
<path d="M39.9841 37.1897C37.2224 35.9602 33.9914 37.4025 32.7211 38.2773C39.015 37.8367 43.4898 42.2536 44.9405 44.5172L47.5104 45.8452L49.7481 48.9434L48.957 50.6165L49.8282 51.2896L51.3628 50.9704L51.8206 49.3974L53.9292 49.5438L53.6558 45.86C53.3768 45.0739 52.5656 43.1419 51.552 41.7025C50.2849 39.9034 44.7555 37.7055 39.9841 37.1897Z" fill="white" stroke="black"/>
<path d="M-6.98449 59.6184L13.6323 63.4578L21.3013 78.1885L12.456 81.9541L8.17508 81.523L1.50563 75.9627L-17.757 68.2516L-3.30444 89.688L-11.5389 89.9157L-18.1499 80.6428L-32.5002 68.1088L-32.2878 65.5599L-29.8631 59.0641L-6.98449 59.6184Z" fill="#3169F8" stroke="black"/>
<path d="M10.1463 74.3418C11.0531 74.2111 14.7366 72.5101 16.4651 71.676C16.3521 72.2138 19.7862 76.7493 21.5174 78.9498L15.7993 83.1137L7.35925 83.7458L-3.56619 88.4471L-4.40752 87.1991L-3.76338 87.0381L4.67872 78.4808L0.589916 75.4393L-17.6941 68.4385L-3.19974 89.291L-7.53876 89.2178L-18.3196 73.0968L-21.5616 70.6714L-22.604 67.59L-24.4866 62.4153L-19.5237 63.3561L-17.4476 64.613L2.69615 71.6449C4.80175 72.5983 9.23964 74.4724 10.1463 74.3418Z" fill="#284693" style="mix-blend-mode:darken"/>
<path d="M-18.5725 94.0511L-12.217 88.9201C-12.0231 90.1417 -10.9604 90.0901 -10.4533 89.9116L-10.2343 91.2468L-12.8379 92.75L-14.096 94.5265L-13.7429 95.9291L-16.6604 98.1543L-17.613 97.6125L-16.5061 95.4159L-18.5725 94.0511Z" fill="#284693" style="mix-blend-mode:darken"/>
<path d="M1.21538 106.303L-8.33947 101.912L-4.00729 99.8703L6.27761 104.43L1.21538 106.303Z" fill="#284693" style="mix-blend-mode:darken"/>
<path d="M19.8687 61.7021L23.9959 53.6927C26.7062 60.0589 25.2803 63.9188 23.885 65.2708C25.4044 66.6958 30.7347 70.44 31.9398 72.3526C32.9039 73.8826 32.952 75.7652 32.8555 76.5153L28.4178 78.0619L26.287 77.6843L24.1398 79.8831C23.6106 79.7801 22.3352 79.4266 21.4674 78.8368C20.5996 78.2469 17.4676 74.0016 16.0101 71.9527L13.811 63.4675L15.4701 62.0332L16.4213 62.3563L17.8266 61.03L18.9985 62.0726L19.8687 61.7021Z" fill="white" stroke="black"/>
<path d="M31.3428 21.7483C32.726 21.4836 34.0618 22.3903 34.3265 23.7734C34.5911 25.1566 33.6844 26.4924 32.3013 26.7571C30.9181 27.0218 29.5823 26.1151 29.3176 24.7319C29.053 23.3488 29.9597 22.0129 31.3428 21.7483ZM32.1998 26.2266C33.29 26.018 34.0046 24.9651 33.796 23.8749C33.5874 22.7848 32.5345 22.0701 31.4443 22.2787C30.3541 22.4873 29.6395 23.5402 29.8481 24.6304C30.0567 25.7206 31.1096 26.4353 32.1998 26.2266Z" fill="white"/>
<path d="M37.1983 20.6272C38.5814 20.3625 39.9173 21.2692 40.1819 22.6523C40.4466 24.0355 39.5399 25.3713 38.1568 25.636C36.7736 25.9007 35.4378 24.994 35.1731 23.6108C34.9084 22.2277 35.8151 20.8918 37.1983 20.6272ZM38.0432 25.0426C39.0987 24.8407 39.7906 23.8213 39.5886 22.7659C39.3866 21.7104 38.3673 21.0186 37.3118 21.2205C36.2564 21.4225 35.5645 22.4418 35.7665 23.4973C35.9684 24.5527 36.9878 25.2446 38.0432 25.0426Z" fill="white"/>
<path d="M34.8448 23.9299C36.2279 23.6652 37.5638 24.5719 37.8284 25.9551C38.0931 27.3382 37.1864 28.6741 35.8032 28.9387C34.4201 29.2034 33.0843 28.2967 32.8196 26.9136C32.5549 25.5304 33.4616 24.1946 34.8448 23.9299ZM35.683 28.3104C36.7191 28.1121 37.3984 27.1114 37.2001 26.0753C37.0018 25.0392 36.0011 24.36 34.965 24.5582C33.9289 24.7565 33.2497 25.7572 33.4479 26.7933C33.6462 27.8294 34.6469 28.5087 35.683 28.3104Z" fill="white"/>
<path d="M40.6377 22.8205C42.0209 22.5558 43.3567 23.4626 43.6214 24.8457C43.8861 26.2289 42.9794 27.5647 41.5962 27.8294C40.2131 28.094 38.8772 27.1873 38.6126 25.8042C38.3479 24.421 39.2546 23.0852 40.6377 22.8205ZM41.4736 27.1885C42.5028 26.9916 43.1775 25.9976 42.9805 24.9683C42.7836 23.9391 41.7896 23.2644 40.7604 23.4614C39.7312 23.6583 39.0565 24.6523 39.2534 25.6815C39.4504 26.7108 40.4444 27.3855 41.4736 27.1885Z" fill="white"/>
<path d="M42.9268 19.5315C44.31 19.2668 45.6458 20.1735 45.9105 21.5566C46.1751 22.9398 45.2684 24.2756 43.8853 24.5403C42.5021 24.805 41.1663 23.8983 40.9016 22.5151C40.6369 21.132 41.5437 19.7961 42.9268 19.5315ZM43.7652 23.913C44.8019 23.7146 45.4815 22.7134 45.2832 21.6767C45.0848 20.64 44.0835 19.9604 43.0468 20.1588C42.0101 20.3571 41.3305 21.3584 41.5289 22.3951C41.7273 23.4318 42.7285 24.1114 43.7652 23.913Z" fill="white"/>
<path d="M37.5487 51.0477C37.7674 49.7522 38.8893 49.4097 39.4229 49.4004C40.727 49.4657 41.3003 50.6941 41.246 51.1737C41.1916 51.6533 40.9029 53.1451 39.7083 53.2697C38.5136 53.3943 37.2752 52.667 37.5487 51.0477Z" fill="#D15555"/>
<path d="M39.0374 50.0583L39.2209 52.7387C38.9295 52.7966 38.3208 52.6583 38.2175 51.6422C38.1142 50.6262 38.721 50.1629 39.0374 50.0583Z" fill="#FFFA81"/>
<path d="M39.6776 50.0196L39.819 52.6272C40.1109 52.5366 40.6906 52.159 40.6737 51.3737C40.6568 50.5884 40.0026 50.1438 39.6776 50.0196Z" fill="#FFFA81"/>
<path d="M41.8916 64.3912C43.6476 63.7313 44.1259 62.3444 44.1456 61.7334C44.2612 61.1945 44.4185 59.9818 44.1225 59.4426C42.9006 59.7468 42.0338 59.0698 41.7531 58.6932C41.0687 58.5097 39.4733 58.1942 38.5671 58.4005C35.3901 63.1422 39.6965 65.216 41.8916 64.3912Z" fill="#FFFA81"/>
<path d="M38.8641 59.4044L39.1787 59.4361M39.4932 59.4677L39.1787 59.4361M39.1787 59.4361C38.8024 60.3621 38.6854 62.4307 41.2276 63.2976M44.1456 61.7334C44.1259 62.3444 43.6476 63.7313 41.8916 64.3912C39.6965 65.216 35.3901 63.1422 38.5671 58.4005C39.4733 58.1942 41.0687 58.5097 41.7531 58.6932C42.0338 59.0698 42.9006 59.7468 44.1225 59.4426C44.4185 59.9818 44.2612 61.1945 44.1456 61.7334ZM43.4533 60.3435C43.3496 60.9062 43.0329 62.1007 42.5957 62.378C42.0492 62.7246 41.6383 62.3655 41.6713 62.0042C41.6976 61.7151 41.886 61.4533 41.9769 61.3586C42.0809 61.424 42.3306 61.5208 42.497 61.3842C42.705 61.2134 42.7344 60.6018 42.4068 60.3555C42.5086 59.9375 43.4828 59.2422 43.4533 60.3435ZM41.3741 58.9233C41.3266 59.2526 41.118 60.0367 40.6628 60.5386C40.0938 61.166 39.5671 60.7141 39.7472 60.204C39.8913 59.7959 40.3898 59.0867 40.621 58.783L41.3741 58.9233Z" stroke="black"/>
<path d="M34.6251 38.0697C36.437 38.0572 40.4044 38.2185 41.7777 38.9639C43.4943 39.8957 50.225 41.7778 51.5285 44.2504M42.6909 40.5456C45.1898 41.1496 50.4924 43.1864 51.7118 46.5015C52.9311 49.8166 50.9193 51.0732 49.761 51.2871M49.6977 49.0289C50.288 48.4399 51.1089 46.9612 49.6698 45.7578M43.8793 57.536L45.6373 54.3502L49.4614 54.3132M48.056 63.3736C48.9089 61.4133 50.9212 57.7871 52.147 58.9649C53.6793 60.4371 52.242 59.3442 51.115 60.6151C50.2135 61.6318 49.3324 63.2569 49.0046 63.9423M16.3592 62.5087C16.4285 63.1109 16.545 63.8147 16.715 64.5844M26.1935 77.6085C25.7798 77.4668 25.3816 77.3009 24.9985 77.1135M14.1657 64.0456C14.508 63.8327 15.3626 63.4093 16.0422 63.419M14.3531 65.3991C14.8244 65.0666 15.9566 64.4383 16.715 64.5844M16.715 64.5844C16.8147 65.0358 16.9328 65.5098 17.0705 65.9992M17.0705 65.9992C16.7381 66.0627 15.3535 66.5568 14.7028 66.7959C12.8862 67.2291 9.14815 68.0804 8.72859 68.0199C8.30902 67.9594 7.40583 66.5616 7.00668 65.8702L7.36842 62.0563M17.0705 65.9992C17.1897 66.4229 17.3237 66.8581 17.4732 67.3002M14.9642 68.1981L17.4732 67.3002M17.4732 67.3002C17.5953 67.661 17.7276 68.0264 17.8709 68.3939M15.2295 69.3696L17.8709 68.3939M17.8709 68.3939C18.0337 68.8118 18.2106 69.2323 18.4021 69.6518M15.7664 70.9325L18.4021 69.6518M18.4021 69.6518C18.6235 70.1364 18.8643 70.6196 19.1258 71.0956M16.8147 72.7483L19.1258 71.0956M19.1258 71.0956C19.385 71.5675 19.6645 72.0323 19.9652 72.4844M18.0382 74.2344L19.9652 72.4844M19.9652 72.4844C20.2805 72.9583 20.6191 73.4183 20.9822 73.8578M18.9283 75.7761L20.9822 73.8578M20.9822 73.8578C21.3767 74.3353 21.8001 74.7886 22.2539 75.2095M20.2651 77.3796L22.2539 75.2095M22.2539 75.2095C22.6688 75.5942 23.109 75.9519 23.5758 76.2761M21.5389 79.1109L23.5758 76.2761M23.5758 76.2761C24.0251 76.5881 24.499 76.8691 24.9985 77.1135M23.6464 79.6756L24.9985 77.1135M19.8033 61.6259C19.7167 63.4845 20.319 67.6309 23.4201 69.3481M18.9617 62.1118C18.5929 64.1015 18.9125 68.9291 23.1416 72.3225M-21.2543 65.7634L-19.0314 64.48L-18.6587 66.0274M-21.2543 65.7634L-21.9347 63.7529L-24.4774 62.8178M-21.2543 65.7634L-21.0321 67.3976L-19.728 68.4072L-6.32127 88.2984L-11.4342 88.7394M-18.6587 66.0274L-18.2861 67.5747L-20.1309 66.8773M-18.6587 66.0274L2.09009 72.4791L5.78499 76.9363L9.83567 76.4593C10.466 77.181 11.9679 78.5428 12.9331 78.2164C13.2868 78.829 14.6617 79.823 15.305 80.2433L13.2621 81.4228L10.9229 78.3425M7.9244 80.6418L-4.63883 87.327M-11.658 89.6004L-15.9704 93.2318L-15.4483 94.1361L-18.2289 97.2288L-14.9873 97.1545M-5.19529 100.794L2.63187 103.806C1.04413 104.108 -2.47922 105.443 -3.87065 108.361" stroke="black"/>
<path d="M19.5005 71.7483L16.1219 72.0998C19.1792 77.3952 22.6686 79.7465 24.0311 80.2602L26.2187 77.846L28.481 78.3306L32.8147 76.532C32.7961 75.9459 32.6044 74.3511 31.9869 72.6612C31.3693 70.9712 28.8133 69.1213 27.6125 68.4076C26.6018 69.7586 24.2346 72.5707 22.8516 73.011C21.4686 73.4513 20.0413 72.3526 19.5005 71.7483Z" fill="#D9D9D9" style="mix-blend-mode:darken"/>
<path d="M41.6074 38.5704L39.7861 39.6219C41.2815 40.5297 43.9739 43.3703 45.1332 44.6772L47.8 45.7088L49.4391 48.5478L49.1636 50.4211L49.9987 51.8674L51.0164 51.2798L51.5537 49.6125L53.0023 49.2762C52.9133 48.2562 52.7091 46.1457 52.6035 45.8638C52.4715 45.5115 50.6053 41.6607 49.1131 40.8081C47.9194 40.1259 43.6119 39.0321 41.6074 38.5704Z" fill="#D9D9D9" style="mix-blend-mode:darken"/>
<path d="M41.9514 56.5135L34.6997 52.3887L37.9276 57.9796L41.2561 58.6483L43.8882 59.8681L46.4524 64.3095L49.0476 65.817L49.9245 69.2689L53.1567 70.6496L55.1283 75.2947L57.081 75.6893L55.6539 70.9327L55.8201 69.1119C54.3905 68.6859 51.4784 67.7427 51.2675 67.3774C51.0566 67.0121 50.5342 64.9357 50.2994 63.9431L51.8192 60.4638L50.8116 60.4368L47.3958 61.9015L47.77 60.265L46.2565 57.6435L48.1315 55.7948L44.2343 55.1955L41.9514 56.5135Z" fill="#D9D9D9" style="mix-blend-mode:darken"/>
<path d="M30.3088 10.7559C29.3901 24.0232 19.8009 30.312 15.1212 31.798C14.9125 31.5795 13.7827 27.9794 13.2439 26.2067L8.54387 21.2863L8.19965 18.8052C8.18444 18.014 8.49435 15.8711 9.85562 13.6294C11.8876 10.1197 15.0531 8.01105 16.3819 7.39543L24.8926 10.8324C26.6947 10.4615 30.3009 9.92687 30.3088 10.7559Z" fill="#272727" stroke="black"/>
<path opacity="0.2" d="M13.444 17.9143L19.0844 22.8873C20.1952 23.7959 22.5103 25.8635 22.8847 26.8658C21.8597 28.2334 18.1953 30.3738 16.4913 31.2731L14.2342 26.7917C12.846 25.3385 9.7757 22.2599 8.5992 21.5706C7.567 14.2192 13.8659 8.52626 15.9133 7.70377C17.1353 10.7456 14.7763 15.7782 13.444 17.9143Z" fill="#D9D9D9"/>
<path d="M8.94839 21.4704C9.4194 21.3358 10.4456 20.9863 10.7822 20.6649M16.176 8.17689C16.7891 9.9418 16.7072 14.7779 11.4752 20.003M17.2438 8.05607C17.8219 10.2963 17.5509 15.9981 11.8424 20.8829C11.1495 21.5449 9.88633 22.0888 9.34137 22.2781M9.86037 19.6998C10.5264 19.1583 11.9665 17.7921 12.3991 16.6595C12.9399 15.2437 14.1133 14.7379 14.1666 15.5864M13.7945 26.5437C17.1025 25.4978 23.8948 20.9943 24.6 11.3472M13.9852 27.7341C17.5375 26.944 24.8744 22.6144 25.8041 11.6168M14.2702 29.0237C18.2595 28.179 26.4865 23.4599 27.4806 11.3407M15.1508 30.7383C19.8903 28.8457 29.2786 22.2506 28.9164 11.0104" stroke="black" stroke-linejoin="round"/>
<path d="M20.9024 18.4447L21.4296 17.2462L21.9649 18.6383L22.3892 17.4881M21.7055 16.2872L22.7232 16.9539M23.5478 14.6114L22.4886 14.2475L23.7882 13.3378L22.7108 13.0766M22.0669 15.6603L22.9093 16.213L23.1787 15.1779L22.3211 14.9389L22.0669 15.6603Z" stroke="#878484" stroke-width="0.5" stroke-linejoin="round"/>
</g>
<defs>
<linearGradient id="paint0_linear_1588_2383" x1="46.0954" y1="37.1262" x2="45.4797" y2="17.4773" gradientUnits="userSpaceOnUse">
<stop stop-color="#E67B53"/>
<stop offset="1" stop-color="#FECB11"/>
</linearGradient>
<linearGradient id="paint1_linear_1588_2383" x1="57.6951" y1="82.3639" x2="76.8797" y2="73.1547" gradientUnits="userSpaceOnUse">
<stop stop-color="#E67B53"/>
<stop offset="1" stop-color="#FECB11"/>
</linearGradient>
</defs>
</svg>
