<svg width="66" height="65" viewBox="0 0 66 65" fill="none" xmlns="http://www.w3.org/2000/svg">
<circle cx="32.6777" cy="32.5" r="32.5" fill="#3169F8"/>
<mask id="mask0_1588_2087" style="mask-type:alpha" maskUnits="userSpaceOnUse" x="0" y="0" width="66" height="65">
<circle cx="32.6777" cy="32.5" r="32.5" fill="#D9D9D9"/>
</mask>
<g mask="url(#mask0_1588_2087)">
<path d="M35.1574 33.3582L33.8105 28.7068L37.4218 26.748" stroke="white"/>
<path d="M25.0871 30.0653L23.5742 25.4653L27.1128 23.3782" stroke="white"/>
<path d="M57.2833 62.8377L60.949 59.8542L64.2656 62.4672" stroke="white"/>
<path d="M1.08974 42.4387L-2.05436 40.2373L-0.71589 36.9676" stroke="white"/>
<path d="M49.0448 64.2577L51.9503 61.893L54.579 63.964" stroke="white"/>
<path d="M47.4921 58.1742L49.6338 55.1005L52.7313 56.3672" stroke="white"/>
<path d="M43.809 51.3527L45.3781 47.9508L48.6499 48.6544" stroke="white"/>
<path d="M37.9007 44.8682L38.2664 41.1398L41.5879 40.7306" stroke="white"/>
<path d="M27.4652 49.2682L26.709 46.6565L28.7367 45.5566" stroke="white"/>
<path d="M21.8089 47.4222L20.9594 44.8394L22.9463 43.6674" stroke="white"/>
<path d="M2.21886 53.0481L-0.310789 52.2456L-0.105185 49.8838" stroke="white"/>
<path d="M39.8876 65.8212L41.946 64.146L43.8082 65.6131" stroke="white"/>
<path d="M38.7853 61.5116L40.3025 59.3341L42.4968 60.2315" stroke="white"/>
<path d="M36.1768 56.6812L37.2883 54.2713L39.6061 54.7698" stroke="white"/>
<path d="M31.9918 52.0847L32.2509 49.4435L34.6039 49.1536" stroke="white"/>
<path d="M22.8854 58.7317L22.4805 57.3331L23.5663 56.7441" stroke="white"/>
<path d="M19.8589 57.7432L19.404 56.3601L20.468 55.7325" stroke="white"/>
<path d="M16.9524 57.6116L16.1303 56.4099L17.0424 55.4278" stroke="white"/>
<path d="M11.3469 59.3198L10.1542 58.4847L10.662 57.2443" stroke="white"/>
<path d="M9.36644 60.7574L8.0118 60.3277L8.1219 59.0629" stroke="white"/>
<path d="M7.76056 62.514L6.33996 62.4741L6.09738 61.2279" stroke="white"/>
<path d="M28.9498 65.2868L29.7623 64.1208L30.9374 64.6014" stroke="white"/>
<path d="M6.36252 65.1027L4.95695 65.3127L4.49947 64.1284" stroke="white"/>
<path d="M27.5528 62.7002L28.148 61.4097L29.3892 61.6766" stroke="white"/>
<path d="M25.3113 60.2406L25.45 58.8262L26.71 58.671" stroke="white"/>
<rect x="18.6074" y="15.0645" width="30.2088" height="18.4891" rx="5.5" fill="#2F2F2F" stroke="black"/>
<rect x="19.7109" y="16.3594" width="28.0499" height="15.0118" rx="5.5" fill="white" stroke="black"/>
<path d="M37.8407 35.7451C39.1932 35.8611 41.4313 36.8562 42.3812 37.3393L42.5128 38.8849L47.791 42.0731L52.9112 48.739V51.3957L54.0222 56.3227H55.1815L55.7128 62.1192L53.7807 67.9639L50.2545 68.5919L46.2936 66.4665L46.8732 70.7172L46.2936 71.9731V75.2578L23.5425 75.5959L22.7695 75.0163V80.4263L18.2772 79.7983L16.3448 77.9628L16.0066 75.0163L12.0938 71.4418L13.6875 66.1767L13.2045 64.6309C13.3655 64.2767 13.6875 63.5586 13.6875 63.52C13.6875 63.4813 15.9934 55.421 17.1463 51.3957L16.6535 49.7096L23.5425 40.0722L25.5932 38.8849L25.0885 37.9671L27.7449 35.7451L33.1069 36.4214C34.1213 36.1477 36.4882 35.6292 37.8407 35.7451Z" fill="white"/>
<path d="M36.7297 37.9671C36.1339 38.1281 34.5753 38.5371 33.1069 38.8849C31.6385 39.2327 28.9204 37.9994 27.7449 37.3393L33.5419 40.9619H34.7492C35.9729 40.3501 38.5362 38.8945 39 37.9671C39.4637 37.0397 37.6797 36.8078 36.7297 36.8078M35.5221 42.7975C35.7958 42.3467 36.7683 41.3968 38.4686 41.2035C40.1689 41.0102 41.9143 40.0603 42.5744 39.6095L42.5128 38.8849M34.0244 43.0391C33.1743 41.3775 29.1296 41.5417 27.2136 41.8316L25.5932 38.8849M42.5128 38.8849L42.3812 37.3393C41.4313 36.8562 39.1932 35.8611 37.8407 35.7451C36.4882 35.6292 34.1213 36.1477 33.1069 36.4214L27.7449 35.7451L25.0885 37.9671L25.5932 38.8849M42.5128 38.8849L47.791 42.0731L52.9112 48.739V51.3957L54.0222 56.3227H55.1815L55.7128 62.1191L53.7807 67.9639L50.2545 68.5919L46.2936 66.4665L46.8732 70.7172L46.2936 71.9731V75.2578L23.5425 75.5959L22.7695 75.0163M22.7695 75.0163V80.4263L18.2772 79.7983L16.3448 77.9628L16.0066 75.0163L12.0938 71.4418L13.6875 66.1767L13.2045 64.6309C13.3655 64.2767 13.6875 63.5586 13.6875 63.52C13.6875 63.4813 15.9934 55.421 17.1463 51.3957L16.6535 49.7096L23.5425 40.0722L25.5932 38.8849M22.7695 75.0163V71.9731L22.2333 67.047" stroke="black"/>
<path d="M34.2231 52.2623H36.4776V54.8496L37.1057 55.4039H40.5429L41.0973 54.5539L41.319 48.0119L40.5429 47.125H34.2231L33.373 48.0119V51.671L34.2231 52.2623Z" fill="#8343EC" stroke="black"/>
<path d="M45.6862 54.5458L44.711 56.8471L42.6437 62.0353L41.6295 62.4253L37.2999 60.7871L36.9492 59.89L39.5233 52.9471L40.3425 52.5566L45.1401 53.8829L45.6862 54.5458Z" fill="#303030" stroke="black"/>
<path d="M41.8251 63.4396L44.7113 64.2976L46.6617 62.542L46.3887 58.7975L45.1405 57.0426L40.733 55.4043L40.0308 56.1064V57.0426L43.4633 58.4858L43.7753 59.1878L43.2683 59.5389L38.9386 57.8226L38.3535 59.1878L40.733 60.5139H38.9386L38.5877 61.0213L39.5626 61.8403L39.8357 63.2054L41.8251 63.4396Z" fill="url(#paint0_linear_1588_2087)"/>
<path d="M39.5626 61.8403L39.8357 63.2054L41.8251 63.4396L44.7113 64.2976L46.6617 62.542L46.3887 58.7975M39.5626 61.8403H40.733M39.5626 61.8403L38.5877 61.0213L38.9386 60.5139H40.733L38.3535 59.1878L38.9386 57.8226L43.2683 59.5389L43.7753 59.1878L43.4633 58.4858L40.0308 57.0426V56.1064L40.733 55.4043L45.1405 57.0426L46.3887 58.7975M46.3887 58.7975L45.4135 59.9287V61.0213L42.9562 62.542" stroke="black"/>
<path d="M18.9497 77.3148L19.4518 79.7811H22.2634L22.8671 72.0171L22.2634 69.1686L28.1804 67.8806L42.5101 67.4781L30.676 64.8933L24.3967 67.4781L23.3502 64.8933L24.3967 62.5673V42.8438L22.2634 49.2356L21.0936 54.3196L17.8093 51.3051L20.3197 55.5765V57.9057L18.4016 60.463L19.7717 63.8428C19.2998 63.6448 18.3651 63.2031 18.4016 63.0205C18.4382 62.8378 16.7728 63.4926 15.9355 63.8428L19.4518 64.8933L16.4835 66.4459C17.473 67.1156 19.5158 68.4823 19.7717 68.5919C20.0276 68.7015 19.3303 69.8554 18.9497 70.4187L16.4835 69.5966L14.748 71.0582L18.9497 72.0171L16.9859 75.2141H19.7717L18.9497 77.3148Z" fill="#D9D9D9" style="mix-blend-mode:plus-darker"/>
<path d="M44.4422 70.4187L27.5364 72.0171L44.4422 72.7108L43.2346 75.2141H46.1328V72.0171V71.0582V66.4459L49.675 69.1686L53.7807 67.8806L55.7127 62.5673L54.9077 56.932L52.8146 49.2356L48.3869 42.8438L48.7894 51.3051L47.1793 52.9873L43.2346 47.03L45.4082 56.932L51.0435 53.8729L53.7807 57.9057L54.2637 60.463L50.3995 57.9057L52.0901 63.0205L50.3995 66.4459L47.9039 67.4781V65.707L48.7894 63.0205L45.0057 66.4459L43.2346 63.8428H41.7856V64.8933L44.4422 67.0755V70.4187Z" fill="#D9D9D9" style="mix-blend-mode:plus-darker"/>
<path d="M43.7177 41.7973L45.4082 40.3482H43.2346L42.5101 38.6578L41.7856 37.6914L40.6585 39.1408L35.3452 42.3609L33.8157 43.4075H38.6459L43.7177 41.7973Z" fill="#D9D9D9" style="mix-blend-mode:plus-darker"/>
<path d="M29.871 41.7973L25.7653 39.1408V41.7973H29.871Z" fill="#D9D9D9" style="mix-blend-mode:plus-darker"/>
<path d="M30.8034 36.3711L28.5366 37.1452L29.0685 38.3418L33.8157 41.3115L35.6284 40.6466C36.4558 39.8193 38.1106 38.0699 38.1106 37.6914V36.8791H34.808L30.8034 36.3711Z" fill="#D9D9D9" style="mix-blend-mode:plus-darker"/>
<path fill-rule="evenodd" clip-rule="evenodd" d="M30.7751 26.5156V25.2271C30.7751 24.4084 31.2113 23.7204 32.251 23.7204H34.8796C35.4935 23.7204 36.3414 23.372 36.3414 22.2832V19.8808C36.3414 19.3187 35.7714 18.4961 33.6918 18.4961C31.6122 18.4961 31.1115 19.1961 31.1115 19.6304V20.9282H33.7327V21.3051H29.9252C29.2351 21.3051 28.2812 22.0223 28.2812 23.7259C28.2812 25.4294 28.9015 26.5156 29.8513 26.5156H30.7751ZM32.2344 20.2793C32.5019 20.2793 32.7188 20.0625 32.7188 19.7949C32.7188 19.5274 32.5019 19.3105 32.2344 19.3105C31.9669 19.3105 31.75 19.5274 31.75 19.7949C31.75 20.0625 31.9669 20.2793 32.2344 20.2793Z" fill="url(#paint1_linear_1588_2087)"/>
<path fill-rule="evenodd" clip-rule="evenodd" d="M37.5706 21.211C37.0604 21.211 36.6468 21.6246 36.6468 22.1348L36.6468 22.4995C36.6468 23.3181 36.2106 24.0061 35.1709 24.0061L32.5423 24.0061C31.9283 24.0061 31.0805 24.3546 31.0805 25.4434L31.0805 27.8458C31.0805 28.4078 31.6505 29.2305 33.7301 29.2305C35.8096 29.2305 36.3104 28.5305 36.3104 28.0962C36.3104 27.3794 35.7293 26.7983 35.0126 26.7983L33.8777 26.7983C33.7736 26.7983 33.6892 26.714 33.6892 26.6099C33.6892 26.5058 33.7736 26.4214 33.8777 26.4214L37.4966 26.4214C38.1867 26.4214 39.1406 25.7042 39.1406 24.0007C39.1406 22.2971 38.5204 21.211 37.5706 21.211ZM35.1894 27.4453C34.9219 27.4453 34.705 27.6621 34.705 27.9297C34.705 28.1972 34.9219 28.4141 35.1894 28.4141C35.457 28.4141 35.6738 28.1972 35.6738 27.9297C35.6738 27.6621 35.457 27.4453 35.1894 27.4453Z" fill="url(#paint2_linear_1588_2087)"/>
<path d="M38.3759 50.1499L38.4944 52.8164C38.7511 52.8494 39.2882 52.8955 39.383 52.8164C39.4778 52.7373 39.4225 50.4135 39.383 49.2615L36.3416 49.143L36.1638 48.3926L34.9395 49.7551L36.3416 50.9796V50.1499H38.3759Z" fill="white"/>
<path d="M20.9941 17.8121V20.2912H22.2894V18.2561H24.1025V16.9609H21.5124L20.9941 17.8121Z" fill="#D9D9D9"/>
<path d="M46.7402 29.4282L46.7402 26.9491L45.445 26.9491L45.445 28.9842L43.6319 28.9842L43.6319 30.2793L46.222 30.2793L46.7402 29.4282Z" fill="#D9D9D9"/>
<path d="M45.8891 17.0723L43.41 17.0723L43.41 18.3675L45.4451 18.3675L45.4451 20.1806L46.7402 20.1806L46.7402 17.5905L45.8891 17.0723Z" fill="#D9D9D9"/>
<path d="M21.8453 30.1699L24.3244 30.1699L24.3244 28.8747L22.2893 28.8747L22.2893 27.0616L20.9941 27.0616L20.9941 29.6517L21.8453 30.1699Z" fill="#D9D9D9"/>
<path d="M37.7871 60.0523L40.3664 53.75M40.488 55.3039C40.4344 55.2648 40.3856 55.137 40.6198 54.9379C40.9125 54.6891 41.2052 55.1575 41.1028 55.2307M41.3662 53.9719C41.176 53.9085 40.7925 53.8811 40.7808 54.2793C40.7661 54.7769 41.9517 54.6305 41.3662 53.9719ZM42.0103 54.6891C41.8444 54.6208 41.5126 54.5749 41.5126 54.9379C41.5126 55.3917 42.5079 55.1717 42.0103 54.6891Z" stroke="black"/>
<rect x="49.4277" y="28.1836" width="1.29262" height="2.63484" fill="#2F2F2F" stroke="black"/>
<path d="M51.4258 29.4883C54.3091 29.6648 59.9972 30.449 59.4324 35.9569C58.7263 42.8417 52.3712 47.5198 52.3712 48.226" stroke="black" stroke-linejoin="round"/>
</g>
<defs>
<linearGradient id="paint0_linear_1588_2087" x1="45.126" y1="65.187" x2="44.4738" y2="54.468" gradientUnits="userSpaceOnUse">
<stop stop-color="#E67B53"/>
<stop offset="1" stop-color="#FECB11"/>
</linearGradient>
<linearGradient id="paint1_linear_1588_2087" x1="26.4018" y1="21.0912" x2="36.9047" y2="25.0034" gradientUnits="userSpaceOnUse">
<stop stop-color="#6023C3"/>
<stop offset="1" stop-color="#3169F8"/>
</linearGradient>
<linearGradient id="paint2_linear_1588_2087" x1="32.5703" y1="20.409" x2="33.1173" y2="30.0796" gradientUnits="userSpaceOnUse">
<stop stop-color="#E67B53"/>
<stop offset="1" stop-color="#FECB11"/>
</linearGradient>
</defs>
</svg>
