<svg width="20" height="21" viewBox="0 0 20 21" fill="none" xmlns="http://www.w3.org/2000/svg">
<path d="M9.09743 3.55829C9.09742 4.3713 9.45875 8.75256 9.63942 10.8416C9.82911 11.1126 10.1927 10.9545 10.3508 10.8416C10.5992 8.07504 11.0758 2.35231 10.9945 1.5935C10.8928 0.644977 9.63942 0.983736 9.09743 1.25474C8.55543 1.52575 9.09743 2.54202 9.09743 3.55829Z" fill="#595281"/>
<path d="M11.5913 1.93147C11.3924 4.02364 10.9945 8.27296 10.9945 8.53296C12.5121 6.95673 14.6924 7.0637 15.5929 7.31422C15.3085 5.79757 14.5041 2.63834 13.5616 2.1346C12.6191 1.63085 11.8554 1.78929 11.5913 1.93147Z" fill="#595281"/>
<path d="M4.5633 7.65953C6.98046 6.56267 8.42263 8.22827 8.56481 8.30952C8.56481 7.95203 8.37524 4.04395 8.28045 2.1346C8.16535 1.95423 7.76857 1.66109 7.10233 1.93147C5.22116 2.52529 3.91331 6.80641 4.5633 7.65953Z" fill="#595281"/>
<path d="M6.0347 7.92165C7.75769 7.88095 8.74241 9.14831 9.0194 9.78709L9.18676 10.4953C8.97944 10.2018 8.23295 9.58675 6.9055 9.47469C5.24619 9.33461 3.94387 10.6153 3.16344 11.6559C2.38301 12.6965 1.04227 16.9388 0.82215 17.5992C0.646052 18.1275 0.535311 17.7392 0.501953 17.4791C0.608679 17.0055 0.926189 15.6901 1.34242 14.2173C2.50306 10.2351 3.88096 7.97252 6.0347 7.92165Z" fill="#595281"/>
<path d="M14.9299 7.79377C12.5766 7.38116 11.1879 8.95073 10.7876 9.78709L10.6075 10.4953C11.6014 9.72816 13.9454 8.45013 15.3702 9.47469C17.1511 10.7554 19.0322 17.0189 19.2923 18.0194C19.5004 18.8198 19.6725 18.1395 19.7326 17.6992C19.1122 14.5693 17.2832 8.20637 14.9299 7.79377Z" fill="#595281"/>
<path d="M6.19478 10.3642C7.29677 10.1068 8.17303 10.5752 8.47341 10.8416C8.67677 10.9865 8.55815 11.0987 8.47341 11.1366C8.24169 11.0383 7.60369 10.8053 6.9055 10.6603C6.03277 10.4791 5.31938 11.1238 5.07478 11.5357C4.8791 11.8653 5.15631 12.5656 5.31938 12.8746C5.18635 12.8789 4.87653 12.7716 4.70145 12.3081C4.48259 11.7288 4.81731 10.6861 6.19478 10.3642Z" fill="#595281"/>
<path d="M14.2128 9.91267C12.5053 9.46111 11.3233 10.8416 11.2065 10.8416C11.0108 10.9865 11.125 11.1486 11.2065 11.2115C11.2843 11.1142 11.6414 10.8086 12.447 10.3642C13.4539 9.80883 14.7236 10.3642 14.9299 10.9196C15.1363 11.475 15.1614 12.2039 14.9299 12.5103C14.6985 12.8168 15.3702 12.5687 15.5929 12.3081C15.8155 12.0476 15.9203 10.3642 14.2128 9.91267Z" fill="#595281"/>
<path d="M14.6944 11.2115C14.4589 10.6424 13.5269 10.4953 13.3664 10.4953C13.2837 10.5832 13.1971 10.7756 13.5123 10.8416C13.9063 10.924 13.9793 11.1366 14.2128 11.5357C14.4463 11.9348 14.315 12.0725 14.5193 12.0725C14.7236 12.0725 14.9299 11.7807 14.6944 11.2115Z" fill="#595281"/>
<path d="M5.31938 11.9412C5.51506 11.1239 6.18315 10.9196 6.49274 10.9196C6.63032 10.9196 6.8463 10.963 6.60949 11.1366C6.31347 11.3537 6.0347 11.5357 5.95277 11.9412C5.87084 12.3467 5.07478 12.9628 5.31938 11.9412Z" fill="#595281"/>
<path d="M8.79854 11.9412C8.72557 11.5742 8.01048 11.372 7.87914 11.372C7.87914 11.5326 7.98129 12.5833 7.45592 12.7293C6.93055 12.8752 6.9055 12.5103 6.60949 12.7293C6.31347 12.9482 6.74083 13.2546 7.71861 13.1817C8.69638 13.1087 8.87151 12.3081 8.79854 11.9412Z" fill="#595281"/>
<path d="M11.2065 12.0725C11.2941 11.4158 11.9654 11.5357 12.1551 11.5357C11.9508 11.6709 11.6064 11.9821 11.8632 12.1455C12.1201 12.309 12.5832 12.0774 12.7826 11.9412C12.5734 12.1309 12.1551 12.5366 12.1551 12.6417C12.1551 12.773 12.6805 12.8746 12.8848 12.7293C13.0891 12.5839 13.5123 12.6271 13.5123 12.8746C13.5123 13.1221 12.5491 13.2692 12.2864 13.1817C12.0237 13.0941 11.1189 12.7293 11.2065 12.0725Z" fill="#595281"/>
<path d="M9.8201 11.2115C10.1849 11.051 10.3508 11.5357 10.4476 11.5357L9.3531 11.6559C9.38715 11.5613 9.52823 11.3399 9.8201 11.2115Z" fill="#595281"/>
<path d="M10.0244 11.8099C9.68584 11.8099 9.48444 12.0336 9.42607 12.1455H10.4476C10.4476 12.0336 10.363 11.8099 10.0244 11.8099Z" fill="#595281"/>
<path d="M10.0244 12.3081C9.68584 12.3081 9.48444 12.5305 9.42607 12.6417C9.67124 12.5716 10.1447 12.6709 10.3508 12.7293C10.3831 12.5889 10.363 12.3081 10.0244 12.3081Z" fill="#595281"/>
<path d="M10.0244 12.8746C9.69801 12.8746 9.3531 13.1817 9.3531 13.2838C9.62006 13.1671 10.194 13.2352 10.4476 13.2838C10.4154 13.1474 10.2855 12.8746 10.0244 12.8746Z" fill="#595281"/>
<path d="M9.42607 14.6994C9.42607 14.4659 9.7374 14.2807 9.89307 14.2173C10.0779 14.2173 10.4796 14.2787 10.6075 14.5243C10.7355 14.7699 10.3888 15.0255 10.1995 15.1226C9.94171 15.0788 9.42607 14.9329 9.42607 14.6994Z" fill="#595281"/>
<path d="M14.3441 13.7654C13.5561 13.6195 12.447 14.1157 12.374 14.2173C13.848 14.0417 14.7966 14.6118 15.5929 14.2173C16.3892 13.8228 16.3581 12.7293 16.5478 12.3081C16.7375 11.887 16.3581 11.8099 16.3581 12.0725C16.1538 13.6498 15.1322 13.9113 14.3441 13.7654Z" fill="#595281"/>
<path d="M5.07478 13.7654H6.9055C6.99655 13.8335 7.12401 13.9756 6.9055 13.9989C6.63236 14.0281 5.15012 14.5243 4.70145 14.2173C4.25277 13.9103 3.73453 13.1817 3.53021 12.5103C3.3259 11.839 3.60318 11.372 3.73453 11.9412C3.86587 12.5103 4.43502 13.7654 5.07478 13.7654Z" fill="#595281"/>
<path d="M13.5123 18.9252C13.2797 18.5441 11.6524 16.4148 10.8679 15.3978C10.7649 15.1532 10.9838 14.87 11.2065 15.0374C11.4292 15.2047 13.8675 18.8093 14.2128 19.2342C14.5582 19.659 13.8031 19.4015 13.5123 18.9252Z" fill="#595281"/>
<path d="M6.49088 19.0153C6.74835 18.5647 8.93686 15.3978 9.03985 15.3077C9.20661 15.0884 9.03985 14.6994 8.79854 15.0374C8.55723 15.3753 6.32352 18.4875 5.95277 19.0153C5.58202 19.5431 6.23341 19.4659 6.49088 19.0153Z" fill="#595281"/>
<path d="M8.73089 19.2342V16.3247C8.73089 15.9437 9.25441 15.7454 9.51618 15.6939C9.48614 16.6594 9.44409 18.6986 9.51618 19.1312C9.58826 19.5637 10.1026 19.5517 10.3508 19.4916V16.3247C10.3508 15.6759 10.6955 15.7969 10.8679 15.9385V19.0153C10.8679 19.6847 11.5631 19.4015 11.5631 19.1312C11.5631 18.9149 11.6146 17.7108 11.6403 17.1358C11.7476 17.3236 11.9725 17.6992 12.0137 17.6992C12.0652 17.6992 12.2864 18.7578 12.1551 19.2342C12.0237 19.7105 12.5157 19.4916 12.6445 19.2342C12.7475 19.0282 12.7795 18.7879 12.7826 18.6935L13.61 19.6204H12.8848L11.7562 19.8778L10.8679 19.6204C10.6104 19.6676 10.0813 19.762 10.0244 19.762C9.96755 19.762 9.49883 19.5817 9.27158 19.4916C9.19434 19.6204 8.99159 19.8778 8.79854 19.8778C8.60549 19.8778 8.09798 19.7062 7.86835 19.6204C7.67096 19.7019 7.25557 19.8675 7.17318 19.8778C7.09079 19.8881 6.76305 19.7105 6.60949 19.6204L6.7741 19.2342L6.9055 19.4916H7.45592L7.54651 18.2815L8.16445 17.3546V19.2342C8.16445 19.6461 8.73089 19.5174 8.73089 19.2342Z" fill="#595281"/>
<path d="M11.2065 20.1353C12.0121 20.1456 12.9642 19.9679 13.3396 19.8778C13.5788 19.8254 13.7001 20.1353 13.61 20.1997C13.5199 20.264 12.5415 20.4571 12.0137 20.4571C11.4858 20.4571 7.86835 20.5086 7.25042 20.4571C6.63249 20.4057 6.49088 20.3413 6.49088 20.1997C6.49088 20.0581 6.7741 20.1353 7.25042 20.1353C7.72674 20.1353 10.1995 20.1224 11.2065 20.1353Z" fill="#595281"/>
<path d="M13.8288 19.8778C13.8288 19.7542 13.9747 19.6547 14.0477 19.6204C14.2665 19.6204 14.5193 19.762 14.5884 19.9808C14.6575 20.1997 14.3441 20.1997 14.0992 20.1997C13.8542 20.1997 13.8288 20.0323 13.8288 19.8778Z" fill="#595281"/>
<path d="M5.31938 19.8778C5.31938 19.6204 5.67984 19.6204 5.82145 19.6204C5.94912 19.6171 6.0918 19.6204 6.22053 19.8778C6.34927 20.1353 5.95277 20.3027 5.82145 20.3027C5.69013 20.3027 5.31938 20.1353 5.31938 19.8778Z" fill="#595281"/>
<path d="M8.56353 14.6125L6.69686 17.5091L5.56398 18.4231L4.81731 14.9344L6.9055 14.2907L8.56353 14.6125Z" fill="#595281"/>
<path d="M11.7562 15.0374C12.5751 16.0544 14.2128 18.1038 14.2128 18.1656L15.0647 15.3978L14.5884 14.6994L13.3396 14.4323L12.0137 14.6125L11.7562 15.0374Z" fill="#595281"/>
</svg>
