<svg width="1870" height="830" viewBox="0 0 1870 830" fill="none" xmlns="http://www.w3.org/2000/svg">
<g filter="url(#filter0_f_2015_931)">
<path d="M1636.68 425.475C1538.74 590.499 878.138 158.479 560.078 -78.1585L288 -23C306.836 365.748 1175.52 599.668 1649.03 658.147L1636.68 425.475Z" fill="#1329ED" fill-opacity="0.6"/>
</g>
<g filter="url(#filter1_f_2015_931)">
<path d="M615.582 130C501.622 385.353 237.711 436.43 120 430.049V834.901L1259 855C831.89 692.294 652.092 303.872 615.582 130Z" fill="url(#paint0_radial_2015_931)" fill-opacity="0.8"/>
</g>
<g filter="url(#filter2_f_2015_931)">
<path d="M1270.62 474.956C635.335 185.823 649.468 567.955 735.946 795.163L1477.5 884.5L1637 750.5C1612.43 629.336 1387.42 521.852 1270.62 474.956Z" fill="url(#paint1_radial_2015_931)" fill-opacity="0.8"/>
</g>
<defs>
<filter id="filter0_f_2015_931" x="68" y="-298.159" width="1801.03" height="1176.31" filterUnits="userSpaceOnUse" color-interpolation-filters="sRGB">
<feFlood flood-opacity="0" result="BackgroundImageFix"/>
<feBlend mode="normal" in="SourceGraphic" in2="BackgroundImageFix" result="shape"/>
<feGaussianBlur stdDeviation="110" result="effect1_foregroundBlur_2015_931"/>
</filter>
<filter id="filter1_f_2015_931" x="0" y="10" width="1379" height="965" filterUnits="userSpaceOnUse" color-interpolation-filters="sRGB">
<feFlood flood-opacity="0" result="BackgroundImageFix"/>
<feBlend mode="normal" in="SourceGraphic" in2="BackgroundImageFix" result="shape"/>
<feGaussianBlur stdDeviation="60" result="effect1_foregroundBlur_2015_931"/>
</filter>
<filter id="filter2_f_2015_931" x="552.986" y="231.016" width="1224.01" height="793.484" filterUnits="userSpaceOnUse" color-interpolation-filters="sRGB">
<feFlood flood-opacity="0" result="BackgroundImageFix"/>
<feBlend mode="normal" in="SourceGraphic" in2="BackgroundImageFix" result="shape"/>
<feGaussianBlur stdDeviation="70" result="effect1_foregroundBlur_2015_931"/>
</filter>
<radialGradient id="paint0_radial_2015_931" cx="0" cy="0" r="1" gradientUnits="userSpaceOnUse" gradientTransform="translate(507.643 218.5) rotate(69.1403) scale(697.198 588.438)">
<stop stop-color="#B2DAFF"/>
<stop offset="0.523849" stop-color="#2094FF"/>
<stop offset="0.994169" stop-color="#002C55"/>
</radialGradient>
<radialGradient id="paint1_radial_2015_931" cx="0" cy="0" r="1" gradientUnits="userSpaceOnUse" gradientTransform="translate(1170.14 669.376) rotate(123.956) scale(607.167 2488.03)">
<stop stop-color="#1CC9FF"/>
<stop offset="0.0001" stop-color="#1CC9FF"/>
<stop offset="0.605" stop-color="#0037C6"/>
</radialGradient>
</defs>
</svg>
