<svg width="284" height="59" viewBox="0 0 284 59" fill="none" xmlns="http://www.w3.org/2000/svg">
<path d="M78.5994 28.0497H89.7204V32.2077H78.5994V28.0497ZM78.9954 37.5537H91.5684V41.8438H73.6824V18.7437H91.1394V23.0337H78.9954V37.5537ZM95.822 41.8438V18.7437H100.244L113.873 35.3757H111.728V18.7437H117.008V41.8438H112.619L98.957 25.2117H101.102V41.8438H95.822ZM127.258 41.8438V23.0997H119.866V18.7437H139.996V23.0997H132.604V41.8438H127.258ZM147.79 28.0497H158.911V32.2077H147.79V28.0497ZM148.186 37.5537H160.759V41.8438H142.873V18.7437H160.33V23.0337H148.186V37.5537ZM165.012 41.8438V18.7437H175.011C177.079 18.7437 178.861 19.0847 180.357 19.7667C181.853 20.4267 183.008 21.3837 183.822 22.6377C184.636 23.8917 185.043 25.3877 185.043 27.1257C185.043 28.8417 184.636 30.3267 183.822 31.5807C183.008 32.8127 181.853 33.7587 180.357 34.4187C178.861 35.0787 177.079 35.4087 175.011 35.4087H167.982L170.358 33.0657V41.8438H165.012ZM179.697 41.8438L173.922 33.4617H179.631L185.472 41.8438H179.697ZM170.358 33.6597L167.982 31.1517H174.714C176.364 31.1517 177.596 30.7997 178.41 30.0957C179.224 29.3697 179.631 28.3797 179.631 27.1257C179.631 25.8497 179.224 24.8597 178.41 24.1557C177.596 23.4517 176.364 23.0997 174.714 23.0997H167.982L170.358 20.5587V33.6597ZM197.14 41.8438V38.3787L211.429 21.1527L212.089 23.0997H197.404V18.7437H216.841V22.2087L202.585 39.4347L201.925 37.4878H217.336V41.8438H197.14ZM220.764 41.8438V18.7437H226.11V41.8438H220.764ZM242.813 42.2398C240.987 42.2398 239.293 41.9427 237.731 41.3487C236.191 40.7547 234.849 39.9187 233.705 38.8407C232.583 37.7627 231.703 36.4977 231.065 35.0457C230.449 33.5937 230.141 32.0097 230.141 30.2937C230.141 28.5777 230.449 26.9937 231.065 25.5417C231.703 24.0897 232.594 22.8247 233.738 21.7467C234.882 20.6687 236.224 19.8327 237.764 19.2387C239.304 18.6447 240.976 18.3477 242.78 18.3477C244.606 18.3477 246.278 18.6447 247.796 19.2387C249.336 19.8327 250.667 20.6687 251.789 21.7467C252.933 22.8247 253.824 24.0897 254.462 25.5417C255.1 26.9717 255.419 28.5557 255.419 30.2937C255.419 32.0097 255.1 33.6047 254.462 35.0787C253.824 36.5307 252.933 37.7957 251.789 38.8737C250.667 39.9297 249.336 40.7547 247.796 41.3487C246.278 41.9427 244.617 42.2398 242.813 42.2398ZM242.78 37.6857C243.814 37.6857 244.76 37.5097 245.618 37.1577C246.498 36.8057 247.268 36.2997 247.928 35.6397C248.588 34.9797 249.094 34.1987 249.446 33.2967C249.82 32.3947 250.007 31.3937 250.007 30.2937C250.007 29.1937 249.82 28.1927 249.446 27.2907C249.094 26.3887 248.588 25.6077 247.928 24.9477C247.29 24.2877 246.531 23.7817 245.651 23.4297C244.771 23.0777 243.814 22.9017 242.78 22.9017C241.746 22.9017 240.789 23.0777 239.909 23.4297C239.051 23.7817 238.292 24.2877 237.632 24.9477C236.972 25.6077 236.455 26.3887 236.081 27.2907C235.729 28.1927 235.553 29.1937 235.553 30.2937C235.553 31.3717 235.729 32.3727 236.081 33.2967C236.455 34.1987 236.961 34.9797 237.599 35.6397C238.259 36.2997 239.029 36.8057 239.909 37.1577C240.789 37.5097 241.746 37.6857 242.78 37.6857ZM259.436 41.8438V18.7437H263.858L277.487 35.3757H275.342V18.7437H280.622V41.8438H276.233L262.571 25.2117H264.716V41.8438H259.436Z" fill="white"/>
<circle cx="28.876" cy="29.5107" r="26.876" stroke="white" stroke-width="4"/>
<rect x="10.8125" y="17.3613" width="3.48535" height="24.7969" fill="white"/>
<rect x="26.3965" y="19.0898" width="21.0801" height="21.0693" rx="4" stroke="white" stroke-width="4"/>
</svg>
