<svg width="140" height="28" viewBox="0 0 140 28" fill="none" xmlns="http://www.w3.org/2000/svg">
<path d="M36.9258 27.3336C35.0856 27.3336 33.6158 26.8459 32.5165 25.8704C31.441 24.895 30.9033 23.6147 30.9033 22.0296C30.9033 20.6639 31.214 19.5665 31.8354 18.7374C32.4567 17.9082 33.3171 17.2742 34.4164 16.8352C35.5158 16.3963 36.9497 16.0183 38.7182 15.7013C39.0528 15.6281 39.3754 15.5671 39.6861 15.5184C40.5943 15.3233 41.2873 15.1404 41.7653 14.9697C42.2672 14.7746 42.6376 14.5185 42.8766 14.2015C43.1395 13.8845 43.2709 13.4577 43.2709 12.9212C43.2709 12.0921 42.9841 11.4336 42.4106 10.9459C41.837 10.4338 40.8571 10.1777 39.471 10.1777C38.3239 10.1777 37.4157 10.2997 36.7466 10.5435C36.1013 10.7874 35.6353 11.1898 35.3485 11.7507C35.0617 12.2872 34.8825 13.0188 34.8108 13.9454H31.7995C31.8951 12.0189 32.5762 10.4826 33.8429 9.33639C35.1095 8.19023 37.0214 7.61714 39.5786 7.61714C41.4905 7.61714 43.0439 8.09268 44.2388 9.04375C45.4577 9.99483 46.0671 11.5312 46.0671 13.6528V22.6148C46.0671 23.3708 46.1388 23.9317 46.2822 24.2975C46.4256 24.6389 46.6645 24.8096 46.9991 24.8096C47.1425 24.7852 47.2859 24.773 47.4293 24.773V26.8215C46.9035 26.9434 46.4375 27.0044 46.0312 27.0044C45.1948 27.0044 44.5495 26.7971 44.0954 26.3825C43.6652 25.9436 43.4024 25.1754 43.3068 24.078H43.2351C42.6137 25.1266 41.7772 25.9314 40.7257 26.4923C39.6742 27.0532 38.4075 27.3336 36.9258 27.3336ZM37.2126 24.773C38.3836 24.773 39.4232 24.5901 40.3314 24.2243C41.2634 23.8585 41.9804 23.2855 42.4823 22.5051C43.008 21.7247 43.2709 20.7615 43.2709 19.6153V16.6523C43.0319 16.9206 42.5301 17.1766 41.7653 17.4205C41.0244 17.6644 40.0924 17.896 38.9691 18.1155C37.7264 18.3594 36.7466 18.6398 36.0296 18.9569C35.3126 19.2739 34.7749 19.6641 34.4164 20.1274C34.0819 20.5908 33.9146 21.176 33.9146 21.8832C33.9146 22.8343 34.1774 23.5537 34.7032 24.0414C35.229 24.5292 36.0654 24.773 37.2126 24.773Z" fill="white"/>
<path d="M49.1315 0.666992H51.9994V26.8215H49.1315V0.666992Z" fill="white"/>
<path d="M54.7342 8.16584H57.602V26.8215H54.7342V8.16584ZM54.4474 1.03279H57.8888V4.54444H54.4474V1.03279Z" fill="white"/>
<path d="M60.3369 8.16584H63.2047V17.5668L62.0217 17.4571L71.7366 8.16584H75.178L62.1651 20.3835L63.2047 17.896V26.8215H60.3369V8.16584ZM65.5707 16.0305L67.5782 14.3478L75.9308 26.8215H72.5252L65.5707 16.0305Z" fill="white"/>
<path d="M80.7263 27.3336C78.8861 27.3336 77.4163 26.8459 76.317 25.8704C75.2416 24.895 74.7038 23.6147 74.7038 22.0296C74.7038 20.6639 75.0145 19.5665 75.6359 18.7374C76.2572 17.9082 77.1176 17.2742 78.2169 16.8352C79.3163 16.3963 80.7502 16.0183 82.5187 15.7013C82.8533 15.6281 83.1759 15.5671 83.4866 15.5184C84.3948 15.3233 85.0878 15.1404 85.5658 14.9697C86.0677 14.7746 86.4381 14.5185 86.6771 14.2015C86.94 13.8845 87.0714 13.4577 87.0714 12.9212C87.0714 12.0921 86.7846 11.4336 86.2111 10.9459C85.6375 10.4338 84.6577 10.1777 83.2715 10.1777C82.1244 10.1777 81.2162 10.2997 80.5471 10.5435C79.9018 10.7874 79.4358 11.1898 79.149 11.7507C78.8622 12.2872 78.683 13.0188 78.6113 13.9454H75.6C75.6956 12.0189 76.3767 10.4826 77.6434 9.33639C78.91 8.19023 80.8219 7.61714 83.3791 7.61714C85.291 7.61714 86.8444 8.09268 88.0393 9.04375C89.2582 9.99483 89.8676 11.5312 89.8676 13.6528V22.6148C89.8676 23.3708 89.9393 23.9317 90.0827 24.2975C90.2261 24.6389 90.4651 24.8096 90.7996 24.8096C90.943 24.7852 91.0864 24.773 91.2298 24.773V26.8215C90.704 26.9434 90.238 27.0044 89.8317 27.0044C88.9953 27.0044 88.35 26.7971 87.8959 26.3825C87.4658 25.9436 87.2029 25.1754 87.1073 24.078H87.0356C86.4142 25.1266 85.5778 25.9314 84.5262 26.4923C83.4747 27.0532 82.208 27.3336 80.7263 27.3336ZM81.0131 24.773C82.1841 24.773 83.2237 24.5901 84.1319 24.2243C85.0639 23.8585 85.7809 23.2855 86.2828 22.5051C86.8085 21.7247 87.0714 20.7615 87.0714 19.6153V16.6523C86.8324 16.9206 86.3306 17.1766 85.5658 17.4205C84.8249 17.6644 83.8929 17.896 82.7697 18.1155C81.5269 18.3594 80.5471 18.6398 79.8301 18.9569C79.1131 19.2739 78.5754 19.6641 78.2169 20.1274C77.8824 20.5908 77.7151 21.176 77.7151 21.8832C77.7151 22.8343 77.978 23.5537 78.5037 24.0414C79.0295 24.5292 79.866 24.773 81.0131 24.773Z" fill="white"/>
<path d="M99.8507 27.3336C98.13 27.3336 96.6602 27.0532 95.4414 26.4923C94.2226 25.907 93.2905 25.1023 92.6452 24.078C92.0239 23.0538 91.6893 21.8954 91.6415 20.603H94.6527C94.7005 21.4077 94.9037 22.1271 95.2622 22.7612C95.6206 23.3708 96.1703 23.8585 96.9112 24.2243C97.6759 24.5901 98.6558 24.773 99.8507 24.773C101.452 24.773 102.575 24.4804 103.22 23.8951C103.866 23.2855 104.188 22.5539 104.188 21.7003C104.188 20.9931 103.997 20.4322 103.615 20.0177C103.232 19.6031 102.766 19.2983 102.217 19.1032C101.691 18.9081 100.962 18.713 100.03 18.5179C99.791 18.4691 99.552 18.4204 99.313 18.3716C99.1696 18.3228 99.0143 18.2862 98.847 18.2618C97.5086 17.9448 96.3974 17.6156 95.5131 17.2742C94.6288 16.9084 93.876 16.3719 93.2547 15.6647C92.6572 14.9575 92.3585 14.0308 92.3585 12.8846C92.3585 11.836 92.6213 10.9215 93.1471 10.1411C93.6729 9.33639 94.4376 8.72673 95.4414 8.31216C96.4451 7.8732 97.6401 7.65372 99.0262 7.65372C100.556 7.65372 101.858 7.90978 102.934 8.4219C104.033 8.93401 104.869 9.64122 105.443 10.5435C106.04 11.4214 106.387 12.4091 106.483 13.5065H103.471C103.28 12.5554 102.874 11.775 102.253 11.1654C101.631 10.5313 100.568 10.2143 99.0621 10.2143C97.8193 10.2143 96.8873 10.446 96.2659 10.9093C95.6684 11.3727 95.3697 11.9945 95.3697 12.7749C95.3697 13.3602 95.537 13.8357 95.8716 14.2015C96.2301 14.5429 96.6722 14.8112 97.198 15.0062C97.7237 15.177 98.4526 15.3599 99.3847 15.5549C99.5759 15.5793 99.8627 15.6403 100.245 15.7378C101.679 16.0793 102.862 16.4329 103.794 16.7987C104.75 17.1645 105.551 17.7375 106.196 18.5179C106.865 19.2739 107.2 20.2981 107.2 21.5906C107.2 22.7612 106.913 23.7854 106.339 24.6633C105.766 25.5168 104.917 26.1753 103.794 26.6386C102.695 27.102 101.38 27.3336 99.8507 27.3336Z" fill="white"/>
<path d="M115.606 27.3336C113.885 27.3336 112.415 27.0532 111.196 26.4923C109.978 25.907 109.045 25.1023 108.4 24.078C107.779 23.0538 107.444 21.8954 107.396 20.603H110.408C110.456 21.4077 110.659 22.1271 111.017 22.7612C111.376 23.3708 111.925 23.8585 112.666 24.2243C113.431 24.5901 114.411 24.773 115.606 24.773C117.207 24.773 118.33 24.4804 118.975 23.8951C119.621 23.2855 119.943 22.5539 119.943 21.7003C119.943 20.9931 119.752 20.4322 119.37 20.0177C118.987 19.6031 118.521 19.2983 117.972 19.1032C117.446 18.9081 116.717 18.713 115.785 18.5179C115.546 18.4691 115.307 18.4204 115.068 18.3716C114.925 18.3228 114.769 18.2862 114.602 18.2618C113.264 17.9448 112.152 17.6156 111.268 17.2742C110.384 16.9084 109.631 16.3719 109.01 15.6647C108.412 14.9575 108.113 14.0308 108.113 12.8846C108.113 11.836 108.376 10.9215 108.902 10.1411C109.428 9.33639 110.193 8.72673 111.196 8.31216C112.2 7.8732 113.395 7.65372 114.781 7.65372C116.311 7.65372 117.613 7.90978 118.689 8.4219C119.788 8.93401 120.624 9.64122 121.198 10.5435C121.795 11.4214 122.142 12.4091 122.238 13.5065H119.226C119.035 12.5554 118.629 11.775 118.008 11.1654C117.386 10.5313 116.323 10.2143 114.817 10.2143C113.574 10.2143 112.642 10.446 112.021 10.9093C111.423 11.3727 111.125 11.9945 111.125 12.7749C111.125 13.3602 111.292 13.8357 111.627 14.2015C111.985 14.5429 112.427 14.8112 112.953 15.0062C113.479 15.177 114.208 15.3599 115.14 15.5549C115.331 15.5793 115.618 15.6403 116 15.7378C117.434 16.0793 118.617 16.4329 119.549 16.7987C120.505 17.1645 121.306 17.7375 121.951 18.5179C122.62 19.2739 122.955 20.2981 122.955 21.5906C122.955 22.7612 122.668 23.7854 122.094 24.6633C121.521 25.5168 120.672 26.1753 119.549 26.6386C118.45 27.102 117.135 27.3336 115.606 27.3336Z" fill="white"/>
<path d="M129.497 27.3336C127.656 27.3336 126.187 26.8459 125.087 25.8704C124.012 24.895 123.474 23.6147 123.474 22.0296C123.474 20.6639 123.785 19.5665 124.406 18.7374C125.027 17.9082 125.888 17.2742 126.987 16.8352C128.087 16.3963 129.52 16.0183 131.289 15.7013C131.624 15.6281 131.946 15.5671 132.257 15.5184C133.165 15.3233 133.858 15.1404 134.336 14.9697C134.838 14.7746 135.208 14.5185 135.447 14.2015C135.71 13.8845 135.842 13.4577 135.842 12.9212C135.842 12.0921 135.555 11.4336 134.981 10.9459C134.408 10.4338 133.428 10.1777 132.042 10.1777C130.895 10.1777 129.986 10.2997 129.317 10.5435C128.672 10.7874 128.206 11.1898 127.919 11.7507C127.632 12.2872 127.453 13.0188 127.382 13.9454H124.37C124.466 12.0189 125.147 10.4826 126.414 9.33639C127.68 8.19023 129.592 7.61714 132.149 7.61714C134.061 7.61714 135.615 8.09268 136.81 9.04375C138.028 9.99483 138.638 11.5312 138.638 13.6528V22.6148C138.638 23.3708 138.71 23.9317 138.853 24.2975C138.996 24.6389 139.235 24.8096 139.57 24.8096C139.713 24.7852 139.857 24.773 140 24.773V26.8215C139.474 26.9434 139.008 27.0044 138.602 27.0044C137.766 27.0044 137.12 26.7971 136.666 26.3825C136.236 25.9436 135.973 25.1754 135.878 24.078H135.806C135.184 25.1266 134.348 25.9314 133.296 26.4923C132.245 27.0532 130.978 27.3336 129.497 27.3336ZM129.783 24.773C130.954 24.773 131.994 24.5901 132.902 24.2243C133.834 23.8585 134.551 23.2855 135.053 22.5051C135.579 21.7247 135.842 20.7615 135.842 19.6153V16.6523C135.603 16.9206 135.101 17.1766 134.336 17.4205C133.595 17.6644 132.663 17.896 131.54 18.1155C130.297 18.3594 129.317 18.6398 128.6 18.9569C127.883 19.2739 127.346 19.6641 126.987 20.1274C126.653 20.5908 126.485 21.176 126.485 21.8832C126.485 22.8343 126.748 23.5537 127.274 24.0414C127.8 24.5292 128.636 24.773 129.783 24.773Z" fill="white"/>
<path fill-rule="evenodd" clip-rule="evenodd" d="M0.734034 4.23079C0 5.66377 0 7.54638 0 11.3116V16.689C0 20.4542 0 22.3368 0.734034 23.7698C1.3526 24.9774 2.32352 25.962 3.5143 26.5893C4.92737 27.3336 6.78382 27.3336 10.4967 27.3336H10.4968H15.7995H15.7995C19.5124 27.3336 21.3689 27.3336 22.7819 26.5893C23.9727 25.962 24.9436 24.9774 25.5622 23.7698C26.2962 22.3368 26.2962 20.4542 26.2962 16.689V11.3116C26.2962 7.54638 26.2962 5.66377 25.5622 4.23079C24.9436 3.02324 23.9727 2.03864 22.7819 1.41137C21.3689 0.666992 19.5124 0.666992 15.7995 0.666992H10.4968C6.78383 0.666992 4.92737 0.666992 3.5143 1.41137C2.32352 2.03864 1.3526 3.02324 0.734034 4.23079ZM18.4648 19.3939C23.9548 13.8266 26.1603 7.03692 23.391 4.22866C20.6218 1.4204 13.9264 3.65701 8.43648 9.22426C2.94656 14.7915 0.741019 21.5812 3.51027 24.3895C6.27953 27.1977 12.9749 24.9611 18.4648 19.3939Z" fill="white"/>
</svg>
