<svg width="225" height="42" viewBox="0 0 225 42" fill="none" xmlns="http://www.w3.org/2000/svg">
<g clip-path="url(#clip0_2001_1037)">
<path d="M0 16.7653C0 10.8351 0 7.86994 1.17239 5.61299C2.16035 3.71109 3.71109 2.16035 5.61299 1.17239C7.86994 0 10.8351 0 16.7653 0H25.2347C31.1649 0 34.1301 0 36.387 1.17239C38.2889 2.16035 39.8397 3.71109 40.8276 5.61299C42 7.86994 42 10.8351 42 16.7653V25.2347C42 31.1649 42 34.1301 40.8276 36.387C39.8397 38.2889 38.2889 39.8397 36.387 40.8276C34.1301 42 31.1649 42 25.2347 42H16.7653C10.8351 42 7.86994 42 5.61299 40.8276C3.71109 39.8397 2.16035 38.2889 1.17239 36.387C0 34.1301 0 31.1649 0 25.2347V16.7653Z" fill="#8C8C8C"/>
<ellipse cx="21.4848" cy="21.4845" rx="22.453" ry="11.3258" transform="rotate(-45 21.4848 21.4845)" fill="#0F0B14"/>
</g>
<path d="M59.619 42C56.6799 42 54.3324 41.2318 52.5765 39.6955C50.8588 38.1591 50 36.1427 50 33.6461C50 31.4952 50.4962 29.7668 51.4887 28.4609C52.4811 27.155 53.8552 26.1564 55.6111 25.465C57.367 24.7737 59.6572 24.1783 62.4818 23.679C63.0162 23.5638 63.5315 23.4678 64.0278 23.3909C65.4782 23.0837 66.5852 22.7956 67.3486 22.5268C68.1502 22.2195 68.7418 21.8162 69.1236 21.3169C69.5434 20.8176 69.7534 20.1454 69.7534 19.3004C69.7534 17.9945 69.2953 16.9575 68.3792 16.1893C67.4631 15.3827 65.8981 14.9794 63.6842 14.9794C61.852 14.9794 60.4015 15.1715 59.3328 15.5556C58.3021 15.9396 57.5578 16.5734 57.0998 17.4568C56.6417 18.3018 56.3554 19.454 56.2409 20.9136H51.4314C51.5841 17.8793 52.672 15.4595 54.695 13.6543C56.7181 11.8491 59.7717 10.9465 63.856 10.9465C66.9096 10.9465 69.3907 11.6955 71.2993 13.1934C73.246 14.6914 74.2194 17.1111 74.2194 20.4527V34.5679C74.2194 35.7586 74.3339 36.642 74.5629 37.2181C74.7919 37.7558 75.1736 38.0247 75.708 38.0247C75.937 37.9863 76.1661 37.9671 76.3951 37.9671V41.1934C75.5553 41.3855 74.811 41.4815 74.1621 41.4815C72.8261 41.4815 71.7955 41.155 71.0703 40.5021C70.3832 39.8107 69.9633 38.6008 69.8106 36.8724H69.6961C68.7037 38.524 67.3677 39.7915 65.6882 40.6749C64.0087 41.5583 61.9856 42 59.619 42ZM60.0771 37.9671C61.9475 37.9671 63.6079 37.679 65.0584 37.1029C66.547 36.5267 67.6922 35.6241 68.4937 34.3951C69.3335 33.166 69.7534 31.6488 69.7534 29.8436V25.177C69.3717 25.5995 68.5701 26.0027 67.3486 26.3868C66.1653 26.7709 64.6767 27.1358 62.8826 27.4815C60.8978 27.8656 59.3328 28.3073 58.1876 28.8066C57.0425 29.3059 56.1837 29.9204 55.6111 30.6502C55.0767 31.38 54.8095 32.3018 54.8095 33.4156C54.8095 34.9136 55.2294 36.0466 56.0692 36.8148C56.9089 37.583 58.2449 37.9671 60.0771 37.9671Z" fill="#8C8C8C"/>
<path d="M79.1139 0H83.6943V41.1934H79.1139V0Z" fill="#8C8C8C"/>
<path d="M88.0624 11.8107H92.6429V41.1934H88.0624V11.8107ZM87.6043 0.57613H93.1009V6.107H87.6043V0.57613Z" fill="#8C8C8C"/>
<path d="M97.0109 11.8107H101.591V26.6173L99.7019 26.4444L115.218 11.8107H120.715L99.9309 31.0535L101.591 27.1358V41.1934H97.0109V11.8107ZM105.37 24.1975L108.577 21.5473L121.917 41.1934H116.478L105.37 24.1975Z" fill="#8C8C8C"/>
<path d="M129.577 42C126.637 42 124.29 41.2318 122.534 39.6955C120.816 38.1591 119.958 36.1427 119.958 33.6461C119.958 31.4952 120.454 29.7668 121.446 28.4609C122.439 27.155 123.813 26.1564 125.569 25.465C127.325 24.7737 129.615 24.1783 132.439 23.679C132.974 23.5638 133.489 23.4678 133.985 23.3909C135.436 23.0837 136.543 22.7956 137.306 22.5268C138.108 22.2195 138.699 21.8162 139.081 21.3169C139.501 20.8176 139.711 20.1454 139.711 19.3004C139.711 17.9945 139.253 16.9575 138.337 16.1893C137.421 15.3827 135.856 14.9794 133.642 14.9794C131.81 14.9794 130.359 15.1715 129.29 15.5556C128.26 15.9396 127.515 16.5734 127.057 17.4568C126.599 18.3018 126.313 19.454 126.199 20.9136H121.389C121.542 17.8793 122.63 15.4595 124.653 13.6543C126.676 11.8491 129.729 10.9465 133.814 10.9465C136.867 10.9465 139.348 11.6955 141.257 13.1934C143.204 14.6914 144.177 17.1111 144.177 20.4527V34.5679C144.177 35.7586 144.291 36.642 144.521 37.2181C144.75 37.7558 145.131 38.0247 145.666 38.0247C145.895 37.9863 146.124 37.9671 146.353 37.9671V41.1934C145.513 41.3855 144.769 41.4815 144.12 41.4815C142.784 41.4815 141.753 41.155 141.028 40.5021C140.341 39.8107 139.921 38.6008 139.768 36.8724H139.654C138.661 38.524 137.325 39.7915 135.646 40.6749C133.966 41.5583 131.943 42 129.577 42ZM130.035 37.9671C131.905 37.9671 133.565 37.679 135.016 37.1029C136.505 36.5267 137.65 35.6241 138.451 34.3951C139.291 33.166 139.711 31.6488 139.711 29.8436V25.177C139.329 25.5995 138.528 26.0027 137.306 26.3868C136.123 26.7709 134.634 27.1358 132.84 27.4815C130.855 27.8656 129.29 28.3073 128.145 28.8066C127 29.3059 126.141 29.9204 125.569 30.6502C125.034 31.38 124.767 32.3018 124.767 33.4156C124.767 34.9136 125.187 36.0466 126.027 36.8148C126.867 37.583 128.203 37.9671 130.035 37.9671Z" fill="#8C8C8C"/>
<path d="M160.122 42C157.374 42 155.026 41.5583 153.079 40.6749C151.133 39.7531 149.644 38.4856 148.613 36.8724C147.621 35.2593 147.087 33.4348 147.01 31.3992H151.82C151.896 32.6667 152.221 33.7997 152.793 34.7984C153.366 35.7586 154.244 36.5267 155.427 37.1029C156.648 37.679 158.213 37.9671 160.122 37.9671C162.679 37.9671 164.473 37.5062 165.504 36.5844C166.535 35.6241 167.05 34.4719 167.05 33.1276C167.05 32.0137 166.745 31.1303 166.134 30.4774C165.523 29.8244 164.779 29.3443 163.901 29.037C163.061 28.7298 161.897 28.4225 160.408 28.1152C160.026 28.0384 159.645 27.9616 159.263 27.8848C159.034 27.808 158.786 27.7503 158.519 27.7119C156.381 27.2126 154.606 26.6941 153.194 26.1564C151.782 25.5802 150.579 24.7353 149.587 23.6214C148.633 22.5075 148.155 21.048 148.155 19.2428C148.155 17.5912 148.575 16.1509 149.415 14.9218C150.255 13.6543 151.476 12.6941 153.079 12.0412C154.683 11.3498 156.591 11.0041 158.805 11.0041C161.248 11.0041 163.328 11.4074 165.046 12.214C166.802 13.0206 168.138 14.1344 169.054 15.5556C170.008 16.9383 170.562 18.4938 170.714 20.2222H165.905C165.599 18.7243 164.951 17.4952 163.958 16.535C162.966 15.5364 161.267 15.037 158.862 15.037C156.877 15.037 155.389 15.4019 154.396 16.1317C153.442 16.8615 152.965 17.8409 152.965 19.07C152.965 19.9918 153.232 20.7407 153.766 21.3169C154.339 21.8546 155.045 22.2771 155.885 22.5844C156.725 22.8532 157.889 23.1413 159.378 23.4486C159.683 23.487 160.141 23.583 160.752 23.7366C163.042 24.2744 164.931 24.8313 166.42 25.4074C167.947 25.9835 169.226 26.8861 170.256 28.1152C171.325 29.3059 171.859 30.9191 171.859 32.9547C171.859 34.7984 171.401 36.4115 170.485 37.7942C169.569 39.1385 168.214 40.1756 166.42 40.9053C164.664 41.6351 162.565 42 160.122 42Z" fill="#8C8C8C"/>
<path d="M185.286 42C182.537 42 180.19 41.5583 178.243 40.6749C176.296 39.7531 174.808 38.4856 173.777 36.8724C172.785 35.2593 172.25 33.4348 172.174 31.3992H176.983C177.06 32.6667 177.384 33.7997 177.957 34.7984C178.529 35.7586 179.407 36.5267 180.591 37.1029C181.812 37.679 183.377 37.9671 185.286 37.9671C187.843 37.9671 189.637 37.5062 190.668 36.5844C191.698 35.6241 192.214 34.4719 192.214 33.1276C192.214 32.0137 191.908 31.1303 191.297 30.4774C190.687 29.8244 189.942 29.3443 189.064 29.037C188.225 28.7298 187.06 28.4225 185.572 28.1152C185.19 28.0384 184.808 27.9616 184.427 27.8848C184.198 27.808 183.95 27.7503 183.682 27.7119C181.545 27.2126 179.77 26.6941 178.358 26.1564C176.945 25.5802 175.743 24.7353 174.75 23.6214C173.796 22.5075 173.319 21.048 173.319 19.2428C173.319 17.5912 173.739 16.1509 174.579 14.9218C175.418 13.6543 176.64 12.6941 178.243 12.0412C179.846 11.3498 181.755 11.0041 183.969 11.0041C186.412 11.0041 188.492 11.4074 190.21 12.214C191.965 13.0206 193.301 14.1344 194.217 15.5556C195.172 16.9383 195.725 18.4938 195.878 20.2222H191.068C190.763 18.7243 190.114 17.4952 189.122 16.535C188.129 15.5364 186.431 15.037 184.026 15.037C182.041 15.037 180.552 15.4019 179.56 16.1317C178.606 16.8615 178.129 17.8409 178.129 19.07C178.129 19.9918 178.396 20.7407 178.93 21.3169C179.503 21.8546 180.209 22.2771 181.049 22.5844C181.888 22.8532 183.053 23.1413 184.541 23.4486C184.847 23.487 185.305 23.583 185.915 23.7366C188.206 24.2744 190.095 24.8313 191.584 25.4074C193.111 25.9835 194.389 26.8861 195.42 28.1152C196.489 29.3059 197.023 30.9191 197.023 32.9547C197.023 34.7984 196.565 36.4115 195.649 37.7942C194.733 39.1385 193.378 40.1756 191.584 40.9053C189.828 41.6351 187.728 42 185.286 42Z" fill="#8C8C8C"/>
<path d="M207.472 42C204.533 42 202.185 41.2318 200.429 39.6955C198.712 38.1591 197.853 36.1427 197.853 33.6461C197.853 31.4952 198.349 29.7668 199.341 28.4609C200.334 27.155 201.708 26.1564 203.464 25.465C205.22 24.7737 207.51 24.1783 210.335 23.679C210.869 23.5638 211.384 23.4678 211.881 23.3909C213.331 23.0837 214.438 22.7956 215.201 22.5268C216.003 22.2195 216.595 21.8162 216.976 21.3169C217.396 20.8176 217.606 20.1454 217.606 19.3004C217.606 17.9945 217.148 16.9575 216.232 16.1893C215.316 15.3827 213.751 14.9794 211.537 14.9794C209.705 14.9794 208.254 15.1715 207.186 15.5556C206.155 15.9396 205.411 16.5734 204.953 17.4568C204.495 18.3018 204.208 19.454 204.094 20.9136H199.284C199.437 17.8793 200.525 15.4595 202.548 13.6543C204.571 11.8491 207.625 10.9465 211.709 10.9465C214.762 10.9465 217.244 11.6955 219.152 13.1934C221.099 14.6914 222.072 17.1111 222.072 20.4527V34.5679C222.072 35.7586 222.187 36.642 222.416 37.2181C222.645 37.7558 223.026 38.0247 223.561 38.0247C223.79 37.9863 224.019 37.9671 224.248 37.9671V41.1934C223.408 41.3855 222.664 41.4815 222.015 41.4815C220.679 41.4815 219.648 41.155 218.923 40.5021C218.236 39.8107 217.816 38.6008 217.663 36.8724H217.549C216.557 38.524 215.221 39.7915 213.541 40.6749C211.861 41.5583 209.838 42 207.472 42ZM207.93 37.9671C209.8 37.9671 211.461 37.679 212.911 37.1029C214.4 36.5267 215.545 35.6241 216.347 34.3951C217.186 33.166 217.606 31.6488 217.606 29.8436V25.177C217.224 25.5995 216.423 26.0027 215.201 26.3868C214.018 26.7709 212.529 27.1358 210.735 27.4815C208.751 27.8656 207.186 28.3073 206.04 28.8066C204.895 29.3059 204.036 29.9204 203.464 30.6502C202.93 31.38 202.662 32.3018 202.662 33.4156C202.662 34.9136 203.082 36.0466 203.922 36.8148C204.762 37.583 206.098 37.9671 207.93 37.9671Z" fill="#8C8C8C"/>
<defs>
<clipPath id="clip0_2001_1037">
<rect width="42" height="42" fill="white"/>
</clipPath>
</defs>
</svg>
