<svg display="none" xmlns="http://www.w3.org/2000/svg">

   <symbol id="header-top-icon" viewBox="0 0 20 21">
      <path d="M9.09743 3.55829C9.09742 4.37131 9.45875 8.75256 9.63942 10.8416C9.82911 11.1126 10.1927 10.9545 10.3508 10.8416C10.5992 8.07504 11.0758 2.35231 10.9945 1.5935C10.8928 0.644977 9.63942 0.983736 9.09743 1.25474C8.55543 1.52575 9.09743 2.54202 9.09743 3.55829Z" fill="currentColor"/>
      <path d="M11.5913 1.93147C11.3924 4.02364 10.9945 8.27296 10.9945 8.53296C12.5121 6.95673 14.6924 7.0637 15.5929 7.31422C15.3085 5.79757 14.5041 2.63834 13.5616 2.1346C12.6191 1.63085 11.8554 1.78929 11.5913 1.93147Z" fill="currentColor"/>
      <path d="M4.5633 7.65953C6.98046 6.56267 8.42263 8.22827 8.56481 8.30952C8.56481 7.95203 8.37524 4.04395 8.28045 2.1346C8.16535 1.95423 7.76857 1.66109 7.10233 1.93147C5.22116 2.52529 3.91331 6.80642 4.5633 7.65953Z" fill="currentColor"/>
      <path d="M6.0347 7.92165C7.75769 7.88095 8.74241 9.14832 9.0194 9.78709L9.18676 10.4953C8.97944 10.2018 8.23295 9.58675 6.9055 9.47469C5.24619 9.33461 3.94387 10.6153 3.16344 11.6559C2.38301 12.6965 1.04227 16.9388 0.82215 17.5992C0.646052 18.1275 0.535311 17.7392 0.501953 17.4791C0.608679 17.0055 0.926189 15.6901 1.34242 14.2173C2.50306 10.2351 3.88096 7.97252 6.0347 7.92165Z" fill="currentColor"/>
      <path d="M14.9299 7.79377C12.5766 7.38116 11.1879 8.95073 10.7876 9.78709L10.6075 10.4953C11.6014 9.72816 13.9454 8.45013 15.3702 9.47469C17.1511 10.7554 19.0322 17.0189 19.2923 18.0194C19.5004 18.8198 19.6725 18.1395 19.7326 17.6992C19.1122 14.5693 17.2832 8.20637 14.9299 7.79377Z" fill="currentColor"/>
      <path d="M6.19478 10.3642C7.29677 10.1068 8.17303 10.5752 8.47341 10.8416C8.67677 10.9865 8.55815 11.0987 8.47341 11.1366C8.24169 11.0383 7.60369 10.8053 6.9055 10.6603C6.03277 10.4791 5.31938 11.1238 5.07478 11.5357C4.8791 11.8653 5.15631 12.5656 5.31938 12.8746C5.18635 12.8789 4.87653 12.7716 4.70145 12.3081C4.48259 11.7288 4.81731 10.6861 6.19478 10.3642Z" fill="currentColor"/>
      <path d="M14.2128 9.91267C12.5053 9.46111 11.3233 10.8416 11.2065 10.8416C11.0108 10.9865 11.125 11.1486 11.2065 11.2115C11.2843 11.1142 11.6414 10.8086 12.447 10.3642C13.4539 9.80883 14.7236 10.3642 14.9299 10.9196C15.1363 11.475 15.1614 12.2039 14.9299 12.5103C14.6985 12.8168 15.3702 12.5687 15.5929 12.3081C15.8155 12.0476 15.9203 10.3642 14.2128 9.91267Z" fill="currentColor"/>
      <path d="M14.6944 11.2115C14.4589 10.6424 13.5269 10.4953 13.3664 10.4953C13.2837 10.5832 13.1971 10.7756 13.5123 10.8416C13.9063 10.924 13.9793 11.1366 14.2128 11.5357C14.4463 11.9348 14.315 12.0725 14.5193 12.0725C14.7236 12.0725 14.9299 11.7807 14.6944 11.2115Z" fill="currentColor"/>
      <path d="M5.31938 11.9412C5.51506 11.1239 6.18315 10.9196 6.49274 10.9196C6.63032 10.9196 6.8463 10.963 6.60949 11.1366C6.31347 11.3537 6.0347 11.5357 5.95277 11.9412C5.87084 12.3467 5.07478 12.9628 5.31938 11.9412Z" fill="currentColor"/>
      <path d="M8.79854 11.9412C8.72557 11.5742 8.01048 11.372 7.87914 11.372C7.87914 11.5326 7.98129 12.5833 7.45592 12.7293C6.93055 12.8752 6.9055 12.5103 6.60949 12.7293C6.31347 12.9482 6.74083 13.2546 7.71861 13.1817C8.69638 13.1087 8.87151 12.3081 8.79854 11.9412Z" fill="currentColor"/>
      <path d="M11.2065 12.0725C11.2941 11.4158 11.9654 11.5357 12.1551 11.5357C11.9508 11.6709 11.6064 11.9821 11.8632 12.1455C12.1201 12.309 12.5832 12.0774 12.7826 11.9412C12.5734 12.1309 12.1551 12.5366 12.1551 12.6417C12.1551 12.773 12.6805 12.8746 12.8848 12.7293C13.0891 12.5839 13.5123 12.6271 13.5123 12.8746C13.5123 13.1221 12.5491 13.2692 12.2864 13.1817C12.0237 13.0941 11.1189 12.7293 11.2065 12.0725Z" fill="currentColor"/>
      <path d="M9.8201 11.2115C10.1849 11.051 10.3508 11.5357 10.4476 11.5357L9.3531 11.6559C9.38715 11.5613 9.52823 11.3399 9.8201 11.2115Z" fill="currentColor"/>
      <path d="M10.0244 11.8099C9.68584 11.8099 9.48445 12.0336 9.42607 12.1455H10.4476C10.4476 12.0336 10.363 11.8099 10.0244 11.8099Z" fill="currentColor"/>
      <path d="M10.0244 12.3081C9.68584 12.3081 9.48445 12.5305 9.42607 12.6417C9.67124 12.5716 10.1447 12.6709 10.3508 12.7293C10.3831 12.5889 10.363 12.3081 10.0244 12.3081Z" fill="currentColor"/>
      <path d="M10.0244 12.8746C9.69801 12.8746 9.3531 13.1817 9.3531 13.2838C9.62006 13.1671 10.194 13.2352 10.4476 13.2838C10.4154 13.1474 10.2855 12.8746 10.0244 12.8746Z" fill="currentColor"/>
      <path d="M9.42607 14.6994C9.42607 14.4659 9.7374 14.2807 9.89307 14.2173C10.0779 14.2173 10.4796 14.2787 10.6075 14.5243C10.7355 14.7699 10.3888 15.0255 10.1995 15.1226C9.94171 15.0788 9.42607 14.9329 9.42607 14.6994Z" fill="currentColor"/>
      <path d="M14.3441 13.7654C13.5561 13.6195 12.447 14.1157 12.374 14.2173C13.848 14.0417 14.7966 14.6118 15.5929 14.2173C16.3892 13.8228 16.3581 12.7293 16.5478 12.3081C16.7375 11.887 16.3581 11.8099 16.3581 12.0725C16.1538 13.6498 15.1322 13.9113 14.3441 13.7654Z" fill="currentColor"/>
      <path d="M5.07478 13.7654H6.9055C6.99655 13.8335 7.12401 13.9756 6.9055 13.9989C6.63237 14.0281 5.15012 14.5243 4.70145 14.2173C4.25277 13.9103 3.73453 13.1817 3.53021 12.5103C3.3259 11.839 3.60318 11.372 3.73453 11.9412C3.86587 12.5103 4.43502 13.7654 5.07478 13.7654Z" fill="currentColor"/>
      <path d="M13.5123 18.9252C13.2797 18.5441 11.6524 16.4148 10.8679 15.3978C10.7649 15.1532 10.9838 14.87 11.2065 15.0374C11.4292 15.2047 13.8675 18.8093 14.2128 19.2342C14.5581 19.659 13.8031 19.4015 13.5123 18.9252Z" fill="currentColor"/>
      <path d="M6.49088 19.0153C6.74835 18.5647 8.93686 15.3978 9.03985 15.3077C9.20661 15.0884 9.03985 14.6994 8.79854 15.0374C8.55723 15.3753 6.32352 18.4875 5.95277 19.0153C5.58202 19.5431 6.23341 19.4659 6.49088 19.0153Z" fill="currentColor"/>
      <path d="M8.73089 19.2342V16.3247C8.73089 15.9437 9.25441 15.7454 9.51618 15.6939C9.48614 16.6594 9.44409 18.6986 9.51618 19.1312C9.58826 19.5637 10.1026 19.5517 10.3508 19.4916V16.3247C10.3508 15.6759 10.6955 15.7969 10.8679 15.9385V19.0153C10.8679 19.6847 11.5631 19.4015 11.5631 19.1312C11.5631 18.9149 11.6146 17.7108 11.6403 17.1358C11.7476 17.3236 11.9725 17.6992 12.0137 17.6992C12.0652 17.6992 12.2864 18.7578 12.1551 19.2342C12.0237 19.7105 12.5157 19.4916 12.6445 19.2342C12.7475 19.0282 12.7795 18.7879 12.7826 18.6935L13.61 19.6204H12.8848L11.7562 19.8778L10.8679 19.6204C10.6104 19.6676 10.0813 19.762 10.0244 19.762C9.96755 19.762 9.49883 19.5817 9.27158 19.4916C9.19434 19.6204 8.99159 19.8778 8.79854 19.8778C8.60549 19.8778 8.09798 19.7062 7.86835 19.6204C7.67096 19.7019 7.25557 19.8675 7.17318 19.8778C7.09079 19.8881 6.76305 19.7105 6.60949 19.6204L6.7741 19.2342L6.9055 19.4916H7.45592L7.54651 18.2815L8.16445 17.3546V19.2342C8.16445 19.6461 8.73089 19.5174 8.73089 19.2342Z" fill="currentColor"/>
      <path d="M11.2065 20.1353C12.0121 20.1456 12.9642 19.9679 13.3396 19.8778C13.5788 19.8254 13.7001 20.1353 13.61 20.1997C13.5199 20.264 12.5415 20.4571 12.0137 20.4571C11.4858 20.4571 7.86835 20.5086 7.25042 20.4571C6.63249 20.4057 6.49088 20.3413 6.49088 20.1997C6.49088 20.0581 6.7741 20.1353 7.25042 20.1353C7.72674 20.1353 10.1995 20.1224 11.2065 20.1353Z" fill="currentColor"/>
      <path d="M13.8288 19.8778C13.8288 19.7542 13.9747 19.6547 14.0477 19.6204C14.2665 19.6204 14.5193 19.762 14.5884 19.9808C14.6575 20.1997 14.3441 20.1997 14.0992 20.1997C13.8542 20.1997 13.8288 20.0323 13.8288 19.8778Z" fill="currentColor"/>
      <path d="M5.31938 19.8778C5.31938 19.6204 5.67984 19.6204 5.82145 19.6204C5.94912 19.6171 6.0918 19.6204 6.22053 19.8778C6.34927 20.1353 5.95277 20.3027 5.82145 20.3027C5.69013 20.3027 5.31938 20.1353 5.31938 19.8778Z" fill="currentColor"/>
      <path d="M8.56353 14.6125L6.69686 17.5091L5.56398 18.4231L4.81731 14.9344L6.9055 14.2907L8.56353 14.6125Z" fill="currentColor"/>
      <path d="M11.7562 15.0374C12.5751 16.0544 14.2128 18.1038 14.2128 18.1656L15.0647 15.3978L14.5884 14.6994L13.3396 14.4323L12.0137 14.6125L11.7562 15.0374Z" fill="currentColor"/>
    </symbol>

    <symbol id="header-icon-login" viewBox="0 0 22 25">
        <path d="M9.87761 16.5776C10.5924 16.1856 11.7466 16.2945 12.7419 16.8793C13.144 17.1156 13.7434 17.3944 14.3385 17.6713C15.2158 18.0795 16.0844 18.4835 16.3005 18.7416C16.3421 18.7915 16.3986 18.8542 16.4655 18.9282L16.4665 18.9291C16.9811 19.4974 18.1179 20.7532 18.0221 22.3813C18.0041 22.8493 16.9465 23.7892 16.4196 24.2006C16.114 24.4605 15.2518 24.8244 14.2497 24.2006C13.8395 23.8541 13.5093 23.2181 13.3952 22.9438H12.5641L12.152 23.7241H10.0729L9.63542 22.9438H8.86003C8.84709 23.4275 8.50723 24.4468 7.25261 24.6547C5.99865 24.8625 5.30388 24.4389 5.11296 24.2006C4.68315 24.0707 3.75995 23.4292 3.50456 21.9047C3.68754 20.959 4.42753 18.95 5.92546 18.4819C6.56692 18.1573 7.34513 17.7932 8.05827 17.4594C8.82 17.1028 9.50843 16.78 9.87761 16.5776ZM10.1481 18.7192L8.73014 21.7817H8.40788C7.94589 21.4379 6.8022 20.9077 5.92546 21.5395C4.82957 22.3292 5.23284 24.2153 6.55436 24.2797C7.61138 24.331 8.29507 23.1401 8.50456 22.5385H9.05241L10.486 19.2192H11.9372L12.9518 22.3451L13.7419 22.4418C13.6881 22.9361 13.8871 23.9602 15.112 24.102C16.6428 24.2791 16.6105 22.7158 16.4333 22.2485C16.2559 21.7811 15.4983 21.1527 14.2253 21.6362C13.2068 22.0229 12.9518 21.4966 12.9518 21.185L12.1784 18.7192H10.1481ZM10.6217 19.6235L9.69499 22.3451L10.486 23.1694L11.7956 23.058L12.3141 22.2485L11.6598 19.6235H10.6217ZM5.56804 18.2436C3.9392 18.9887 3.30074 20.8361 3.18522 21.6664C2.8026 21.2838 1.89891 20.3491 1.3444 19.6733C1.22311 17.9925 2.73395 16.7886 3.50456 16.3969L5.56804 18.2436ZM18.3473 16.8793C20.7718 17.4856 20.5135 19.6712 20.3835 19.9545C20.3061 20.1221 19.8298 20.4894 19.32 20.8823C18.973 21.1497 18.6105 21.4296 18.3473 21.6664C18.1741 20.3842 17.0623 19.009 16.528 18.4819C16.9036 18.0414 17.7929 17.1046 18.3473 16.8793ZM19.4733 9.52093C19.4878 11.6705 19.595 16.0169 19.9069 16.2075C20.2968 16.4458 21.3149 17.5507 21.4665 18.5903C21.6181 19.6299 21.0327 20.1495 21.0544 19.3481C20.7424 17.3038 19.5242 16.6491 18.9538 16.5776L18.8239 16.3969L18.6716 9.52093H19.4733ZM3.18522 9.52093V16.0346C1.36603 17.2643 0.939455 18.6691 0.953777 19.2182C0.744291 19.0593 0.339322 18.7416 0.391277 18.7416C0.547316 16.8706 1.69761 16.1574 2.25358 16.0346V9.52093H3.18522ZM18.1364 9.52093V12.1147L16.6628 13.7426L13.737 12.5063L16.1501 14.3461L16.3005 14.9799L15.7272 16.3969V17.6938L14.2497 16.3969C13.8576 16.2461 13.0074 15.8061 12.7419 15.2514C12.4765 14.6965 12.068 13.4912 11.8971 12.9584V14.6782L10.4801 14.4975L10.2995 12.808C10.1889 13.2403 9.90082 14.2197 9.63542 14.6782C9.30353 15.2512 8.12714 16.3062 7.25261 16.5776C6.55301 16.7948 6.07624 17.4123 5.92546 17.6938V15.7035C5.92546 15.3416 5.76467 14.8692 5.68425 14.6782L9.18327 12.5063C8.25839 12.9888 6.2633 13.9545 5.68425 13.9545C5.10517 13.9539 3.99013 12.7279 3.50456 12.1147V9.52093H18.1364ZM18.0221 16.3969L16.3005 17.6938C16.2679 17.2715 16.3635 16.2825 17.0046 15.7035C17.6455 15.1246 17.8053 13.9936 17.8053 13.5004L18.0221 16.3969ZM4.05143 13.5004C4.13812 14.0667 4.43684 15.3 4.93913 15.7035C5.44141 16.1068 5.56794 17.03 5.56804 17.4418L3.70475 15.7035L4.05143 13.5004ZM1.92839 14.9799H1.14909V10.728H1.92839V14.9799ZM20.3835 14.6782H19.9069V10.9448H20.3835V14.6782ZM4.35514 11.8071L6.00065 12.9819H6.54948L9.03776 11.8071L9.72429 10.2592H4.35514V11.8071ZM13.0944 11.6108L16.3268 12.8842L17.5026 11.6108V10.0825H12.3688L13.0944 11.6108ZM11.0983 0.947688C14.3946 0.984787 17.728 2.98475 18.1364 3.6889C18.5439 4.39273 19.0251 6.35662 19.0251 6.76409C19.0243 7.0901 15.272 7.78841 13.3952 8.0971H8.09733C6.4926 7.75147 3.22536 7.00148 2.986 6.76409C2.97368 5.86269 3.06006 3.98525 3.50456 3.6889C4.06181 3.31743 7.80233 0.910655 11.0983 0.947688Z" fill="currentColor"/>
    </symbol>

    <!-- <symbol id="close" viewBox="0 0 25 26">
        <path d="M23.2034 4.09654L3.25229 24.0476C2.65567 24.6442 1.72759 24.6442 1.13097 24.0476C0.567497 23.4841 0.534351 22.5229 1.13097 21.9263L21.082 1.97522C21.6455 1.41174 22.6399 1.41174 23.2034 1.97522C23.8 2.57184 23.7668 3.53306 23.2034 4.09654Z" fill="currentColor"/>
        <path d="M1.13063 4.09654L21.0817 24.0476C21.6783 24.6442 22.6064 24.6442 23.203 24.0476C23.7665 23.4841 23.7996 22.5229 23.203 21.9263L3.25195 1.97522C2.68848 1.41174 1.69411 1.41174 1.13063 1.97522C0.534011 2.57184 0.567156 3.53306 1.13063 4.09654Z" fill="currentColor"/>
    </symbol> -->

    <symbol id="eye" viewBox="0 0 23 19">
        <path d="M11.1699 5.67773C11.2871 5.67773 11.4043 5.63867 11.5215 5.63867C13.5918 5.63867 15.2715 7.31836 15.2715 9.38867C15.2715 11.459 13.5918 13.1387 11.5215 13.1387C9.41211 13.1387 7.77148 11.459 7.77148 9.38867C7.77148 9.31055 7.77148 9.19336 7.77148 9.07617C8.12305 9.27148 8.55273 9.38867 9.02148 9.38867C10.3887 9.38867 11.5215 8.29492 11.5215 6.88867C11.5215 6.45898 11.3652 6.0293 11.1699 5.67773ZM19.0215 3.80273C20.8574 5.48242 22.0684 7.51367 22.6543 8.91992C22.7715 9.23242 22.7715 9.58398 22.6543 9.89648C22.0684 11.2637 20.8574 13.2949 19.0215 15.0137C17.1855 16.7324 14.6465 18.1387 11.5215 18.1387C8.35742 18.1387 5.81836 16.7324 3.98242 15.0137C2.14648 13.2949 0.935547 11.2637 0.349609 9.89648C0.232422 9.58398 0.232422 9.23242 0.349609 8.91992C0.935547 7.51367 2.14648 5.48242 3.98242 3.80273C5.81836 2.08398 8.35742 0.638672 11.5215 0.638672C14.6465 0.638672 17.1855 2.08398 19.0215 3.80273ZM11.5215 3.76367C8.39648 3.76367 5.89648 6.30273 5.89648 9.38867C5.89648 12.5137 8.39648 15.0137 11.5215 15.0137C14.6074 15.0137 17.1465 12.5137 17.1465 9.38867C17.1465 6.30273 14.6074 3.76367 11.5215 3.76367Z" fill="currentColor"/>
    </symbol>

    <symbol id="eye-hidden" viewBox="0 0 26 21">
        <path d="M6.56641 4.02148C8.32422 2.69336 10.5117 1.63867 13.207 1.63867C16.332 1.63867 18.8711 3.08398 20.707 4.80273C22.543 6.48242 23.7539 8.51367 24.3398 9.91992C24.457 10.2324 24.457 10.584 24.3398 10.8965C23.832 12.1465 22.7773 13.9434 21.2148 15.5059L25.3164 18.748C25.7461 19.0605 25.8242 19.6465 25.4727 20.0371C25.1602 20.4668 24.5742 20.5449 24.1836 20.1934L1.05859 2.06836C0.628906 1.75586 0.550781 1.16992 0.902344 0.779297C1.21484 0.349609 1.80078 0.271484 2.19141 0.623047L6.56641 4.02148ZM9.41797 6.24805L12.9336 9.02148C13.0898 8.66992 13.207 8.31836 13.207 7.88867C13.207 7.45898 13.0508 7.0293 12.8555 6.67773C12.9727 6.67773 13.0898 6.63867 13.207 6.63867C15.2773 6.63867 16.957 8.31836 16.957 10.3887C16.957 10.9355 16.8398 11.4434 16.6055 11.9121L18.1289 13.084C18.5586 12.3027 18.832 11.3652 18.832 10.3887C18.832 7.30273 16.293 4.76367 13.207 4.76367C11.7227 4.76367 10.3945 5.34961 9.41797 6.24805ZM13.207 19.1387C10.043 19.1387 7.50391 17.7324 5.66797 16.0137C3.83203 14.2949 2.62109 12.2637 2.03516 10.8965C1.91797 10.584 1.91797 10.2324 2.03516 9.91992C2.42578 9.02148 3.05078 7.88867 3.94922 6.7168L7.62109 9.60742C7.58203 9.88086 7.58203 10.1543 7.58203 10.3887C7.58203 13.5137 10.082 16.0137 13.207 16.0137C13.9102 16.0137 14.6133 15.8965 15.2773 15.623L18.1289 17.8887C16.6836 18.6699 15.043 19.1387 13.207 19.1387Z" fill="currentColor"/>
    </symbol>

    <symbol id="close" viewBox="0 0 25 25">
        <path d="M23.133 3.5178L3.18198 23.4689C2.58536 24.0655 1.65728 24.0655 1.06066 23.4689C0.497184 22.9054 0.464039 21.9442 1.06066 21.3475L21.0117 1.39648C21.5752 0.833008 22.5696 0.833008 23.133 1.39648C23.7297 1.9931 23.6965 2.95433 23.133 3.5178Z" fill="currentColor" />
        <path d="M1.06227 3.5178L21.0133 23.4689C21.61 24.0655 22.538 24.0655 23.1347 23.4689C23.6981 22.9054 23.7313 21.9442 23.1347 21.3475L3.18359 1.39648C2.62012 0.833008 1.62575 0.833008 1.06227 1.39648C0.465651 1.9931 0.498797 2.95433 1.06227 3.5178Z" fill="currentColor" />
    </symbol>

    <symbol id="settings" viewBox="0 0 14 15">
        <path d="M13.7051 5.32812C13.8145 5.57422 13.7324 5.82031 13.541 6.01172L12.3652 7.07812C12.3926 7.29688 12.4199 7.54297 12.4199 7.76172C12.4199 8.00781 12.3926 8.25391 12.3652 8.47266L13.541 9.53906C13.7324 9.73047 13.8145 9.97656 13.7051 10.2227C13.5957 10.5508 13.459 10.8516 13.2949 11.1523L13.1582 11.3711C12.9668 11.6719 12.7754 11.9727 12.5566 12.2461C12.3926 12.4375 12.1191 12.4922 11.873 12.4102L10.3691 11.9453C9.98633 12.2188 9.57617 12.4375 9.16602 12.6289L8.81055 14.1875C8.75586 14.4336 8.56445 14.625 8.31836 14.6797C7.93555 14.7344 7.55273 14.7617 7.14258 14.7617C6.75977 14.7617 6.37695 14.7344 5.99414 14.6797C5.74805 14.625 5.55664 14.4336 5.50195 14.1875L5.14648 12.6289C4.73633 12.4375 4.32617 12.2188 3.94336 11.9453L2.43945 12.4102C2.19336 12.4922 1.91992 12.4375 1.75586 12.2461C1.53711 11.9727 1.3457 11.6719 1.1543 11.3711L1.01758 11.1523C0.853516 10.8516 0.716797 10.5508 0.607422 10.2227C0.498047 9.97656 0.580078 9.73047 0.771484 9.53906L1.94727 8.47266C1.91992 8.25391 1.91992 8.00781 1.91992 7.76172C1.91992 7.54297 1.91992 7.29688 1.94727 7.07812L0.771484 6.01172C0.580078 5.82031 0.498047 5.57422 0.607422 5.32812C0.716797 5 0.853516 4.69922 1.01758 4.39844L1.1543 4.17969C1.3457 3.87891 1.53711 3.57812 1.75586 3.30469C1.91992 3.11328 2.19336 3.05859 2.43945 3.14062L3.94336 3.60547C4.32617 3.33203 4.73633 3.08594 5.14648 2.92188L5.50195 1.36328C5.55664 1.11719 5.74805 0.925781 5.99414 0.871094C6.37695 0.816406 6.75977 0.761719 7.16992 0.761719C7.55273 0.761719 7.93555 0.816406 8.31836 0.871094C8.56445 0.925781 8.75586 1.11719 8.81055 1.36328L9.16602 2.92188C9.57617 3.08594 9.98633 3.33203 10.3691 3.60547L11.873 3.14062C12.1191 3.05859 12.3926 3.11328 12.5566 3.30469C12.7754 3.57812 12.9668 3.87891 13.1582 4.17969L13.2949 4.39844C13.459 4.69922 13.5957 5 13.7051 5.32812ZM7.16992 9.94922C8.37305 9.94922 9.35742 8.99219 9.35742 7.76172C9.35742 6.55859 8.37305 5.57422 7.16992 5.57422C5.93945 5.57422 4.98242 6.55859 4.98242 7.76172C4.98242 8.99219 5.93945 9.94922 7.16992 9.94922Z" fill="currentColor"/>
    </symbol>

    <symbol id="menu-icon" viewBox="0 0 33 24">
       <path d="M15.5086 3.85143C15.5086 4.80973 15.9311 9.97385 16.1424 12.4361C16.3642 12.7556 16.7894 12.5692 16.9743 12.4361C17.2648 9.17527 17.8221 2.42996 17.727 1.53556C17.6081 0.41755 16.1424 0.816841 15.5086 1.13627C14.8748 1.4557 15.5086 2.65357 15.5086 3.85143Z" fill="currentColor"/>
        <path d="M18.425 1.93393C18.1923 4.39993 17.727 9.40856 17.727 9.71501C19.5017 7.85713 22.0514 7.98322 23.1044 8.2785C22.7718 6.49085 21.8312 2.7671 20.7291 2.17334C19.6269 1.57959 18.7338 1.76633 18.425 1.93393Z" fill="currentColor"/>
        <path d="M10.2064 8.68551C13.033 7.39266 14.7195 9.35588 14.8858 9.45165C14.8858 9.03028 14.6641 4.42387 14.5532 2.17334C14.4186 1.96075 13.9546 1.61523 13.1755 1.93393C10.9757 2.63385 9.44628 7.67996 10.2064 8.68551Z" fill="currentColor"/>
        <path d="M11.927 8.99447C13.9419 8.94649 15.0934 10.4403 15.4174 11.1932L15.6131 12.0279C15.3706 11.682 14.4977 10.9571 12.9454 10.825C11.005 10.6599 9.48202 12.1695 8.56938 13.396C7.65674 14.6225 6.08888 19.6229 5.83147 20.4012C5.62554 21.0239 5.49604 20.5663 5.45703 20.2597C5.58184 19.7015 5.95313 18.1511 6.43987 16.4151C7.79713 11.7213 9.40845 9.05443 11.927 8.99447Z" fill="currentColor"/>
        <path d="M22.3291 8.84374C19.5772 8.3574 17.9532 10.2074 17.4851 11.1932L17.2745 12.0279C18.4368 11.1238 21.1778 9.61738 22.844 10.825C24.9266 12.3346 27.1263 19.7172 27.4305 20.8966C27.6739 21.84 27.8752 21.0381 27.9454 20.5192C27.2199 16.83 25.0811 9.33007 22.3291 8.84374Z" fill="currentColor"/>
        <path d="M12.1142 11.8735C13.4029 11.57 14.4276 12.1221 14.7789 12.4361C15.0167 12.607 14.878 12.7392 14.7789 12.7839C14.5079 12.668 13.7618 12.3934 12.9454 12.2225C11.9248 12.0089 11.0905 12.7688 10.8045 13.2543C10.5757 13.6428 10.8999 14.4683 11.0905 14.8324C10.935 14.8375 10.5727 14.711 10.3679 14.1648C10.112 13.482 10.5034 12.2529 12.1142 11.8735Z" fill="currentColor"/>
        <path d="M21.4905 11.3413C19.4938 10.809 18.1115 12.4361 17.975 12.4361C17.7461 12.607 17.8796 12.798 17.975 12.8722C18.066 12.7575 18.4835 12.3972 19.4256 11.8735C20.6031 11.2189 22.0878 11.8735 22.3291 12.5282C22.5704 13.1828 22.5998 14.0419 22.3291 14.4031C22.0585 14.7643 22.844 14.4719 23.1044 14.1648C23.3648 13.8576 23.4872 11.8735 21.4905 11.3413Z" fill="currentColor"/>
        <path d="M22.0537 12.8722C21.7783 12.2013 20.6884 12.0279 20.5007 12.0279C20.404 12.1316 20.3027 12.3584 20.6714 12.4361C21.1322 12.5333 21.2175 12.7839 21.4905 13.2543C21.7636 13.7247 21.61 13.8871 21.8489 13.8871C22.0878 13.8871 22.3291 13.543 22.0537 12.8722Z" fill="currentColor"/>
        <path d="M11.0905 13.7323C11.3194 12.769 12.1006 12.5282 12.4627 12.5282C12.6236 12.5282 12.8761 12.5793 12.5992 12.7839C12.253 13.0397 11.927 13.2543 11.8312 13.7323C11.7354 14.2102 10.8045 14.9364 11.0905 13.7323Z" fill="currentColor"/>
        <path d="M15.1591 13.7323C15.0738 13.2997 14.2375 13.0614 14.0839 13.0614C14.0839 13.2506 14.2034 14.4891 13.589 14.6611C12.9746 14.8331 12.9454 14.4031 12.5992 14.6611C12.253 14.9192 12.7528 15.2804 13.8962 15.1944C15.0396 15.1084 15.2444 14.1648 15.1591 13.7323Z" fill="currentColor"/>
        <path d="M17.975 13.8871C18.0774 13.113 18.8624 13.2543 19.0842 13.2543C18.8453 13.4136 18.4426 13.7804 18.7429 13.9731C19.0433 14.1657 19.5848 13.8928 19.8181 13.7323C19.5735 13.9559 19.0842 14.4341 19.0842 14.5579C19.0842 14.7127 19.6986 14.8324 19.9375 14.6611C20.1765 14.4898 20.6714 14.5407 20.6714 14.8324C20.6714 15.1241 19.545 15.2976 19.2378 15.1944C18.9306 15.0912 17.8726 14.6611 17.975 13.8871Z" fill="currentColor"/>
        <path d="M16.3537 12.8722C16.7803 12.683 16.9743 13.2543 17.0875 13.2543L15.8076 13.396C15.8474 13.2845 16.0124 13.0236 16.3537 12.8722Z" fill="currentColor"/>
        <path d="M16.5926 13.5774C16.1967 13.5774 15.9612 13.8412 15.8929 13.9731H17.0875C17.0875 13.8412 16.9885 13.5774 16.5926 13.5774Z" fill="currentColor"/>
        <path d="M16.5926 14.1648C16.1967 14.1648 15.9612 14.4269 15.8929 14.5579C16.1796 14.4754 16.7333 14.5923 16.9743 14.6611C17.0121 14.4957 16.9885 14.1648 16.5926 14.1648Z" fill="currentColor"/>
        <path d="M16.5926 14.8324C16.2109 14.8324 15.8076 15.1944 15.8076 15.3148C16.1198 15.1772 16.791 15.2574 17.0875 15.3148C17.0498 15.154 16.898 14.8324 16.5926 14.8324Z" fill="currentColor"/>
        <path d="M15.8929 16.9833C15.8929 16.7081 16.257 16.4898 16.439 16.4151C16.6552 16.4151 17.1249 16.4874 17.2745 16.7769C17.4241 17.0664 17.0188 17.3677 16.7974 17.4822C16.4959 17.4306 15.8929 17.2585 15.8929 16.9833Z" fill="currentColor"/>
        <path d="M21.6441 15.8824C20.7226 15.7104 19.4256 16.2953 19.3402 16.4151C21.0639 16.2081 22.1732 16.8801 23.1044 16.4151C24.0356 15.95 23.9992 14.6611 24.2211 14.1648C24.4429 13.6684 23.9992 13.5774 23.9992 13.8871C23.7603 15.7462 22.5657 16.0544 21.6441 15.8824Z" fill="currentColor"/>
        <path d="M10.8045 15.8824H12.9454C13.0518 15.9627 13.2009 16.1301 12.9454 16.1577C12.626 16.1921 10.8926 16.7769 10.3679 16.4151C9.84325 16.0533 9.23721 15.1944 8.99829 14.4031C8.75937 13.6118 9.08362 13.0614 9.23721 13.7323C9.3908 14.4031 10.0564 15.8824 10.8045 15.8824Z" fill="currentColor"/>
        <path d="M20.6714 21.9642C20.3993 21.515 18.4964 19.0053 17.579 17.8065C17.4586 17.5182 17.7145 17.1844 17.975 17.3817C18.2354 17.5789 21.0867 21.8276 21.4905 22.3284C21.8944 22.8291 21.0114 22.5256 20.6714 21.9642Z" fill="currentColor"/>
        <path d="M12.4605 22.0704C12.7616 21.5393 15.3208 17.8065 15.4413 17.7003C15.6363 17.4418 15.4413 16.9833 15.1591 17.3817C14.8769 17.78 12.2648 21.4483 11.8312 22.0704C11.3977 22.6925 12.1594 22.6015 12.4605 22.0704Z" fill="currentColor"/>
        <path d="M15.08 22.3284V18.8991C15.08 18.4499 15.6922 18.2162 15.9983 18.1555C15.9632 19.2936 15.914 21.6971 15.9983 22.207C16.0826 22.7168 16.6841 22.7027 16.9743 22.6319V18.8991C16.9743 18.1343 17.3774 18.2769 17.579 18.4438V22.0704C17.579 22.8595 18.3919 22.5256 18.3919 22.207C18.3919 21.9521 18.4522 20.5328 18.4823 19.855C18.6077 20.0764 18.8707 20.5192 18.9188 20.5192C18.9791 20.5192 19.2378 21.7669 19.0842 22.3284C18.9306 22.8898 19.506 22.6319 19.6565 22.3284C19.777 22.0856 19.8144 21.8023 19.8181 21.6911L20.7856 22.7836H19.9375L18.6178 23.0871L17.579 22.7836C17.2779 22.8392 16.6591 22.9505 16.5926 22.9505C16.5261 22.9505 15.978 22.7381 15.7123 22.6319C15.6219 22.7836 15.3848 23.0871 15.1591 23.0871C14.9333 23.0871 14.3398 22.8848 14.0713 22.7836C13.8405 22.8797 13.3547 23.0749 13.2584 23.0871C13.162 23.0992 12.7788 22.8898 12.5992 22.7836L12.7917 22.3284L12.9454 22.6319H13.589L13.695 21.2055L14.4176 20.113V22.3284C14.4176 22.8139 15.08 22.6622 15.08 22.3284Z" fill="currentColor"/>
        <path d="M17.975 23.3906C18.917 23.4027 20.0305 23.1933 20.4695 23.0871C20.7491 23.0252 20.891 23.3906 20.7856 23.4664C20.6802 23.5423 19.5361 23.7699 18.9188 23.7699C18.3016 23.7699 14.0713 23.8306 13.3487 23.7699C12.6261 23.7092 12.4605 23.6333 12.4605 23.4664C12.4605 23.2995 12.7917 23.3906 13.3487 23.3906C13.9057 23.3906 16.7974 23.3754 17.975 23.3906Z" fill="currentColor"/>
        <path d="M21.0415 23.0871C21.0415 22.9414 21.2121 22.8241 21.2975 22.7836C21.5534 22.7836 21.8489 22.9505 21.9297 23.2085C22.0106 23.4664 21.6441 23.4664 21.3577 23.4664C21.0712 23.4664 21.0415 23.2692 21.0415 23.0871Z" fill="currentColor"/>
        <path d="M11.0905 23.0871C11.0905 22.7836 11.5121 22.7836 11.6777 22.7836C11.827 22.7797 11.9938 22.7836 12.1444 23.0871C12.2949 23.3906 11.8312 23.5878 11.6777 23.5878C11.5241 23.5878 11.0905 23.3906 11.0905 23.0871Z" fill="currentColor"/>
        <path d="M14.8843 16.8809L12.7014 20.2951L11.3766 21.3724L10.5034 17.2603L12.9454 16.5016L14.8843 16.8809Z" fill="currentColor"/>
        <path d="M18.6178 17.3817C19.5754 18.5804 21.4905 20.9961 21.4905 21.0689L22.4868 17.8065L21.9297 16.9833L20.4695 16.6685L18.9188 16.8809L18.6178 17.3817Z" fill="currentColor"/>
        <path d="M7.57359 13.9258H0.431641" stroke="currentColor" stroke-width="0.5"/>
        <path d="M32.431 13.9258H25.2891" stroke="currentColor" stroke-width="0.5"/>
    </symbol>

    <symbol id="menu-exit" viewBox="0 0 34 21">
       <path d="M16.7821 13.3832C17.369 13.0614 18.3164 13.151 19.1336 13.6312C19.4639 13.8253 19.9565 14.0542 20.4452 14.2816C21.1657 14.6168 21.8794 14.9486 22.0565 15.1605L22.1922 15.3138C22.6148 15.7804 23.5482 16.8118 23.4696 18.1488C23.4549 18.5331 22.5858 19.3051 22.1532 19.6429C21.9019 19.8563 21.1944 20.1548 20.3719 19.6429C20.0351 19.3583 19.7635 18.836 19.6698 18.6107H18.9871L18.6493 19.2513H16.9422L16.5828 18.6107H15.9461C15.9355 19.0079 15.6568 19.8451 14.6268 20.016C13.5969 20.1867 13.0257 19.8386 12.869 19.6429C12.516 19.5362 11.7573 19.0093 11.5477 17.7572C11.698 16.9805 12.3067 15.3308 13.5369 14.9466C14.0637 14.6801 14.7024 14.3809 15.2879 14.1068C15.9136 13.8139 16.4789 13.5494 16.7821 13.3832ZM17.0037 15.1419L15.8397 17.6566H15.575C15.1957 17.3743 14.2569 16.9396 13.5369 17.4584C12.6372 18.1067 12.9678 19.655 14.0526 19.7084C14.9207 19.7507 15.4821 18.7727 15.6541 18.2787H16.1043L17.2821 15.5521H18.4735L19.3065 18.1195L19.9549 18.1996C19.9109 18.6055 20.0746 19.4463 21.0799 19.5628C22.3371 19.7084 22.3114 18.4242 22.1659 18.0404C22.0203 17.6566 21.3978 17.1405 20.3524 17.5375C19.5163 17.855 19.3066 17.4232 19.3065 17.1673L18.6717 15.1419H17.0037ZM17.3934 15.8851L16.6327 18.1195L17.2821 18.7972L18.3573 18.7054L18.783 18.0404L18.245 15.8851H17.3934ZM13.243 14.7513C11.9055 15.3632 11.3808 16.8801 11.286 17.5619C10.9717 17.2476 10.2296 16.4801 9.77425 15.9252C9.6747 14.5452 10.9148 13.5566 11.5477 13.2347L13.243 14.7513ZM23.7362 13.6312C25.7282 14.1292 25.5148 15.9254 25.408 16.1566C25.3441 16.2943 24.9534 16.5959 24.535 16.9183C24.2502 17.1378 23.9522 17.3675 23.7362 17.5619C23.5939 16.5089 22.6808 15.3794 22.242 14.9466C22.5502 14.5851 23.2808 13.8165 23.7362 13.6312ZM24.661 7.58824C24.6728 9.35336 24.7613 12.9229 25.0174 13.0794C25.3377 13.2754 26.173 14.1821 26.2977 15.0355C26.4222 15.8892 25.9421 16.3164 25.9598 15.6586C25.7037 13.9795 24.7026 13.4419 24.2342 13.3832L24.1278 13.2347L24.0037 7.58824H24.661ZM11.286 7.58824V12.9369C9.7919 13.9468 9.44207 15.1014 9.45394 15.5521C9.282 15.4217 8.94934 15.1605 8.99203 15.1605C9.12009 13.6238 10.0648 13.0377 10.5213 12.9369V7.58824H11.286ZM23.5633 7.58824V9.71812L22.3534 11.056L19.951 10.0404L21.9325 11.5511L22.0565 12.0707L21.5858 13.2347V14.3002L20.3719 13.2347C20.05 13.1109 19.3517 12.7497 19.1336 12.2943C18.9157 11.8386 18.5806 10.849 18.4403 10.4115V11.8236L17.2762 11.6752L17.1278 10.2875C17.037 10.6424 16.8008 11.4472 16.5828 11.8236C16.3103 12.2941 15.3448 13.1601 14.6268 13.3832C14.0522 13.5615 13.6608 14.069 13.5369 14.3002V12.6654C13.5369 12.3684 13.4048 11.9806 13.3387 11.8236L16.2118 10.0404C15.4523 10.4366 13.8143 11.2288 13.3387 11.2289C12.8632 11.2289 11.9464 10.2217 11.5477 9.71812V7.58824H23.5633ZM23.4696 13.2347L22.0565 14.3002C22.0297 13.9535 22.1073 13.1409 22.6336 12.6654C23.1601 12.1899 23.2918 11.2608 23.2918 10.8558L23.4696 13.2347ZM11.9979 10.8558C12.069 11.3208 12.3139 12.3339 12.7264 12.6654C13.139 12.9966 13.243 13.7551 13.243 14.0931L11.7127 12.6654L11.9979 10.8558ZM10.2547 12.0707H9.6141V8.57945H10.2547V12.0707ZM25.408 11.8236H25.0174V8.75718H25.408V11.8236ZM12.2479 9.46421L13.5994 10.43H14.0496L16.0936 9.46421L16.6561 8.19371H12.2479V9.46421ZM19.4237 9.30308L22.0789 10.349L23.0438 9.30308V8.0482H18.8289L19.4237 9.30308ZM17.784 0.549175C20.4913 0.57961 23.2287 2.2222 23.5633 2.80015C23.8979 3.37816 24.2937 4.98983 24.2938 5.32457C24.2938 5.59225 21.211 6.1658 19.6698 6.41929H15.3202C14.002 6.13539 11.3166 5.51925 11.1219 5.32457C11.1118 4.58465 11.1831 3.04445 11.5477 2.80015C12.0039 2.49597 15.0768 0.518757 17.784 0.549175Z" fill="currentColor"/>
        <path d="M7.86914 11.875H0.431641" stroke="currentColor" stroke-width="0.5"/>
        <path d="M33.7559 11.875H26.3184" stroke="currentColor" stroke-width="0.5"/>
    </symbol>

    <symbol id="tg" viewBox="0 0 19 19">
       <path d="M18.2372 1.50717L15.9536 16.3151C15.9179 16.6719 15.7038 16.9931 15.3827 17.1715C15.2043 17.2428 15.0259 17.3142 14.8118 17.3142C14.6691 17.3142 14.5263 17.2785 14.3836 17.2071L10.0304 15.3874L8.21066 18.0992C8.06793 18.349 7.81816 18.456 7.56839 18.456C7.17589 18.456 6.85475 18.1349 6.85475 17.7424V14.3169C6.85475 14.0315 6.92611 13.7817 7.06884 13.6033L14.8475 3.61239L4.35703 13.0681L0.681803 11.5337C0.289304 11.3553 0.00384946 10.9985 0.00384946 10.5347C-0.0318323 10.0351 0.182258 9.67829 0.574758 9.4642L16.5602 0.36535C16.917 0.151259 17.4166 0.151259 17.7734 0.401031C18.1302 0.650804 18.3086 1.07899 18.2372 1.50717Z" fill="currentColor" />
    </symbol>

   <symbol id="search" viewBox="0 0 21 22">
      <path d="M20.375 18.6055C20.9609 19.2305 20.9609 20.207 20.375 20.832C19.75 21.418 18.7734 21.418 18.1484 20.832L13.5 16.1445C11.8984 17.1992 9.94531 17.7461 7.83594 17.4727C4.24219 16.9648 1.35156 14.0352 0.882812 10.4805C0.21875 5.16797 4.71094 0.675781 10.0234 1.33984C13.5781 1.80859 16.5078 4.69922 17.0156 8.29297C17.2891 10.4023 16.7422 12.3555 15.6875 13.918L20.375 18.6055ZM3.92969 9.38672C3.92969 12.1602 6.15625 14.3867 8.92969 14.3867C11.6641 14.3867 13.9297 12.1602 13.9297 9.38672C13.9297 6.65234 11.6641 4.38672 8.92969 4.38672C6.15625 4.38672 3.92969 6.65234 3.92969 9.38672Z" fill="currentColor"/>
   </symbol>

   <symbol id="sort-arrow" viewBox="0 0 8 12">
      <path d="M3.62692 11.3912C3.82218 11.5864 4.13876 11.5864 4.33402 11.3912L7.516 8.20917C7.71127 8.01391 7.71127 7.69733 7.516 7.50206C7.32074 7.3068 7.00416 7.3068 6.8089 7.50206L3.98047 10.3305L1.15204 7.50206C0.95678 7.3068 0.640197 7.3068 0.444935 7.50206C0.249673 7.69733 0.249673 8.01391 0.444935 8.20917L3.62692 11.3912ZM3.48047 0.740234L3.48047 11.0376L4.48047 11.0376L4.48047 0.740234L3.48047 0.740234Z" fill="currentColor" />
   </symbol>

   <symbol id="calendar" viewBox="0 0 18 20">
      <path d="M0.287109 18.125V7.5H17.7871V18.125C17.7871 19.1797 16.9277 20 15.9121 20H2.16211C1.10742 20 0.287109 19.1797 0.287109 18.125ZM12.7871 10.4688V12.0312C12.7871 12.3047 12.9824 12.5 13.2559 12.5H14.8184C15.0527 12.5 15.2871 12.3047 15.2871 12.0312V10.4688C15.2871 10.2344 15.0527 10 14.8184 10H13.2559C12.9824 10 12.7871 10.2344 12.7871 10.4688ZM12.7871 15.4688V17.0312C12.7871 17.3047 12.9824 17.5 13.2559 17.5H14.8184C15.0527 17.5 15.2871 17.3047 15.2871 17.0312V15.4688C15.2871 15.2344 15.0527 15 14.8184 15H13.2559C12.9824 15 12.7871 15.2344 12.7871 15.4688ZM7.78711 10.4688V12.0312C7.78711 12.3047 7.98242 12.5 8.25586 12.5H9.81836C10.0527 12.5 10.2871 12.3047 10.2871 12.0312V10.4688C10.2871 10.2344 10.0527 10 9.81836 10H8.25586C7.98242 10 7.78711 10.2344 7.78711 10.4688ZM7.78711 15.4688V17.0312C7.78711 17.3047 7.98242 17.5 8.25586 17.5H9.81836C10.0527 17.5 10.2871 17.3047 10.2871 17.0312V15.4688C10.2871 15.2344 10.0527 15 9.81836 15H8.25586C7.98242 15 7.78711 15.2344 7.78711 15.4688ZM2.78711 10.4688V12.0312C2.78711 12.3047 2.98242 12.5 3.25586 12.5H4.81836C5.05273 12.5 5.28711 12.3047 5.28711 12.0312V10.4688C5.28711 10.2344 5.05273 10 4.81836 10H3.25586C2.98242 10 2.78711 10.2344 2.78711 10.4688ZM2.78711 15.4688V17.0312C2.78711 17.3047 2.98242 17.5 3.25586 17.5H4.81836C5.05273 17.5 5.28711 17.3047 5.28711 17.0312V15.4688C5.28711 15.2344 5.05273 15 4.81836 15H3.25586C2.98242 15 2.78711 15.2344 2.78711 15.4688ZM15.9121 2.5C16.9277 2.5 17.7871 3.35938 17.7871 4.375V6.25H0.287109V4.375C0.287109 3.35938 1.10742 2.5 2.16211 2.5H4.03711V0.625C4.03711 0.3125 4.31055 0 4.66211 0H5.91211C6.22461 0 6.53711 0.3125 6.53711 0.625V2.5H11.5371V0.625C11.5371 0.3125 11.8105 0 12.1621 0H13.4121C13.7246 0 14.0371 0.3125 14.0371 0.625V2.5H15.9121Z" fill="currentColor"/>
   </symbol>

   <symbol id="select-arrow" viewBox="0 0 16 9">
       <path d="M8.81453 8.20711C8.424 8.59763 7.79084 8.59763 7.40032 8.20711L1.03635 1.84315C0.64583 1.45262 0.64583 0.819457 1.03635 0.428932C1.42688 0.038408 2.06004 0.038408 2.45057 0.428932L8.10742 6.08579L13.7643 0.428932C14.1548 0.0384078 14.788 0.0384078 15.1785 0.428932C15.569 0.819456 15.569 1.45262 15.1785 1.84315L8.81453 8.20711ZM8.10742 6.5L9.10742 6.5L9.10742 7.5L8.10742 7.5L7.10742 7.5L7.10742 6.5L8.10742 6.5Z" fill="currentColor" />
   </symbol>

   <symbol id="upload" viewBox="0 0 20 23">
       <path d="M3.02344 19.6406C0.71875 17.2578 0.757812 13.4688 3.0625 11.125L11.2656 2.72656C12.9844 0.96875 15.7969 0.96875 17.5547 2.72656C19.2344 4.48438 19.2734 7.33594 17.5547 9.09375L10.4062 16.3984C9.23438 17.5703 7.32031 17.5703 6.1875 16.3594C5.05469 15.1875 5.09375 13.3125 6.22656 12.1797L11.8516 6.4375C12.0859 6.20312 12.4766 6.16406 12.75 6.4375L13.6094 7.29688C13.8828 7.53125 13.8828 7.92188 13.6484 8.19531L8.02344 13.8984C7.82812 14.0938 7.82812 14.4453 7.98438 14.6406C8.17969 14.7969 8.45312 14.7969 8.60938 14.6406L15.7578 7.33594C16.5 6.55469 16.5 5.26562 15.7578 4.48438C15.0156 3.74219 13.8047 3.74219 13.0625 4.48438L4.85938 12.8828C3.49219 14.25 3.49219 16.5156 4.82031 17.8828C6.14844 19.25 8.29688 19.25 9.625 17.8828L16.3438 11.0078C16.5781 10.7734 16.9688 10.7734 17.2031 11.0078L18.1016 11.9062C18.375 12.1406 18.375 12.5312 18.1406 12.7656L11.4219 19.6406C9.07812 22.0234 5.32812 21.9844 3.02344 19.6406Z" fill="currentColor"/>
   </symbol>

   <symbol id="book" viewBox="0 0 19 21">
       <path d="M18.3555 14.7559C18.3555 15.0684 18.1992 15.3418 18.0039 15.498C17.8086 16.084 17.8086 17.8027 18.0039 18.4277C18.1992 18.584 18.3555 18.8574 18.3555 19.1309V19.7559C18.3555 20.3027 17.9258 20.6934 17.418 20.6934H4.60547C2.53516 20.6934 0.855469 19.0137 0.855469 16.9434V4.44336C0.855469 2.37305 2.53516 0.693359 4.60547 0.693359H17.418C17.9258 0.693359 18.3555 1.12305 18.3555 1.63086V14.7559ZM5.85547 5.92773V6.70898C5.85547 6.86523 5.93359 6.94336 6.08984 6.94336H14.3711C14.4883 6.94336 14.6055 6.86523 14.6055 6.70898V5.92773C14.6055 5.81055 14.4883 5.69336 14.3711 5.69336H6.08984C5.93359 5.69336 5.85547 5.81055 5.85547 5.92773ZM5.85547 8.42773V9.20898C5.85547 9.36523 5.93359 9.44336 6.08984 9.44336H14.3711C14.4883 9.44336 14.6055 9.36523 14.6055 9.20898V8.42773C14.6055 8.31055 14.4883 8.19336 14.3711 8.19336H6.08984C5.93359 8.19336 5.85547 8.31055 5.85547 8.42773ZM15.7383 18.1934C15.6602 17.5293 15.6602 16.3965 15.7383 15.6934H4.60547C3.90234 15.6934 3.35547 16.2793 3.35547 16.9434C3.35547 17.6465 3.90234 18.1934 4.60547 18.1934H15.7383Z" fill="currentColor"/>
   </symbol>

   <symbol id="btn-arrow" viewBox="0 0 9 16">
       <path d="M8.08784 8.79304C8.47836 8.40252 8.47836 7.76935 8.08784 7.37883L1.72388 1.01487C1.33335 0.624345 0.700189 0.624345 0.309664 1.01487C-0.0808601 1.40539 -0.0808601 2.03856 0.309664 2.42908L5.96652 8.08594L0.309664 13.7428C-0.0808601 14.1333 -0.0808601 14.7665 0.309664 15.157C0.700189 15.5475 1.33335 15.5475 1.72388 15.157L8.08784 8.79304ZM6.52344 9.08594H7.38073V7.08594H6.52344V9.08594Z" fill="currentColor" />
   </symbol>

   <symbol id="slider-btn" viewBox="0 0 44 44">
       <path d="M22.4016 0.618651C34.2937 0.618651 43.9341 10.2591 43.9341 22.1511C43.9341 34.0432 34.2937 43.6836 22.4016 43.6836C10.5096 43.6836 0.86914 34.0432 0.86914 22.1511C0.869139 10.2591 10.5096 0.618652 22.4016 0.618651ZM22.4016 40.5487C32.5623 40.5487 40.7992 32.3118 40.7992 22.1511C40.7992 11.9904 32.5623 3.75353 22.4016 3.75354C12.2409 3.75354 4.00402 11.9904 4.00402 22.1511C4.00402 32.3118 12.2409 40.5487 22.4016 40.5487Z" fill="currentColor" />
        <path d="M27.5943 23.213C28.1801 22.6272 28.1801 21.6775 27.5943 21.0917L18.0484 11.5457C17.4626 10.96 16.5128 10.96 15.9271 11.5457C15.3413 12.1315 15.3413 13.0813 15.9271 13.6671L24.4123 22.1523L15.9271 30.6376C15.3413 31.2234 15.3413 32.1732 15.9271 32.7589C16.5128 33.3447 17.4626 33.3447 18.0484 32.7589L27.5943 23.213ZM25.3184 22.1523L25.3184 23.6523L26.5337 23.6523L26.5337 22.1523L26.5337 20.6523L25.3184 20.6523L25.3184 22.1523Z" fill="currentColor" />
   </symbol>

   <symbol id="down" viewBox="0 0 16 31">
       <path d="M7.3632 30.7071C7.75373 31.0976 8.38689 31.0976 8.77742 30.7071L15.1414 24.3431C15.5319 23.9526 15.5319 23.3195 15.1414 22.9289C14.7509 22.5384 14.1177 22.5384 13.7272 22.9289L8.07031 28.5858L2.41346 22.9289C2.02293 22.5384 1.38977 22.5384 0.999244 22.9289C0.608719 23.3195 0.608719 23.9526 0.999244 24.3431L7.3632 30.7071ZM7.07031 0.667969L7.07031 30L9.07031 30L9.07031 0.667969L7.07031 0.667969Z" fill="currentColor" />
   </symbol>

   <symbol id="chat-btn-arrow" viewBox="0 0 14 23">
      <path d="M12.8368 12.2462C13.4226 11.6604 13.4226 10.7107 12.8368 10.1249L3.29084 0.578946C2.70505 -0.00684066 1.75531 -0.00684058 1.16952 0.578946C0.583734 1.16473 0.583734 2.11448 1.16952 2.70027L9.6548 11.1855L1.16952 19.6708C0.583736 20.2566 0.583736 21.2064 1.16952 21.7921C1.75531 22.3779 2.70506 22.3779 3.29084 21.7921L12.8368 12.2462ZM9.77539 11.1855L9.77539 12.6855L11.7761 12.6855L11.7761 11.1855L11.7761 9.68555L9.77539 9.68555L9.77539 11.1855Z" fill="currentColor" />
   </symbol>

   <symbol id="chat-btn-emoji" viewBox="0 0 24 24" fill="none">
      <circle cx="12.1777" cy="11.7949" r="10.25" stroke="currentColor" stroke-width="2" />
      <circle cx="9.27734" cy="9.41797" r="1" fill="currentColor" stroke="currentColor" stroke-width="0.847656" />
      <circle cx="15.1172" cy="9.41797" r="1" fill="currentColor" stroke="currentColor" stroke-width="0.847656" />
      <path d="M6.6582 14.1855C6.90732 15.2507 8.33421 17.3809 12.0488 17.3809C15.7634 17.3809 17.1914 15.2507 17.441 14.1855" stroke="currentColor" stroke-width="2" />
   </symbol>

   <symbol id="chat-btn-emoji" viewBox="0 0 24 24" fill="none">
      <circle cx="12.1777" cy="11.7949" r="10.25" stroke="currentColor" stroke-width="2" />
      <circle cx="9.27734" cy="9.41797" r="1" fill="currentColor" stroke="currentColor" stroke-width="0.847656" />
      <circle cx="15.1172" cy="9.41797" r="1" fill="currentColor" stroke="currentColor" stroke-width="0.847656" />
      <path d="M6.6582 14.1855C6.90732 15.2507 8.33421 17.3809 12.0488 17.3809C15.7634 17.3809 17.1914 15.2507 17.441 14.1855" stroke="currentColor" stroke-width="2" />
   </symbol>

   <symbol id="edit" viewBox="0 0 29 26" fill="none">
      <path d="M19.7891 4.95312L24.0078 9.17188C24.1953 9.35938 24.1953 9.64062 24.0078 9.82812L13.7891 20.0469L9.42969 20.5156C8.86719 20.6094 8.35156 20.0938 8.44531 19.5312L8.91406 15.1719L19.1328 4.95312C19.3203 4.76562 19.6016 4.76562 19.7891 4.95312ZM27.3828 3.875C28.0859 4.57812 28.0859 5.75 27.3828 6.45312L25.7422 8.09375C25.5547 8.28125 25.2734 8.28125 25.0859 8.09375L20.8672 3.875C20.6797 3.6875 20.6797 3.40625 20.8672 3.21875L22.5078 1.57812C23.2109 0.875 24.3828 0.875 25.0859 1.57812L27.3828 3.875ZM18.9453 17.2812C18.9453 17.0938 18.9922 16.9531 19.0859 16.8594L20.9609 14.9844C21.3359 14.6562 21.9453 14.8906 21.9453 15.4062V22.7656C21.9453 24.0312 20.9141 25.0156 19.6953 25.0156H3.19531C1.92969 25.0156 0.945312 24.0312 0.945312 22.7656V6.26562C0.945312 5.04688 1.92969 4.01562 3.19531 4.01562H16.5547C17.0703 4.01562 17.3047 4.625 16.9766 5L15.1016 6.875C15.0078 6.96875 14.8672 7.01562 14.6797 7.01562H3.94531V22.0156H18.9453V17.2812Z" fill="currentColor"/>
   </symbol>
</svg>